{"glyphs":{"0":{"ha":761,"x_min":0,"x_max":0,"o":"m 361 407 b 244 361 351 404 251 367 b 149 201 201 335 147 249 b 171 106 149 196 168 110 b 254 19 188 71 213 46 b 488 8 318 -22 422 -19 b 628 151 532 28 619 99 b 572 344 635 190 635 286 b 361 407 518 397 411 418 z m 267 264 b 351 371 274 308 299 358 b 469 338 376 376 438 371 b 518 121 521 286 532 175 b 497 67 514 107 499 69 b 450 26 486 46 476 33 b 326 57 408 14 367 21 b 267 264 271 106 256 203 z "},"1":{"ha":761,"x_min":0,"x_max":0,"o":"m 569 29 b 492 43 567 29 492 42 b 469 150 467 58 469 129 l 469 283 b 454 407 469 300 475 392 b 311 354 431 422 333 367 l 229 308 l 229 301 l 238 290 b 261 297 249 290 254 293 l 360 338 b 368 263 363 308 368 292 l 368 203 b 356 56 368 185 372 72 b 274 43 346 46 281 44 b 250 29 261 43 257 39 b 256 7 247 18 253 11 b 378 0 263 0 374 0 l 538 0 b 563 6 546 0 554 6 l 571 17 z "},"2":{"ha":761,"x_min":0,"x_max":0,"o":"m 406 92 b 592 275 418 99 583 197 b 556 367 596 310 589 339 b 349 392 506 408 421 415 b 238 301 297 375 249 344 b 249 250 231 278 238 263 b 299 235 261 238 278 231 b 344 272 324 239 335 247 b 344 310 349 282 349 293 b 336 346 342 324 332 332 b 379 376 340 361 360 372 b 454 357 408 382 435 376 b 468 275 475 335 475 303 b 204 33 431 126 299 85 b 215 -4 204 19 200 11 b 250 -8 228 -15 238 -10 b 286 -4 271 -1 265 -11 l 324 0 l 361 0 b 518 7 413 6 474 10 l 526 -1 l 526 -18 b 556 -17 535 -21 550 -18 b 568 8 565 -8 564 1 l 576 36 b 599 92 582 54 590 72 l 619 140 b 571 121 603 150 583 133 b 546 101 564 117 561 113 b 524 96 540 99 526 97 b 429 92 508 93 446 92 z "},"3":{"ha":761,"x_min":0,"x_max":0,"o":"m 646 765 l 294 765 b 265 718 279 765 267 729 b 251 671 265 718 257 689 b 228 606 244 646 228 606 b 225 579 222 592 222 588 b 240 572 228 569 235 569 b 263 599 251 576 258 593 b 279 629 271 615 268 615 b 371 660 307 668 335 661 b 418 660 396 660 406 660 b 465 663 442 660 444 663 l 515 663 l 346 467 b 244 344 331 449 244 360 b 258 325 244 332 253 326 b 303 344 263 324 300 343 b 350 350 315 349 328 350 b 500 267 407 349 465 326 b 500 92 526 222 524 133 b 393 21 474 42 432 22 b 265 119 325 19 307 67 b 207 150 244 144 225 153 b 172 119 190 147 176 133 b 192 51 164 97 174 72 b 422 -11 247 -14 376 -19 b 625 139 510 4 590 50 b 603 326 644 192 640 279 b 351 394 549 396 424 404 l 647 750 b 651 760 647 750 651 754 b 646 765 651 765 646 765 z "},"4":{"ha":761,"x_min":0,"x_max":0,"o":"m 286 101 l 618 471 b 718 599 640 494 724 575 b 694 624 714 615 703 622 b 582 511 672 629 596 526 l 244 128 b 154 18 239 121 156 25 b 151 6 154 18 150 11 b 165 0 154 -4 165 0 b 265 4 172 -4 260 4 b 311 4 279 4 297 4 b 361 0 318 3 357 0 l 407 0 b 436 0 417 0 426 0 l 499 0 l 499 -87 l 497 -126 l 497 -293 b 503 -328 497 -307 494 -319 b 542 -319 514 -332 531 -322 b 581 -301 546 -317 578 -303 b 600 -189 604 -279 600 -212 l 600 374 b 588 394 600 396 597 401 b 514 326 544 363 526 340 b 497 106 496 271 515 231 l 496 96 l 432 96 b 381 96 415 96 396 96 l 354 96 b 318 100 349 96 322 100 b 286 101 308 100 297 101 z "},"5":{"ha":761,"x_min":0,"x_max":0,"o":"m 619 775 l 599 775 b 369 765 488 751 481 732 b 347 717 361 756 349 724 l 228 338 b 221 297 222 322 221 313 b 265 296 232 271 249 279 b 301 333 268 303 285 322 b 340 354 310 340 322 346 b 418 367 367 365 392 371 b 507 289 464 361 490 326 b 500 93 532 236 528 138 b 393 25 474 49 424 26 b 304 81 356 24 331 42 b 233 149 271 126 261 147 b 196 128 217 149 203 139 b 199 74 188 115 189 96 b 325 -8 221 25 289 -3 b 576 83 400 -21 510 13 b 636 290 638 147 650 224 b 525 408 624 346 574 390 b 278 357 442 440 350 410 b 314 479 288 407 296 433 l 381 649 b 475 658 428 649 461 654 b 619 775 538 674 592 707 z "},"6":{"ha":761,"x_min":0,"x_max":0,"o":"m 279 364 b 351 786 261 472 274 681 b 596 904 425 885 510 911 b 679 901 608 903 667 890 b 686 931 689 911 690 922 b 646 957 682 943 665 953 b 381 865 575 975 461 938 b 168 218 167 674 135 411 b 319 0 182 133 221 42 b 538 21 369 -21 481 -19 b 656 218 632 89 658 138 b 568 376 653 271 626 344 b 279 364 458 438 385 419 z m 306 340 b 351 369 319 354 333 363 b 465 353 386 381 429 379 b 533 168 521 310 535 219 b 481 31 532 140 521 57 b 400 29 461 18 428 17 b 281 214 333 60 292 158 b 306 340 275 247 271 306 z "},"7":{"ha":761,"x_min":0,"x_max":0,"o":"m 301 428 b 275 385 285 425 279 397 l 211 207 b 207 179 208 197 201 185 b 224 179 214 171 224 179 b 368 301 290 258 283 292 b 536 297 414 307 468 304 l 601 290 b 560 221 582 256 583 253 l 276 -176 b 186 -360 243 -222 172 -331 b 194 -378 186 -360 186 -374 b 211 -383 199 -381 211 -383 b 274 -379 218 -385 267 -385 b 297 -326 289 -371 292 -342 b 317 -271 301 -310 310 -287 b 375 -158 338 -221 368 -172 l 682 338 b 696 365 689 349 693 354 b 696 394 704 375 708 394 b 438 401 696 394 539 403 b 342 397 400 401 342 397 b 324 419 335 408 329 414 b 301 428 315 428 310 429 z "},"8":{"ha":761,"x_min":0,"x_max":0,"o":"m 496 447 b 606 536 532 474 582 504 b 629 656 635 574 642 618 b 492 785 607 722 554 765 b 300 742 440 800 351 782 b 208 564 233 690 206 626 b 346 394 214 474 251 453 b 293 353 328 376 308 368 b 183 157 194 278 172 247 b 300 6 192 79 221 42 b 574 43 372 -28 501 -7 b 672 240 638 86 675 193 b 496 447 665 349 590 397 z m 547 631 b 464 465 560 574 524 525 b 301 618 351 507 319 515 b 332 725 296 650 300 699 b 446 747 356 746 415 757 b 547 631 485 733 536 682 z m 288 292 b 382 372 303 318 336 342 b 568 193 482 326 549 303 b 535 75 575 157 574 115 b 403 29 504 43 438 24 b 303 107 365 35 325 61 b 288 292 285 143 265 251 z "},"9":{"ha":761,"x_min":0,"x_max":0,"o":"m 108 -372 b 467 -260 219 -412 357 -351 b 644 171 619 -133 663 40 b 475 392 631 272 585 344 b 282 369 425 414 328 403 b 175 163 188 301 169 236 b 278 17 179 104 236 38 b 506 42 329 -8 415 -19 b 450 -171 507 -46 494 -104 b 113 -360 338 -336 183 -351 b 104 -362 113 -360 106 -360 b 108 -372 101 -371 108 -372 z m 282 253 b 353 365 285 285 306 351 b 454 338 378 374 415 371 b 517 114 515 283 525 163 b 468 49 511 86 500 61 b 353 75 432 35 386 50 b 282 253 293 122 276 203 z "},"ð":{"ha":268,"x_min":0,"x_max":0,"o":""},"Š":{"ha":268,"x_min":0,"x_max":0,"o":""},"š":{"ha":268,"x_min":0,"x_max":0,"o":""},"Ý":{"ha":268,"x_min":0,"x_max":0,"o":""},"ý":{"ha":268,"x_min":0,"x_max":0,"o":""},"Þ":{"ha":268,"x_min":0,"x_max":0,"o":""},"þ":{"ha":268,"x_min":0,"x_max":0,"o":""},"½":{"ha":268,"x_min":0,"x_max":0,"o":""},"¼":{"ha":268,"x_min":0,"x_max":0,"o":""},"¹":{"ha":268,"x_min":0,"x_max":0,"o":""},"¾":{"ha":268,"x_min":0,"x_max":0,"o":""},"³":{"ha":268,"x_min":0,"x_max":0,"o":""},"²":{"ha":268,"x_min":0,"x_max":0,"o":""},"¦":{"ha":268,"x_min":0,"x_max":0,"o":""},"−":{"ha":268,"x_min":0,"x_max":0,"o":""},"×":{"ha":268,"x_min":0,"x_max":0,"o":""}," ":{"ha":268,"x_min":0,"x_max":0,"o":""},"!":{"ha":265,"x_min":0,"x_max":0,"o":"m 210 165 b 201 322 197 218 194 257 l 257 832 b 238 979 261 874 269 957 b 75 936 206 1000 113 958 b 71 928 75 936 71 933 b 75 922 71 922 75 922 b 99 924 81 918 92 922 b 119 919 107 925 114 922 b 146 811 146 906 146 850 l 146 372 b 200 158 146 290 164 211 b 210 156 201 156 204 153 b 210 165 215 158 211 161 z m 178 126 b 124 51 140 117 121 83 b 163 -7 125 26 140 6 b 225 -11 185 -19 206 -21 b 265 49 250 1 263 26 b 240 113 269 75 258 96 b 178 126 221 129 199 132 z "},"\"":{"ha":383,"x_min":0,"x_max":0,"o":"m 158 608 l 186 838 b 172 1000 190 868 210 974 b 115 1003 153 1014 129 1011 b 100 832 69 974 96 864 l 128 608 z m 358 606 l 388 832 b 376 996 392 868 415 972 b 314 1000 357 1011 331 1010 b 300 836 272 974 296 869 l 328 606 z "},"#":{"ha":1061,"x_min":0,"x_max":0,"o":"m 533 999 l 424 694 l 211 694 l 179 601 l 364 601 l 386 599 l 314 399 l 104 399 l 74 307 l 282 307 l 179 0 l 288 0 l 399 304 l 597 304 l 494 -1 l 606 -1 l 714 300 l 924 300 l 957 396 l 744 396 l 815 599 l 1029 599 l 1058 692 l 876 692 b 864 694 872 692 869 692 b 850 694 856 694 857 693 l 954 997 l 846 997 l 738 694 l 565 694 l 536 696 l 640 999 z m 431 399 l 504 600 l 700 600 l 633 399 z "},"$":{"ha":749,"x_min":0,"x_max":0,"o":"m 442 374 b 471 358 442 374 458 365 b 588 222 531 326 588 286 b 481 54 588 154 551 88 b 442 46 467 49 442 46 l 442 46 z m 463 568 l 446 576 l 446 950 b 486 943 446 950 474 949 b 626 718 583 910 601 790 l 635 694 b 654 664 639 681 642 664 b 663 715 663 664 663 692 l 663 864 l 663 896 l 660 928 l 657 960 b 643 990 656 975 656 983 b 606 976 633 990 614 981 b 569 982 597 974 588 975 b 475 1003 532 994 497 1000 b 446 1004 463 1004 446 1004 l 446 1004 l 444 1231 b 429 1240 444 1236 439 1240 b 415 1229 421 1240 415 1235 l 417 1003 l 417 1003 b 383 1000 417 1003 396 1003 b 240 940 335 989 288 976 b 124 675 140 864 118 742 b 310 444 136 544 176 517 l 349 424 b 413 390 368 414 394 397 l 413 42 b 383 42 413 42 396 36 b 268 90 346 42 306 60 b 178 350 169 167 199 271 b 167 356 175 354 172 357 b 147 318 154 351 154 338 b 138 269 147 303 138 282 l 83 96 b 71 40 72 60 76 72 b 76 31 71 40 68 32 b 106 43 88 29 99 36 b 128 57 114 49 124 54 b 174 54 140 63 151 61 b 326 8 261 24 272 19 b 393 -3 338 6 372 -1 l 413 -4 l 411 -199 l 440 -194 l 442 -193 l 442 -4 b 471 -3 442 -4 460 -4 b 608 46 507 1 558 14 b 743 283 708 108 744 203 b 574 506 742 383 657 450 b 463 568 528 536 503 547 z m 319 913 b 413 947 354 938 413 947 l 413 694 l 413 600 l 394 608 b 243 774 306 650 250 699 b 319 913 239 822 267 875 z "},"%":{"ha":861,"x_min":0,"x_max":0,"o":"m 258 967 b 183 939 231 961 213 957 b 71 788 107 894 74 846 b 160 618 68 729 88 671 b 365 600 211 581 311 579 b 499 732 407 615 489 690 b 461 894 503 754 501 854 b 258 967 406 951 314 976 z m 88 14 b 121 0 97 0 107 -4 b 151 32 135 4 143 22 l 750 829 b 832 950 760 843 836 936 b 813 968 828 963 821 967 b 706 849 789 971 715 861 l 103 49 b 88 14 96 36 88 24 z m 601 378 b 428 222 529 363 443 296 b 493 50 414 156 432 108 b 703 11 554 -8 644 -4 b 853 143 757 26 840 99 b 819 304 864 185 853 269 b 601 378 760 367 661 390 z m 185 722 b 221 931 164 785 165 894 b 324 932 235 939 294 944 b 396 815 376 908 386 872 b 367 631 406 754 407 668 b 286 622 350 615 322 613 b 185 722 235 636 203 667 z m 551 107 b 571 342 519 164 518 304 b 671 347 586 353 643 357 b 743 264 711 333 732 308 b 728 56 754 224 765 103 b 661 32 711 36 693 29 b 551 107 624 36 576 61 z "},"&":{"ha":1132,"x_min":0,"x_max":0,"o":"m 549 636 b 678 842 654 714 679 757 b 608 968 676 894 661 935 b 401 971 554 1001 456 996 b 265 806 336 942 275 868 b 369 611 251 715 288 688 b 132 435 257 561 203 528 b 83 196 74 360 63 264 b 263 -6 107 122 189 19 b 472 -17 328 -28 403 -28 b 683 83 563 -3 565 10 l 703 92 b 738 24 724 50 732 31 b 875 0 764 -8 847 0 l 1086 0 b 1125 7 1092 0 1118 3 l 1125 18 b 1088 29 1115 28 1089 29 b 1051 31 1075 29 1064 31 b 981 36 1042 31 990 33 b 844 194 915 53 867 144 b 881 354 817 261 849 288 l 936 471 b 1013 593 946 492 986 574 b 1075 606 1028 604 1036 604 b 1106 608 1085 606 1097 608 b 1132 622 1118 608 1128 610 b 1107 636 1132 638 1111 635 l 1078 633 l 786 633 b 761 624 771 633 767 633 b 760 617 761 624 760 619 b 761 608 760 614 761 608 b 799 599 771 600 789 600 l 835 596 b 886 565 865 590 878 582 b 803 313 910 515 829 357 l 740 404 b 578 603 660 522 672 494 z m 585 815 b 497 678 582 772 558 726 b 350 861 450 714 342 803 b 413 938 354 894 374 919 b 532 929 446 953 499 951 b 585 815 574 900 588 860 z m 232 396 b 421 571 250 475 360 543 b 588 371 476 524 564 413 b 675 157 601 347 679 172 b 553 64 665 111 608 82 b 340 107 499 47 403 49 b 232 396 242 200 208 296 z "},"'":{"ha":257,"x_min":0,"x_max":0,"o":"m 83 690 b 119 693 96 681 107 688 b 154 713 138 701 149 708 b 261 911 222 765 261 853 b 236 971 261 942 254 958 b 140 983 215 988 165 992 b 100 963 117 978 106 968 b 83 921 85 949 83 935 b 174 860 133 926 160 924 b 83 690 190 786 144 757 z "},"(":{"ha":422,"x_min":0,"x_max":0,"o":"m 403 986 b 358 974 389 986 369 981 b 82 501 171 886 99 643 b 394 -293 53 257 90 -112 b 415 -297 399 -296 410 -299 b 426 -289 422 -296 424 -296 b 422 -276 428 -285 425 -279 b 376 -231 411 -267 382 -236 b 201 472 224 -92 193 236 l 203 513 b 346 929 206 597 231 857 b 390 956 358 938 388 956 b 403 986 424 963 421 986 z "},")":{"ha":417,"x_min":0,"x_max":0,"o":"m 133 974 b 88 986 122 981 101 986 b 100 956 69 986 67 963 b 146 929 103 956 133 938 b 288 513 261 857 285 597 l 289 472 b 114 -231 297 236 267 -92 b 68 -276 108 -236 79 -267 b 64 -289 65 -279 63 -285 b 75 -297 67 -296 68 -296 b 96 -293 81 -299 92 -296 b 408 501 400 -112 439 257 b 133 974 392 643 319 886 z "},"*":{"ha":385,"x_min":0,"x_max":0,"o":"m 267 822 b 264 850 258 829 264 843 b 269 881 265 857 269 876 b 278 939 274 896 285 926 b 249 963 271 954 261 961 b 215 950 233 964 219 957 b 232 824 203 936 229 835 b 181 856 215 818 194 847 b 132 897 163 871 151 893 b 99 885 118 900 106 892 b 93 850 92 875 89 863 b 149 817 100 832 119 825 b 179 807 164 810 163 813 b 207 790 185 806 203 797 b 181 775 201 782 189 779 l 151 768 b 97 743 136 764 110 761 b 93 710 90 733 90 717 b 122 686 101 690 110 689 b 175 715 138 683 157 696 b 200 738 183 721 192 729 b 225 757 207 747 218 756 l 229 750 l 226 743 b 225 729 226 735 228 735 l 218 700 b 211 643 210 663 207 654 b 242 617 218 625 232 618 b 274 633 256 615 267 622 b 272 694 285 646 281 661 b 263 756 267 719 265 724 b 274 756 269 761 268 760 b 288 744 275 754 281 750 l 313 724 b 361 692 332 707 344 693 b 393 706 374 690 385 697 b 400 740 404 719 403 733 b 281 788 388 765 297 783 b 307 806 285 794 300 803 l 336 813 b 392 838 372 821 381 826 b 399 872 403 851 401 865 b 369 894 393 885 379 893 b 318 865 356 899 343 888 b 267 822 304 850 276 822 z "},"+":{"ha":899,"x_min":0,"x_max":0,"o":"m 449 822 l 449 456 l 81 456 l 81 358 l 446 358 l 446 0 l 538 0 l 538 358 l 903 358 l 903 457 l 538 457 l 538 822 z "},",":{"ha":257,"x_min":0,"x_max":0,"o":"m 68 -171 b 232 -7 164 -139 200 -87 b 229 103 247 33 250 78 b 125 131 211 126 146 135 b 81 108 103 125 88 117 b 67 67 61 90 61 79 b 79 63 67 67 71 61 b 93 69 85 64 88 68 b 135 46 107 72 114 68 b 158 4 151 29 157 14 b 63 -160 168 -64 135 -99 z "},"-":{"ha":415,"x_min":0,"x_max":0,"o":"m 408 288 b 365 265 381 288 389 275 b 321 264 353 261 331 264 l 253 264 b 201 263 243 264 208 264 b 150 263 199 263 150 263 b 101 218 136 257 121 243 b 76 165 89 204 71 179 b 115 171 92 151 104 164 b 153 175 132 176 140 175 l 235 175 b 415 278 328 175 378 154 z "},".":{"ha":219,"x_min":0,"x_max":0,"o":"m 126 126 b 76 46 90 113 71 76 b 121 -8 81 21 100 1 b 186 -7 147 -21 169 -17 b 219 56 206 6 218 31 b 189 119 221 83 208 106 b 126 126 171 133 149 135 z "},"/":{"ha":551,"x_min":0,"x_max":0,"o":"m 569 950 b 528 969 561 969 531 969 b 463 872 497 965 467 883 l 139 131 b 94 7 133 118 89 17 b 129 -1 99 1 108 -4 b 217 131 171 3 204 103 l 503 785 b 521 836 506 789 521 821 l 533 863 b 554 907 542 875 550 897 z "},":":{"ha":219,"x_min":0,"x_max":0,"o":"m 126 382 b 76 301 90 367 71 332 b 124 246 81 278 97 257 b 186 247 149 235 169 238 b 219 310 207 261 218 288 b 189 374 221 340 207 361 b 126 382 169 389 149 390 z m 138 132 b 75 64 103 125 78 96 b 106 1 72 42 85 17 b 171 -11 126 -14 151 -18 b 218 43 197 -1 213 22 b 200 111 224 69 218 93 b 138 132 181 133 156 136 z "},";":{"ha":257,"x_min":0,"x_max":0,"o":"m 143 376 b 92 297 107 364 88 328 b 138 239 96 271 113 251 b 200 240 160 228 182 229 b 238 303 226 256 236 281 b 210 367 239 332 226 354 b 143 376 190 381 165 385 z m 67 -164 b 93 -168 74 -175 85 -171 b 119 -153 97 -167 103 -162 b 246 38 190 -110 240 -21 b 226 113 250 74 242 99 b 126 131 210 128 158 136 b 86 111 106 125 94 118 b 68 69 67 90 68 90 l 85 64 l 97 71 b 139 49 117 71 119 68 b 161 6 154 35 160 19 b 67 -164 174 -58 128 -107 z "},"<":{"ha":964,"x_min":0,"x_max":0,"o":"m 964 800 l 76 453 l 76 368 l 964 15 l 964 113 l 214 408 l 964 701 z "},"=":{"ha":899,"x_min":0,"x_max":0,"o":"m 76 592 l 76 496 l 899 496 l 899 592 z m 76 315 l 76 225 l 899 225 l 899 315 z "},">":{"ha":967,"x_min":0,"x_max":0,"o":"m 76 799 l 76 703 l 821 407 l 76 115 l 76 21 l 967 368 l 967 446 z "},"?":{"ha":490,"x_min":0,"x_max":0,"o":"m 272 174 b 281 179 278 168 285 171 b 328 451 249 300 251 335 l 378 528 b 482 847 457 649 514 746 b 325 975 456 928 393 957 b 121 925 261 992 176 978 b 76 813 82 888 68 853 b 114 763 82 785 99 768 b 168 775 133 754 151 763 b 194 835 189 793 197 814 b 183 924 189 869 160 888 b 253 951 196 943 224 951 b 340 897 294 950 321 931 b 297 611 396 804 350 726 l 264 539 b 272 174 214 431 142 281 z m 260 124 b 203 69 233 117 211 96 b 218 4 194 43 204 18 b 290 -19 235 -17 263 -26 b 342 31 318 -14 335 7 b 328 100 351 58 343 83 b 260 124 306 125 281 129 z "},"@":{"ha":1279,"x_min":0,"x_max":0,"o":"m 785 225 b 901 103 806 151 839 119 b 1142 178 967 86 1075 115 b 1261 631 1269 301 1288 510 b 949 971 1228 789 1115 914 b 288 853 768 1033 481 1010 b 74 297 99 700 53 451 b 417 -153 100 90 200 -54 b 1185 -50 642 -256 926 -221 l 1149 0 b 657 -140 965 -114 813 -151 b 218 121 507 -131 311 -53 b 229 649 132 282 144 499 b 704 938 350 865 533 929 b 1139 754 832 944 1035 903 b 1176 360 1218 643 1215 457 b 1006 193 1140 271 1086 208 b 913 214 969 186 936 189 b 924 417 881 249 899 324 l 1001 697 l 890 697 l 858 588 b 842 636 857 599 846 629 b 701 719 807 696 754 717 b 439 560 597 724 515 674 b 388 215 378 469 343 311 b 550 99 425 136 486 104 b 785 225 647 89 715 126 z m 500 365 b 689 640 514 429 576 618 b 790 604 721 646 763 636 b 800 410 829 560 810 454 b 629 179 782 353 725 207 b 528 201 597 171 560 174 b 500 365 486 240 493 329 z "},"A":{"ha":1079,"x_min":0,"x_max":0,"o":"m 603 979 b 588 963 597 978 592 969 b 557 960 579 965 565 964 b 536 943 547 956 536 943 b 507 950 522 932 517 954 b 494 925 493 944 494 933 b 510 835 492 913 510 840 b 482 743 510 825 485 750 l 272 169 b 228 89 257 129 264 136 b 157 42 196 46 201 49 b 128 38 143 39 131 38 b 99 36 118 38 108 36 b 71 31 89 35 82 39 b 67 6 61 24 58 13 b 97 -1 81 -6 85 -1 b 128 0 104 -1 122 0 l 413 0 b 449 0 421 0 440 -1 b 469 19 461 3 471 8 b 425 36 467 35 435 38 b 403 38 415 38 411 38 b 360 42 394 40 360 42 b 313 61 349 43 324 44 b 403 332 321 139 351 254 l 497 332 b 542 329 511 332 529 329 l 561 329 b 682 325 574 329 668 336 b 758 46 703 306 758 115 b 690 32 717 38 729 32 l 657 32 b 625 19 640 32 626 29 b 663 -6 625 -8 643 -6 b 713 0 672 -7 694 0 l 796 0 l 826 -4 l 1046 -11 b 1079 -8 1064 -11 1075 -10 b 1110 4 1093 -7 1104 -6 b 1111 17 1110 4 1113 11 b 1101 26 1108 25 1101 26 b 1013 33 1068 26 1035 26 b 890 194 936 57 908 142 l 725 682 b 719 710 721 694 722 700 b 692 782 714 725 693 776 b 646 924 692 782 667 869 b 632 958 642 936 632 958 b 603 979 624 981 617 983 z m 517 694 b 538 740 522 713 526 725 l 661 379 l 468 379 b 417 383 456 379 432 378 z "},"B":{"ha":1000,"x_min":0,"x_max":0,"o":"m 749 558 b 882 672 811 581 858 610 b 883 718 886 683 883 700 b 888 765 883 736 888 765 b 857 854 890 801 872 833 b 506 967 768 974 596 969 l 153 958 b 114 957 139 958 126 957 b 75 946 100 957 82 960 b 107 918 65 926 88 918 b 156 918 114 917 140 918 b 256 911 213 919 239 921 b 286 778 290 890 286 800 l 286 171 b 261 49 286 146 290 67 b 169 38 247 39 199 38 b 122 39 153 38 138 39 b 74 21 104 39 75 38 b 79 4 74 14 72 11 b 128 0 90 -7 121 0 l 300 0 b 338 0 313 0 328 0 l 663 0 b 800 17 718 0 761 3 b 832 33 819 24 824 29 b 865 50 849 43 857 46 b 932 94 899 64 901 60 b 982 357 996 167 1003 286 b 749 558 951 457 833 536 z m 460 889 b 481 924 464 903 457 914 b 689 829 568 908 625 925 b 714 672 717 788 735 715 b 535 571 676 592 588 578 b 454 572 486 565 504 571 b 450 603 454 576 450 596 l 450 778 b 454 825 450 790 454 810 l 454 854 b 460 889 454 875 456 868 z m 442 365 b 453 517 442 414 446 465 l 500 517 b 763 417 614 517 656 556 b 793 207 818 346 819 274 b 642 57 769 150 715 67 b 596 61 640 57 606 63 b 551 51 579 58 565 54 b 507 57 532 46 529 58 b 463 56 483 56 467 53 b 442 199 439 71 442 178 z "},"C":{"ha":960,"x_min":0,"x_max":0,"o":"m 929 646 b 928 688 933 654 931 665 l 908 849 b 878 988 907 863 889 978 b 850 994 865 997 854 996 b 815 964 831 982 828 968 b 778 967 811 963 781 967 l 721 976 b 639 985 711 978 639 985 b 142 757 464 1003 283 992 b 153 186 36 583 46 354 b 625 -31 289 -28 464 -47 b 953 194 728 -19 908 46 b 929 203 950 207 940 211 b 885 156 915 192 899 169 b 821 100 858 126 847 118 b 524 63 735 42 610 25 b 274 376 392 118 294 264 b 335 831 251 497 224 711 b 658 931 431 933 563 946 b 882 704 806 906 814 836 l 901 667 b 915 643 906 658 907 653 b 929 646 919 639 926 640 z "},"D":{"ha":1190,"x_min":0,"x_max":0,"o":"m 58 11 b 89 -3 63 0 81 -4 l 121 0 l 690 0 b 1115 194 861 0 1003 14 b 1122 735 1206 339 1197 599 b 675 957 1014 932 813 957 l 268 957 l 204 961 l 171 961 l 142 961 b 114 949 129 961 117 958 b 114 935 113 943 113 940 b 136 925 117 926 136 925 b 272 900 160 915 244 926 b 299 763 307 865 299 792 l 292 186 b 267 51 292 167 282 68 b 129 38 246 35 150 38 l 108 38 b 58 25 99 38 68 42 b 58 11 58 25 56 17 z m 460 856 b 510 924 464 896 468 915 b 856 838 569 935 764 931 b 988 329 1024 665 1015 486 b 744 51 969 232 867 100 b 479 46 719 42 501 31 b 456 182 457 60 456 164 l 456 765 b 460 856 456 771 454 808 z "},"E":{"ha":979,"x_min":0,"x_max":0,"o":"m 818 744 b 840 850 822 788 826 808 b 857 904 847 874 851 889 b 879 956 860 911 878 951 b 868 981 883 965 878 976 b 824 963 854 986 835 967 l 782 958 b 696 963 751 956 724 963 l 332 963 l 293 964 l 231 964 b 200 964 228 964 200 964 b 174 956 192 964 178 963 b 207 929 163 932 200 932 b 254 914 217 925 244 922 b 283 792 293 885 283 821 l 276 151 b 258 43 276 118 275 58 b 201 31 249 35 233 32 b 151 17 189 29 157 28 b 158 0 147 10 147 3 b 188 0 165 -3 169 0 l 221 0 b 250 0 231 0 242 0 l 829 0 b 833 -12 829 0 832 -8 b 853 -42 839 -25 844 -35 b 869 -47 858 -46 863 -47 b 894 -18 885 -47 892 -26 b 925 61 894 -18 910 29 b 951 113 935 83 942 93 b 975 153 958 128 967 140 l 990 176 b 996 215 994 183 1006 206 b 981 219 990 221 988 221 b 968 210 975 218 972 217 b 944 182 961 201 953 192 b 893 128 917 150 904 138 b 786 74 868 106 818 85 b 460 49 739 57 503 18 b 439 214 424 75 439 186 l 439 283 b 438 338 439 301 438 319 l 438 371 b 440 426 438 394 440 406 l 440 454 b 453 479 440 471 444 471 b 597 479 525 485 581 485 b 675 339 657 461 665 379 b 692 332 675 339 676 326 b 699 360 697 335 699 353 l 699 415 b 700 526 699 439 697 486 b 706 581 701 554 703 563 b 710 610 708 596 710 596 b 700 638 710 625 710 635 b 663 607 678 643 672 629 b 650 585 657 594 657 594 l 635 564 b 472 539 604 522 508 539 b 447 539 472 539 454 535 b 439 571 439 544 440 558 b 439 600 438 581 439 593 l 447 865 b 454 897 447 875 449 885 l 461 904 b 656 901 528 910 631 903 b 774 850 700 897 751 890 b 786 790 779 840 779 826 b 803 739 790 767 794 744 b 818 744 811 733 817 738 z "},"F":{"ha":835,"x_min":0,"x_max":0,"o":"m 854 753 l 856 836 b 829 992 856 861 842 981 b 801 994 822 997 811 999 b 775 968 786 988 789 982 b 744 961 765 963 751 963 b 685 964 739 960 721 964 l 479 964 b 444 964 468 964 456 964 l 250 964 b 128 958 242 964 136 965 l 124 956 l 121 950 b 119 939 119 946 118 943 b 143 924 124 926 138 924 b 253 914 176 911 218 938 b 281 757 288 890 281 782 l 281 178 b 261 54 281 146 282 74 b 194 38 250 43 231 39 b 163 36 174 36 169 38 b 138 25 156 36 143 35 b 135 7 135 19 132 14 b 169 -1 140 -7 158 -1 b 203 0 181 -1 194 0 l 367 0 b 397 0 376 0 388 0 l 549 0 b 590 3 557 0 582 -3 b 599 13 594 6 597 7 b 578 33 601 24 593 33 l 542 33 b 471 43 496 33 479 38 b 440 164 432 65 440 151 l 440 351 b 449 478 440 364 438 467 b 551 478 461 489 536 482 b 599 422 586 467 592 454 b 604 358 604 399 604 361 b 603 294 604 356 601 299 b 626 283 607 279 619 281 b 650 314 635 286 643 293 b 661 458 656 329 643 383 b 657 603 672 501 657 593 l 653 681 b 649 711 651 694 650 701 b 635 738 647 719 643 732 b 604 717 619 747 610 739 b 594 683 601 706 596 696 b 578 549 590 651 608 576 b 507 531 561 533 532 532 b 474 533 499 531 486 531 b 442 546 472 533 450 532 b 444 590 440 564 444 571 l 444 775 b 467 914 444 793 450 903 b 711 911 481 925 697 915 b 829 750 764 897 817 788 b 847 742 829 750 833 739 b 854 753 856 743 854 753 z "},"G":{"ha":1083,"x_min":0,"x_max":0,"o":"m 989 635 l 968 815 b 940 969 963 861 950 960 b 918 975 931 978 928 978 b 892 949 910 969 908 960 b 861 950 883 943 872 947 l 786 971 b 264 893 664 1004 428 1032 b 68 422 94 751 51 583 b 308 42 79 314 160 121 b 874 49 481 -49 700 -44 b 974 131 899 63 971 104 b 965 149 975 138 969 140 b 961 164 963 154 961 161 b 960 199 960 174 960 185 b 964 265 960 206 958 258 b 1103 286 979 292 1086 286 b 1119 310 1114 285 1122 294 b 1097 329 1117 324 1107 329 b 1042 338 1089 333 1065 338 l 1014 338 b 985 339 1006 339 992 339 b 929 340 960 339 931 340 l 696 329 b 664 332 685 329 675 332 b 601 326 664 332 608 328 b 585 303 588 324 582 315 b 629 285 588 286 617 285 b 676 283 646 285 661 283 b 769 271 696 282 742 279 b 810 232 801 261 803 265 b 792 67 814 211 811 85 b 546 29 757 32 596 15 b 283 325 390 69 318 207 b 357 861 246 454 240 733 b 676 944 444 957 590 961 b 903 743 824 917 831 879 l 914 722 b 944 667 926 699 939 678 b 968 629 947 663 958 636 b 989 635 982 618 989 629 z "},"H":{"ha":1311,"x_min":0,"x_max":0,"o":"m 463 515 b 443 542 447 522 443 532 l 444 574 l 444 778 b 461 914 444 793 444 900 b 558 924 472 924 550 921 b 586 939 572 926 582 925 b 582 961 588 950 586 958 b 456 968 569 969 513 968 l 186 968 b 140 956 181 968 151 971 b 140 939 136 950 138 943 b 167 929 147 928 160 929 b 199 926 172 928 178 928 b 261 924 208 926 254 928 b 274 869 272 915 274 900 b 275 817 274 853 275 835 l 275 168 b 250 51 275 125 275 76 b 113 35 221 24 143 36 b 93 18 104 35 96 33 b 107 0 92 10 100 0 b 525 0 110 0 525 0 b 571 1 533 0 553 -3 b 586 19 578 3 586 8 b 578 36 586 28 582 32 b 521 43 569 46 551 43 b 469 46 511 43 476 42 b 442 182 436 68 442 161 l 442 325 b 450 447 442 335 443 439 b 576 454 461 460 568 454 l 875 454 b 904 453 892 454 890 456 b 933 439 918 453 924 451 l 933 214 b 908 56 933 185 942 82 b 800 39 890 40 801 40 b 776 24 790 36 783 36 b 781 6 774 18 775 10 b 831 0 788 0 785 0 l 928 0 l 958 0 l 1224 0 b 1257 1 1226 0 1257 1 b 1269 31 1282 3 1279 28 b 1124 49 1194 47 1157 31 b 1097 174 1085 71 1097 146 l 1097 785 b 1117 906 1097 818 1094 883 b 1247 925 1139 929 1225 921 b 1290 933 1247 925 1281 919 b 1289 960 1296 942 1294 953 b 1239 969 1279 971 1246 969 l 915 969 b 779 963 889 969 792 975 b 771 938 771 954 768 946 b 797 921 775 925 782 925 b 910 913 825 914 881 933 b 932 761 942 892 932 783 l 932 514 l 482 514 b 463 515 478 515 468 515 z "},"I":{"ha":647,"x_min":0,"x_max":0,"o":"m 640 950 b 597 958 628 961 606 958 l 528 961 b 489 963 521 961 496 963 l 157 963 b 118 961 154 963 121 961 b 118 925 96 960 97 926 b 239 911 146 924 218 925 b 278 792 274 886 278 814 b 278 664 278 792 272 688 b 276 601 282 647 276 611 l 276 188 b 240 50 275 172 275 75 b 88 29 207 25 143 49 b 78 14 82 26 76 19 b 96 1 81 3 86 3 b 131 0 107 0 121 0 l 596 0 b 647 11 608 0 640 -6 b 646 31 650 17 650 26 b 604 38 636 40 610 38 b 564 38 590 38 575 38 b 483 49 522 38 497 40 b 442 175 439 74 442 146 b 444 703 442 175 443 642 b 442 807 446 744 442 807 b 467 904 440 846 447 886 b 553 919 488 924 522 919 b 596 919 558 919 589 921 b 640 925 610 918 632 918 b 640 950 646 931 646 946 z "},"J":{"ha":800,"x_min":0,"x_max":0,"o":"m 767 958 b 740 968 761 967 750 968 b 714 968 732 968 719 968 l 333 958 l 294 958 b 253 946 282 958 260 958 b 258 925 249 939 251 926 b 413 906 318 913 375 931 b 451 760 463 871 451 807 l 451 279 b 386 71 451 263 456 128 b 301 26 363 53 328 36 b 263 17 282 19 267 17 b 222 25 246 17 232 8 b 219 125 222 82 229 96 b 167 178 210 156 189 172 b 100 163 143 185 119 179 b 68 74 75 139 64 101 b 138 -18 74 33 101 0 b 406 32 207 -53 347 0 b 607 407 582 131 603 260 l 619 788 b 642 894 621 828 615 867 b 704 925 661 915 685 922 l 736 929 b 768 942 749 931 761 929 b 767 958 771 947 769 954 z "},"K":{"ha":1176,"x_min":0,"x_max":0,"o":"m 444 535 l 444 760 b 453 906 444 778 435 888 b 558 919 474 925 542 915 b 585 936 574 919 582 925 b 575 958 588 946 582 953 b 478 961 567 967 488 961 b 382 975 428 960 442 965 l 361 975 b 258 967 356 975 292 967 l 218 967 l 172 964 l 147 964 b 99 951 128 964 100 965 b 107 932 97 944 96 933 b 243 911 192 921 203 935 b 276 775 288 883 276 789 l 268 206 b 239 54 268 174 272 83 b 107 36 211 28 133 43 b 79 29 107 36 85 39 b 81 6 74 18 76 10 b 122 0 92 -6 111 0 l 550 0 b 578 0 556 0 572 0 b 603 8 583 0 594 -3 b 601 26 606 13 607 19 b 565 33 592 38 575 33 b 531 36 550 33 538 33 b 458 54 488 39 471 43 b 433 186 422 83 433 178 l 433 328 b 438 433 433 331 438 433 b 506 529 439 479 460 492 b 601 397 563 457 575 442 l 772 113 b 968 0 865 -43 815 0 l 1136 0 b 1186 8 1150 0 1185 -3 b 1157 31 1189 25 1172 28 b 1122 39 1136 35 1143 35 b 1050 56 1085 47 1088 44 b 931 164 978 75 969 101 l 711 518 b 660 604 681 568 664 597 b 660 688 643 639 638 654 b 832 875 696 743 782 826 b 1024 925 886 925 978 925 l 1069 925 b 1110 929 1082 925 1099 924 b 1124 961 1131 936 1138 949 b 1082 967 1114 972 1088 967 l 1057 967 b 953 963 1003 967 993 963 l 933 963 b 853 974 879 968 904 976 b 814 968 840 974 833 968 l 774 964 l 749 964 b 696 964 747 964 696 964 b 672 954 688 963 678 961 b 669 932 669 947 668 940 b 707 919 674 917 694 919 l 746 919 b 767 918 753 919 758 922 b 774 907 774 915 774 907 b 760 885 769 894 769 894 l 719 836 l 640 747 l 560 683 b 507 608 532 656 526 635 b 444 535 494 590 481 575 z "},"L":{"ha":926,"x_min":0,"x_max":0,"o":"m 647 954 b 592 968 639 967 606 968 l 208 968 b 167 967 201 968 175 967 b 153 936 139 967 139 939 b 265 913 176 932 243 929 b 288 850 286 896 288 878 l 288 818 b 285 642 288 811 285 661 b 288 490 285 642 282 606 b 288 193 293 374 288 193 b 261 54 288 189 285 72 b 89 38 236 33 178 56 b 101 0 72 32 67 3 b 143 0 106 0 139 0 l 167 0 l 190 0 l 799 0 l 833 -1 b 865 -14 844 -1 860 -4 b 871 -46 868 -22 865 -36 b 896 -51 878 -56 889 -54 b 944 75 921 -43 940 60 l 971 186 b 975 225 972 193 974 203 b 964 236 975 225 974 233 b 950 232 951 240 950 232 b 890 133 935 207 907 157 b 707 46 828 47 789 46 l 613 46 b 467 64 593 46 483 46 b 453 203 449 83 453 185 b 456 472 453 203 464 368 b 460 790 446 597 460 790 b 481 911 460 815 456 890 b 618 926 515 939 586 925 b 647 954 653 928 653 946 z "},"M":{"ha":1431,"x_min":0,"x_max":0,"o":"m 778 300 l 524 849 b 278 963 442 1025 469 963 b 142 963 278 963 149 965 b 133 944 135 960 129 953 b 181 933 139 932 169 933 b 222 926 197 933 210 929 b 303 889 258 918 281 907 b 347 707 378 828 358 779 l 279 239 b 229 83 271 181 261 124 b 153 36 206 54 183 42 l 114 29 b 78 17 100 26 85 26 b 74 6 75 13 72 10 b 85 0 75 -4 85 0 l 456 0 b 514 1 465 0 507 1 b 507 36 533 3 526 36 b 463 43 493 40 478 38 b 374 64 411 49 392 50 b 349 239 326 104 347 222 l 403 703 b 410 736 406 724 406 717 b 428 706 415 729 425 710 l 700 88 b 731 38 703 76 719 44 l 738 38 b 760 76 749 46 756 64 l 975 678 b 989 643 975 676 988 647 l 1099 186 b 1111 51 1104 161 1132 74 b 1028 36 1099 38 1053 38 b 985 33 1014 36 999 33 b 946 21 983 33 947 32 b 969 -1 944 8 944 3 b 1013 0 981 -3 1004 0 b 1443 0 1013 0 1356 0 b 1453 21 1457 0 1458 11 b 1422 29 1447 31 1440 29 b 1392 31 1411 29 1399 31 b 1331 43 1364 33 1343 38 b 1254 193 1272 69 1261 160 l 1122 768 b 1118 889 1113 813 1114 836 l 1175 911 b 1224 926 1176 911 1215 925 l 1258 933 b 1296 958 1279 938 1300 943 b 1246 968 1292 972 1274 969 l 1221 967 b 1115 961 1158 963 1164 961 b 1010 968 1049 961 1013 969 b 951 832 978 951 958 853 z "},"N":{"ha":1286,"x_min":0,"x_max":0,"o":"m 1004 276 b 960 314 993 276 965 307 l 486 853 b 257 964 364 992 417 964 l 58 964 b 44 946 58 964 44 965 b 58 926 44 924 58 926 b 192 900 125 924 142 932 b 340 757 240 869 299 813 b 374 603 383 700 374 657 l 374 397 b 372 339 374 392 372 343 l 364 183 b 329 67 363 147 365 99 b 238 42 304 46 269 42 b 149 33 182 40 161 40 b 140 19 144 32 140 28 b 149 7 140 11 144 10 b 193 0 158 0 175 0 l 215 0 b 268 0 233 0 250 0 l 544 0 b 576 1 563 0 564 0 b 603 17 593 3 600 4 b 582 42 606 31 597 38 b 544 46 571 44 554 46 b 474 61 511 49 490 49 b 429 231 419 93 428 190 l 438 647 l 840 215 b 856 200 843 213 851 206 b 865 183 860 194 864 186 b 894 151 871 176 879 168 l 1006 25 l 1036 -4 b 1061 -18 1050 -17 1051 -18 b 1076 114 1071 -17 1076 -4 l 1076 781 b 1104 907 1076 813 1081 883 b 1235 925 1125 928 1214 919 b 1264 933 1235 925 1260 925 b 1265 954 1268 940 1271 944 b 1222 968 1257 969 1239 968 l 881 968 l 851 968 b 822 954 838 968 826 967 b 826 935 819 946 822 940 b 863 925 832 925 853 925 b 901 924 864 925 882 925 b 972 911 946 919 965 915 b 1011 757 1021 883 1011 790 l 1011 372 b 1008 339 1011 365 1008 344 b 1004 307 1008 328 1004 328 z "},"O":{"ha":1161,"x_min":0,"x_max":0,"o":"m 514 988 b 338 929 457 981 378 950 b 69 524 178 844 85 681 b 236 101 54 378 88 222 b 764 -1 404 -35 592 -56 b 1136 353 935 53 1083 165 b 1033 807 1172 479 1136 689 b 514 988 888 976 646 1004 z m 368 840 b 504 933 408 889 454 919 b 796 867 588 956 710 936 b 958 429 932 757 964 539 b 772 69 951 310 913 157 b 510 38 697 22 586 7 b 275 329 367 93 306 211 b 368 840 243 458 249 700 z "},"P":{"ha":944,"x_min":0,"x_max":0,"o":"m 614 25 b 582 39 608 36 597 39 b 547 42 574 40 567 40 b 475 54 513 43 486 46 b 440 169 436 76 440 142 l 440 282 b 453 421 440 299 431 404 b 707 426 475 438 628 406 b 931 565 817 454 882 451 b 894 825 968 651 947 744 b 547 963 801 965 656 963 l 224 963 b 183 961 211 963 194 961 l 163 961 b 124 957 150 960 133 960 b 94 936 107 957 94 951 b 129 921 94 922 117 917 b 165 921 133 921 150 922 b 243 914 215 921 238 918 b 285 754 290 890 285 782 l 285 207 b 243 54 285 176 282 83 b 160 38 226 40 197 39 b 121 36 147 38 132 36 b 85 25 111 32 92 35 b 82 8 81 19 81 14 b 94 0 83 3 89 1 b 126 0 107 -3 117 0 l 490 0 b 538 0 499 0 532 0 l 568 0 b 611 6 582 0 601 -4 b 614 25 617 11 617 19 z m 453 857 b 461 918 454 890 456 886 b 725 829 567 925 624 947 b 774 631 779 765 790 701 b 657 486 764 585 719 514 b 447 474 613 467 507 467 b 442 572 444 504 442 565 z "},"Q":{"ha":1161,"x_min":0,"x_max":0,"o":"m 711 -32 b 1044 176 821 0 943 63 b 1133 633 1153 297 1172 507 b 774 969 1081 807 926 931 b 232 836 617 1010 396 993 b 72 367 72 682 38 529 b 435 -4 114 176 235 76 l 469 -18 b 696 -206 583 -64 588 -85 l 721 -233 b 936 -332 811 -335 847 -335 b 1154 -279 963 -331 1088 -311 b 1158 -274 1154 -279 1158 -278 b 1154 -269 1158 -271 1154 -269 b 1061 -282 1125 -274 1090 -281 b 846 -150 951 -289 947 -265 l 815 -115 b 711 -32 774 -68 757 -56 z m 465 907 b 538 933 479 914 511 926 b 799 854 621 954 715 935 b 953 353 953 708 985 513 b 701 32 921 199 874 99 b 425 74 614 -1 517 6 b 260 551 265 193 250 426 b 465 907 267 644 321 831 z "},"R":{"ha":1126,"x_min":0,"x_max":0,"o":"m 674 518 b 856 650 767 528 814 556 b 835 863 876 697 864 822 b 465 963 754 974 554 963 l 393 963 b 306 967 353 963 310 965 l 263 967 b 221 967 249 967 232 967 l 143 967 b 101 957 131 967 111 968 b 114 928 90 944 99 929 b 153 925 128 926 140 925 b 232 917 197 926 224 921 b 271 767 283 888 271 801 l 271 208 b 206 44 271 156 274 74 b 142 36 188 38 172 38 b 108 33 131 35 121 38 b 93 7 92 28 88 19 b 138 0 99 -4 125 0 l 158 0 b 196 0 169 0 186 0 l 558 0 b 610 11 561 0 600 -3 b 611 35 614 17 615 28 b 572 49 604 47 588 49 b 533 50 564 50 546 50 b 454 57 483 50 469 47 b 431 200 422 76 431 174 l 431 457 l 433 506 b 529 510 471 514 492 522 b 651 342 599 488 636 392 l 665 294 b 935 -6 711 138 781 24 b 1186 113 1011 -19 1122 21 b 1186 121 1186 113 1188 117 b 1178 121 1185 125 1178 121 b 1021 86 1118 93 1082 71 b 860 276 924 110 897 185 l 842 321 b 674 518 810 401 757 474 z m 431 831 b 444 925 431 839 432 865 b 661 850 526 931 588 944 b 696 681 703 794 715 738 b 579 572 679 629 635 588 b 440 564 539 561 488 563 b 431 646 431 617 431 592 z "},"S":{"ha":803,"x_min":0,"x_max":0,"o":"m 761 982 b 724 968 747 986 732 972 b 688 974 715 965 706 968 b 365 932 550 1018 467 1010 b 246 667 265 857 240 733 b 432 436 256 558 299 503 l 471 417 b 640 222 568 368 642 322 b 533 63 640 154 603 96 b 260 69 465 31 326 17 b 168 329 160 147 189 251 b 156 336 167 335 163 340 b 138 297 144 331 144 317 b 128 250 138 282 132 263 l 74 75 b 60 18 63 40 53 31 b 74 11 63 13 68 11 b 96 24 82 11 89 17 b 118 38 101 28 114 35 b 164 33 131 43 142 42 b 661 46 333 -26 494 -57 b 796 283 761 108 797 203 b 581 564 794 421 722 483 l 517 600 b 365 765 433 647 372 692 b 442 906 361 814 390 865 b 604 936 493 946 556 953 b 744 710 703 904 719 782 l 753 686 b 772 656 757 674 758 651 b 781 707 786 660 781 697 l 781 856 l 781 888 l 778 919 l 774 951 b 761 982 772 961 774 978 z "},"T":{"ha":950,"x_min":0,"x_max":0,"o":"m 160 956 b 139 993 153 960 143 988 b 100 1001 125 1010 111 1008 b 60 847 74 985 61 861 l 53 799 b 47 753 53 799 49 764 b 61 747 46 742 54 740 b 186 897 88 786 126 867 b 396 906 206 907 376 917 b 414 782 419 892 414 799 l 414 207 b 381 57 414 178 413 86 b 250 42 353 32 292 54 b 224 33 250 42 229 40 b 218 14 219 28 218 22 b 229 1 218 8 225 3 b 282 0 240 -3 267 0 l 629 0 b 756 4 650 0 750 1 b 765 25 763 8 767 15 b 740 42 763 42 749 42 b 621 50 711 50 639 38 b 581 232 572 83 581 217 l 581 822 l 585 868 b 594 911 585 879 586 906 b 831 894 663 919 776 917 b 953 731 911 863 924 782 b 965 735 956 724 965 725 b 968 781 967 740 968 778 l 968 861 b 967 990 968 871 972 982 b 943 1000 961 999 954 1001 b 907 974 928 1000 919 983 b 868 967 892 965 881 967 b 794 967 836 965 835 968 z "},"U":{"ha":1214,"x_min":0,"x_max":0,"o":"m 614 921 b 617 957 626 921 639 947 b 585 963 610 960 590 963 l 547 963 b 514 963 536 963 524 963 b 375 969 439 963 396 969 l 206 969 b 75 963 193 969 85 972 b 68 939 68 956 65 946 b 92 924 71 929 81 926 b 250 907 113 918 222 928 b 279 756 290 878 279 779 l 269 401 b 456 6 265 271 319 83 b 836 19 564 -57 740 -37 b 1014 392 999 115 1014 239 l 1014 774 b 1038 892 1014 815 1007 861 b 1194 925 1071 926 1192 925 b 1236 932 1194 925 1231 921 b 1226 960 1242 942 1239 958 l 1189 963 l 1119 963 b 1047 971 1089 963 1090 964 b 975 971 1018 976 993 971 l 933 971 b 890 967 918 967 897 968 b 847 964 876 967 861 964 b 764 961 839 964 769 964 b 750 938 753 956 749 944 b 774 918 753 924 761 918 l 807 918 b 836 918 810 918 836 918 b 897 904 867 918 882 914 b 956 717 958 863 956 751 l 956 421 b 800 89 956 289 953 174 b 557 92 731 51 618 56 b 444 403 436 163 444 321 l 444 797 b 465 907 444 831 444 889 b 614 921 483 924 599 919 z "},"V":{"ha":1285,"x_min":0,"x_max":0,"o":"m 638 931 b 625 956 640 942 639 950 b 588 957 621 958 590 957 b 490 957 588 957 532 960 b 461 961 481 956 468 961 l 110 964 b 75 960 100 964 85 967 b 65 946 71 957 65 953 b 75 929 65 933 75 929 b 189 917 146 914 117 925 b 347 740 269 907 325 790 l 643 74 b 703 -43 649 61 689 -42 b 765 74 725 -43 761 63 l 1078 779 b 1307 936 1149 940 1193 908 b 1314 958 1317 940 1322 950 b 1271 965 1306 967 1283 965 b 1217 963 1271 965 1238 963 b 1189 964 1206 963 1196 964 l 960 964 b 894 957 946 964 901 967 b 908 919 885 943 883 925 b 956 918 922 917 942 919 b 1022 892 990 917 1010 911 b 976 703 1043 858 990 735 l 793 297 b 774 263 788 290 776 269 l 753 231 l 515 760 b 481 899 506 781 465 876 b 611 917 499 922 594 908 b 638 931 611 917 635 919 z "},"W":{"ha":1407,"x_min":0,"x_max":0,"o":"m 968 -46 b 986 -14 976 -46 979 -31 l 1294 769 b 1394 917 1314 818 1340 907 b 1438 933 1415 921 1432 921 b 1433 957 1443 947 1440 953 b 1308 963 1425 963 1311 963 l 1151 963 b 1115 961 1139 963 1124 961 b 1075 950 1103 961 1085 963 b 1075 929 1069 943 1071 936 b 1113 917 1083 917 1093 917 l 1146 917 b 1215 894 1188 917 1203 910 b 1172 638 1246 860 1186 674 l 1025 257 b 1011 304 1021 261 1015 292 l 975 407 b 968 426 974 413 968 424 l 869 763 b 850 797 868 768 861 796 b 822 778 838 799 833 793 b 807 743 813 764 811 754 l 636 315 b 621 267 633 307 626 274 b 596 358 608 315 611 318 l 465 713 b 429 886 463 724 408 854 b 482 911 443 908 465 908 b 536 928 499 914 529 910 b 528 946 539 935 535 943 b 482 950 511 953 493 950 l 214 958 b 126 957 186 960 175 960 l 83 954 b 67 924 64 953 60 938 b 111 914 74 910 100 914 b 157 908 138 913 154 910 b 271 765 232 890 246 835 l 533 21 b 560 -43 540 3 549 -25 b 572 -51 563 -47 567 -53 b 588 -21 582 -50 586 -33 l 625 101 b 642 151 626 106 632 126 l 772 490 l 775 496 l 778 501 l 782 506 l 950 -21 b 968 -46 954 -32 960 -46 z "},"X":{"ha":1176,"x_min":0,"x_max":0,"o":"m 568 926 b 563 958 583 932 582 953 b 531 964 558 960 533 964 b 464 964 496 967 493 964 l 433 964 b 342 964 374 964 400 964 l 267 964 b 225 963 254 964 239 963 b 185 961 211 963 196 961 b 100 958 172 961 108 967 b 93 938 90 951 90 943 b 131 918 99 924 108 922 b 358 765 286 892 254 931 l 492 553 b 476 315 581 411 574 454 l 378 175 b 100 44 278 33 279 56 b 94 7 86 43 76 17 b 138 0 101 3 135 0 b 213 0 149 -1 200 0 l 458 0 b 513 11 482 0 501 -4 b 508 42 518 18 519 29 b 476 49 503 47 482 47 b 458 50 469 50 467 50 b 443 51 453 50 446 51 b 413 64 435 51 421 51 b 426 103 413 79 422 97 l 514 254 b 601 378 531 283 550 311 l 707 207 b 771 64 719 188 785 83 b 714 50 761 53 746 51 b 685 50 703 50 694 50 b 663 33 671 46 669 46 b 663 18 663 33 661 24 b 688 4 665 7 681 4 b 715 0 690 3 696 0 l 1110 0 b 1143 0 1113 0 1143 0 b 1175 13 1163 3 1171 -1 b 1154 43 1181 29 1174 40 b 1117 46 1143 44 1125 46 b 1042 51 1085 47 1060 49 b 929 158 972 65 968 96 l 779 397 b 785 640 685 549 679 485 l 864 757 b 1163 936 981 929 1003 919 b 1168 951 1169 938 1169 946 b 1122 964 1163 967 1133 964 l 1043 963 b 1013 964 1026 963 1024 964 b 992 961 1004 964 992 961 l 885 961 b 764 950 874 960 779 963 b 764 924 757 944 757 929 b 810 917 774 917 806 917 b 858 900 838 915 861 911 b 801 781 843 846 819 808 l 669 579 l 647 608 l 519 832 b 492 908 493 878 488 890 b 503 918 493 915 499 917 b 568 926 519 922 535 919 z "},"Y":{"ha":1071,"x_min":0,"x_max":0,"o":"m 546 924 b 551 954 557 929 560 947 b 521 961 542 963 524 960 l 460 963 l 414 963 b 372 964 407 963 379 967 l 204 964 b 67 957 190 965 79 969 b 63 933 60 950 58 942 b 113 919 67 925 82 922 b 296 779 243 911 224 908 l 443 517 b 503 267 518 382 503 401 l 503 176 b 481 50 503 158 501 64 b 350 40 463 38 365 43 b 326 11 325 36 322 25 b 358 0 331 -3 351 0 l 729 0 b 767 -3 732 0 767 -3 b 804 0 776 -4 799 -3 b 803 35 817 4 819 28 b 771 39 796 39 781 38 b 706 44 744 42 732 42 b 676 76 681 47 681 53 b 671 417 658 174 661 356 b 839 757 688 513 772 664 l 892 831 b 1099 936 951 914 986 914 b 1106 954 1106 938 1108 944 b 1051 967 1101 968 1067 967 l 740 967 b 701 964 731 967 710 967 b 692 932 686 960 686 940 b 715 925 696 924 715 925 l 799 918 b 821 914 801 918 813 918 b 828 908 822 914 828 910 b 715 649 829 878 736 682 l 628 514 b 601 553 618 526 611 539 l 488 757 b 431 907 476 776 417 888 b 488 919 438 919 457 919 b 546 924 514 919 538 919 z "},"Z":{"ha":1090,"x_min":0,"x_max":0,"o":"m 429 1001 b 388 993 415 1010 399 1001 b 356 949 379 986 368 969 b 311 860 349 938 333 903 l 260 761 b 253 731 253 747 249 742 b 261 724 254 726 258 725 b 290 740 271 721 282 728 b 315 767 300 750 307 758 b 374 822 344 797 368 817 b 492 882 403 844 463 868 b 728 908 557 914 692 908 l 768 908 b 796 907 775 908 789 910 l 826 907 l 85 14 b 85 4 85 14 81 11 b 128 0 89 -4 121 0 l 783 0 b 833 -4 799 0 831 4 b 843 -46 842 -31 833 -33 b 882 -44 850 -54 869 -54 b 900 -6 894 -33 894 -17 l 907 14 b 919 43 910 22 917 35 l 931 71 l 996 263 b 989 272 996 263 996 271 b 950 231 968 276 958 242 b 908 181 931 201 914 186 b 447 63 792 53 539 63 l 349 63 l 442 186 b 503 265 460 210 483 243 l 579 347 b 606 376 588 357 594 365 b 617 389 610 379 615 388 b 629 403 617 389 622 394 l 943 774 b 988 824 946 779 981 817 l 1003 842 b 1100 944 1028 872 1097 931 b 1092 967 1103 957 1097 961 b 956 974 1081 976 964 974 l 532 963 b 474 967 507 963 481 965 b 443 974 464 968 447 965 b 429 1001 443 974 439 996 z "},"[":{"ha":426,"x_min":0,"x_max":0,"o":"m 96 971 b 79 944 81 965 79 961 b 75 908 79 933 75 921 l 75 -218 b 76 -247 75 -228 76 -240 b 89 -276 76 -258 75 -271 b 111 -278 96 -279 111 -278 l 278 -278 b 397 -275 285 -278 393 -279 b 404 -251 404 -267 408 -262 b 372 -233 401 -243 392 -237 b 207 -235 333 -226 229 -249 b 188 -79 181 -218 188 -100 l 188 792 b 189 825 188 803 189 821 b 190 857 192 833 190 850 b 206 919 192 899 192 908 b 397 925 236 943 365 918 b 426 944 407 928 422 932 b 417 968 429 951 425 963 b 333 971 406 975 383 972 b 290 974 311 969 313 972 b 250 975 275 974 269 975 l 213 975 b 189 975 204 975 194 975 l 139 975 b 96 971 131 975 121 974 z "},"\\":{"ha":564,"x_min":0,"x_max":0,"o":"m 71 1008 l 472 -29 l 556 -29 l 156 1008 z "},"]":{"ha":426,"x_min":0,"x_max":0,"o":"m 79 -258 b 113 -282 81 -274 85 -282 l 165 -282 l 271 -282 b 410 -272 290 -282 397 -285 b 422 -151 419 -264 422 -161 l 422 860 b 414 969 422 894 425 958 b 285 974 404 979 294 974 l 244 974 b 206 975 231 974 218 975 l 147 975 b 97 960 132 975 100 976 b 131 931 94 942 104 931 b 183 933 156 928 158 932 b 289 932 190 935 285 935 b 314 856 314 919 314 883 b 314 815 314 851 314 815 b 315 774 314 801 315 785 l 307 38 l 313 -12 l 313 -100 b 308 -133 307 -111 308 -115 b 307 -165 308 -144 307 -156 b 289 -228 306 -201 307 -217 b 181 -235 279 -235 200 -235 l 151 -235 b 125 -233 143 -235 132 -233 b 79 -258 96 -233 78 -239 z "},"^":{"ha":378,"x_min":0,"x_max":0,"o":"m 372 522 b 374 529 374 524 374 529 l 372 535 l 367 542 l 363 547 l 350 567 b 288 654 314 622 319 601 b 228 731 263 696 249 728 b 122 613 199 733 135 629 l 88 568 b 78 529 75 553 60 538 b 110 540 88 525 104 535 b 136 568 114 544 129 560 b 185 628 154 589 165 604 l 203 646 b 242 604 225 622 215 635 l 281 558 b 325 528 300 536 313 522 b 349 524 333 531 346 524 b 354 522 349 524 351 522 b 363 525 357 522 360 525 b 372 522 367 525 368 519 z "},"_":{"ha":792,"x_min":0,"x_max":0,"o":"m 79 68 b 79 0 78 25 78 17 l 790 0 l 790 68 z "},"`":{"ha":275,"x_min":0,"x_max":0,"o":"m 76 718 b 75 688 67 711 64 699 b 99 658 85 676 93 667 b 154 597 121 632 142 610 b 211 546 171 581 196 558 b 242 524 222 536 235 528 b 271 526 263 513 275 518 b 218 610 265 536 222 603 b 196 653 204 635 207 626 b 179 693 192 667 183 682 b 160 715 174 706 168 715 b 143 717 150 717 151 717 b 131 718 138 717 138 718 l 103 718 l 89 718 z "},"a":{"ha":522,"x_min":0,"x_max":0,"o":"m 493 26 b 440 64 492 31 444 -4 l 436 143 l 436 175 b 404 353 436 210 446 311 b 239 390 360 396 290 401 b 106 301 196 381 122 340 b 110 263 99 283 104 269 b 151 247 119 247 139 243 b 194 288 174 256 186 267 b 235 358 203 310 196 342 b 307 353 261 369 290 365 b 338 214 347 324 339 239 l 311 207 b 81 64 258 193 93 144 b 117 -6 76 32 93 8 b 331 49 179 -42 256 -7 b 381 -8 353 11 364 -1 b 439 -8 396 -17 419 -15 b 468 4 450 -6 461 0 b 493 26 475 8 494 21 z m 214 132 b 336 176 240 156 281 165 b 289 49 336 129 346 86 b 219 29 263 31 239 21 b 190 69 207 35 194 47 b 214 132 188 90 193 113 z "},"b":{"ha":625,"x_min":0,"x_max":0,"o":"m 271 996 b 178 957 222 983 181 958 b 133 933 167 950 144 939 b 103 899 108 918 90 910 b 133 901 111 890 122 897 b 163 911 139 904 160 911 b 171 875 172 897 164 896 l 171 119 b 168 82 171 100 172 99 b 158 63 163 74 158 67 b 160 44 158 54 157 54 b 510 14 260 -18 410 -40 b 619 210 597 61 618 142 b 536 371 621 279 607 328 b 278 361 463 414 365 413 l 278 942 b 279 988 278 957 279 975 b 271 996 279 994 271 996 z m 276 215 b 322 351 275 249 271 322 b 414 354 347 365 379 371 b 503 201 474 325 494 260 b 463 49 508 169 504 86 b 353 18 431 18 390 8 b 278 75 321 25 290 43 b 276 215 269 99 278 150 z "},"c":{"ha":469,"x_min":0,"x_max":0,"o":"m 453 88 b 322 46 400 54 386 42 b 206 131 261 50 240 71 b 199 317 181 174 181 281 b 278 374 217 353 250 371 b 358 335 310 378 332 369 b 425 282 392 293 399 281 b 461 303 444 283 456 293 b 460 344 469 317 468 331 b 314 404 433 389 350 403 b 119 321 244 408 172 392 b 81 124 76 263 65 167 b 210 -1 99 71 146 14 b 460 71 293 -22 378 -6 b 464 85 460 71 467 78 b 453 88 461 92 453 88 z "},"d":{"ha":619,"x_min":0,"x_max":0,"o":"m 528 994 b 483 988 518 1007 497 994 l 436 963 b 390 936 429 957 399 939 b 347 900 382 929 349 911 b 371 894 346 888 357 889 b 400 907 382 903 388 903 b 414 872 413 904 414 892 b 414 836 414 860 414 849 l 414 446 b 403 396 414 408 414 393 b 332 408 376 401 358 406 b 118 335 282 414 160 389 b 83 126 76 282 67 175 b 203 7 101 76 139 21 b 403 61 296 -12 319 -24 b 440 -4 407 26 411 4 b 588 94 485 -15 575 78 b 590 108 588 94 594 101 b 581 110 588 114 585 111 b 535 86 567 103 554 94 b 525 85 532 85 529 82 b 522 131 519 88 522 125 l 522 924 l 525 958 b 528 994 526 974 536 985 z m 194 175 b 279 374 188 222 206 343 b 367 367 304 383 339 386 b 408 171 421 328 408 214 b 350 54 408 117 401 88 b 278 50 329 40 304 38 b 194 175 228 74 201 126 z "},"e":{"ha":478,"x_min":0,"x_max":0,"o":"m 472 235 b 471 282 483 236 475 271 b 447 328 463 303 454 318 b 276 403 399 397 335 406 b 101 300 197 400 150 381 b 94 96 65 240 72 144 b 263 -8 129 22 213 -1 b 375 -1 296 -12 351 -7 b 432 18 396 3 415 10 b 460 33 438 21 453 28 b 478 65 475 44 481 57 b 465 68 475 72 465 68 b 263 56 374 19 328 21 b 183 232 185 97 186 172 l 208 233 l 294 233 b 314 233 297 233 313 233 l 376 233 b 472 235 414 233 424 228 z m 219 264 l 189 264 b 233 365 192 308 192 342 b 313 365 254 376 286 378 b 357 308 333 356 353 336 b 351 272 360 296 365 285 b 219 264 331 256 239 264 z "},"f":{"ha":378,"x_min":0,"x_max":0,"o":"m 299 579 b 286 603 286 592 286 600 l 286 635 b 283 656 286 642 283 649 l 276 719 b 281 926 274 746 250 889 b 318 949 294 944 308 950 b 371 899 350 943 349 908 b 407 908 382 894 393 897 b 433 949 431 929 435 943 b 394 988 432 960 419 975 b 294 982 363 1004 325 999 b 186 718 200 929 186 740 l 186 629 b 101 533 186 540 185 560 b 93 517 101 533 92 529 b 107 504 94 506 101 506 b 142 508 117 503 133 508 b 178 514 163 515 164 511 l 178 136 b 163 39 178 129 176 88 b 82 31 163 39 113 39 b 72 14 72 28 71 22 b 115 0 75 -3 104 0 l 351 0 b 389 6 363 0 379 -4 b 390 25 392 8 393 19 b 350 38 383 36 358 38 b 311 42 342 38 319 36 b 288 183 286 57 288 168 l 288 526 b 318 535 290 528 318 535 l 404 554 b 415 583 404 554 422 558 b 388 596 411 596 396 597 b 357 588 385 596 357 589 b 299 579 324 582 329 583 z "},"g":{"ha":564,"x_min":0,"x_max":0,"o":"m 486 347 b 524 379 507 356 506 361 b 528 417 535 397 532 410 b 486 442 521 429 503 439 b 404 385 458 447 429 413 b 175 382 342 399 226 414 b 101 263 131 354 104 301 b 168 140 99 204 115 182 b 135 44 156 113 129 75 b 292 -74 143 -7 254 -61 l 328 -86 b 489 -185 361 -97 475 -133 b 463 -262 496 -211 486 -237 b 276 -300 418 -308 319 -307 b 106 -194 247 -294 125 -242 b 142 -87 88 -153 114 -125 b 132 -83 144 -85 142 -78 b 89 -121 115 -92 94 -114 b 61 -169 76 -137 68 -149 b 76 -297 44 -218 44 -257 b 338 -399 156 -393 254 -408 b 446 -342 381 -394 413 -383 b 468 -314 450 -336 458 -331 l 486 -285 b 535 -231 508 -249 514 -261 b 543 -89 568 -181 565 -136 b 317 32 490 24 419 17 l 289 36 b 196 69 253 42 213 47 b 188 99 193 74 188 82 b 196 126 188 107 190 119 b 314 101 250 108 288 101 b 453 190 379 103 422 126 b 433 365 481 246 483 304 b 454 382 438 379 449 382 b 474 365 463 379 469 365 z m 201 265 b 278 369 206 304 226 361 b 344 340 297 372 324 365 b 371 222 369 313 383 268 b 297 139 364 193 333 150 b 240 149 275 132 257 135 b 201 265 214 171 197 228 z "},"h":{"ha":675,"x_min":0,"x_max":0,"o":"m 272 1000 b 239 999 271 1015 254 1007 l 196 975 l 157 957 l 114 936 b 74 906 106 933 72 915 b 83 897 75 899 78 894 b 156 921 93 903 147 922 b 163 860 168 918 163 876 l 163 710 b 164 661 163 693 164 675 l 164 164 b 158 64 164 114 161 74 b 147 39 157 58 154 44 b 124 33 144 36 126 35 b 76 19 113 33 83 33 b 76 7 74 14 74 11 b 111 0 85 -4 100 0 l 135 0 b 160 0 147 0 149 0 l 278 0 b 313 0 282 0 311 0 b 342 13 324 4 340 0 b 314 32 343 28 329 32 b 278 46 296 32 285 35 b 271 253 272 54 268 244 b 396 339 282 285 376 335 b 454 317 422 344 439 336 b 476 64 483 282 478 71 b 446 33 469 43 469 33 b 403 19 435 33 408 33 b 404 6 400 14 400 11 b 451 0 411 -4 442 0 l 625 0 b 674 7 638 0 665 -4 b 675 21 676 11 678 15 b 633 32 668 33 646 32 b 596 33 626 33 600 31 b 588 144 576 46 588 132 l 588 194 b 539 374 588 249 613 332 b 278 304 435 435 364 379 b 267 301 278 304 271 300 b 265 313 264 303 265 313 l 267 817 b 268 844 267 826 268 835 b 269 924 269 875 269 924 b 272 975 269 947 272 957 z "},"i":{"ha":372,"x_min":0,"x_max":0,"o":"m 211 724 b 165 647 175 711 161 679 b 199 599 168 622 171 611 b 260 599 219 589 246 590 b 297 660 279 613 296 636 b 271 711 297 682 286 700 b 211 724 253 725 229 731 z m 267 396 b 101 328 211 382 154 357 b 100 318 101 328 97 322 b 135 319 107 310 129 318 b 165 326 136 319 158 329 b 174 317 171 325 174 317 b 174 282 174 306 174 293 l 174 174 b 172 71 174 154 175 88 b 147 28 168 49 171 36 b 96 15 125 21 100 28 b 97 4 94 11 94 8 b 142 0 103 -4 131 0 l 314 0 b 357 7 328 0 350 -1 b 357 25 361 11 361 19 b 319 32 350 35 329 32 b 285 33 314 32 290 32 b 272 157 265 47 272 140 l 275 332 b 275 353 275 339 275 346 l 275 372 b 267 396 275 389 275 399 z "},"j":{"ha":372,"x_min":0,"x_max":0,"o":"m 199 725 b 156 653 163 713 153 685 b 186 600 158 626 168 610 b 251 600 200 593 239 593 b 293 663 272 613 292 643 b 267 711 294 682 285 697 b 199 725 243 729 218 732 z m 97 -378 b 272 -67 233 -326 269 -160 l 282 292 b 285 351 282 317 282 328 b 272 407 288 388 285 400 b 110 314 246 421 143 343 b 106 301 110 314 103 308 b 118 297 108 294 118 297 l 168 322 b 175 275 178 313 175 282 b 175 226 175 258 175 240 l 175 -156 b 172 -246 175 -199 174 -237 b 106 -314 161 -294 149 -286 b 85 -344 89 -319 85 -332 b 97 -378 85 -358 88 -371 z "},"k":{"ha":642,"x_min":0,"x_max":0,"o":"m 283 222 l 274 603 l 274 624 l 274 901 b 275 956 274 919 275 938 b 268 1007 276 971 288 994 b 101 924 246 1022 125 939 b 99 911 101 924 93 919 b 131 913 104 904 131 913 b 157 924 143 917 150 926 b 168 882 168 918 164 892 b 171 840 168 868 171 854 l 171 174 b 167 74 171 172 168 82 b 136 38 160 46 165 44 b 88 24 125 35 92 36 b 86 10 86 18 83 15 b 128 0 92 -3 113 0 l 308 0 b 351 8 321 0 344 -1 b 350 28 356 14 354 21 b 285 39 343 40 293 28 b 282 82 278 49 282 69 b 282 124 281 89 281 113 b 321 201 283 167 286 163 b 431 51 374 150 403 104 b 436 36 432 49 439 40 b 396 26 432 31 401 36 b 394 11 393 21 393 17 b 429 0 397 0 414 0 l 608 0 b 665 10 614 0 663 -6 b 661 21 667 18 661 21 b 488 168 550 58 575 54 l 446 222 b 419 257 436 235 425 247 l 397 288 b 581 369 485 372 486 358 b 585 381 581 369 588 372 b 539 389 581 393 563 389 l 381 389 b 331 378 364 389 342 394 b 328 367 331 378 325 372 b 340 358 331 360 340 358 b 389 353 360 357 367 357 b 369 321 392 344 376 329 z "},"l":{"ha":372,"x_min":0,"x_max":0,"o":"m 282 1006 b 88 917 224 993 138 951 b 86 908 88 917 82 914 b 94 906 89 904 94 906 b 163 919 94 906 157 925 b 171 888 172 913 169 894 l 175 856 l 175 813 l 176 782 b 176 753 176 772 176 760 l 176 703 b 174 672 172 688 178 688 l 174 163 b 164 61 174 124 168 72 b 124 32 156 36 151 32 b 79 24 107 28 86 33 b 75 10 79 24 74 17 b 89 0 78 0 89 0 l 96 0 b 113 -1 101 0 110 -1 b 128 0 118 -1 125 0 l 135 0 l 143 0 l 294 0 b 314 0 296 0 314 0 l 342 0 b 372 7 353 0 369 -4 b 371 21 374 10 374 18 b 339 33 363 32 351 31 b 303 43 324 38 318 32 b 279 150 283 57 279 131 l 279 600 b 276 628 279 610 276 621 l 276 782 b 282 885 276 794 282 885 b 286 946 283 918 281 915 b 292 976 289 960 290 968 b 282 1006 293 990 294 1008 z "},"m":{"ha":913,"x_min":0,"x_max":0,"o":"m 563 319 b 542 372 560 344 568 347 b 490 399 532 381 514 390 b 297 321 414 426 376 388 b 297 365 290 336 297 353 b 274 401 293 385 296 392 b 114 335 233 419 176 385 b 111 324 114 335 108 331 b 125 321 115 313 125 321 b 174 344 143 332 153 344 b 185 310 186 343 185 317 b 186 276 185 299 186 285 b 185 210 190 251 185 233 l 185 168 b 182 119 185 151 182 133 b 179 71 182 103 181 85 b 111 19 176 18 153 28 b 101 8 111 19 100 17 b 111 0 103 1 111 0 l 135 0 b 221 3 135 0 186 3 b 272 0 242 3 271 0 b 299 -1 281 0 289 -1 b 347 19 319 -1 342 -1 b 336 35 350 29 336 35 l 303 36 b 292 271 283 103 281 244 b 386 346 306 304 369 343 b 440 328 411 350 429 342 b 444 61 460 304 451 83 b 417 32 444 39 436 35 b 374 19 404 31 378 36 b 382 0 371 4 376 0 b 432 0 393 0 432 0 b 488 3 440 0 467 3 b 564 0 507 3 564 0 b 604 6 581 0 590 1 b 626 32 626 6 633 11 b 597 38 614 39 601 38 b 569 43 593 38 574 40 b 563 247 543 61 561 226 b 581 297 565 271 560 275 b 631 338 593 313 619 332 b 686 332 653 347 671 343 b 718 89 740 290 725 131 l 711 50 b 678 33 710 33 688 39 b 668 13 672 29 665 29 b 694 0 669 1 689 0 l 865 0 b 894 11 879 0 892 1 b 868 31 900 32 881 29 b 832 39 854 32 839 31 b 826 164 815 58 826 150 l 826 193 b 751 386 826 271 864 331 b 563 319 682 421 632 389 z "},"n":{"ha":663,"x_min":0,"x_max":0,"o":"m 283 319 b 288 365 282 328 288 358 b 271 401 286 381 292 390 b 107 335 243 417 133 350 b 104 325 107 335 101 331 b 124 322 107 318 118 321 l 138 326 l 160 333 l 167 333 b 175 300 176 326 174 308 b 175 264 178 282 175 267 l 175 175 b 151 33 175 153 175 49 b 97 21 144 29 103 25 b 97 0 92 17 88 7 b 218 3 101 -3 171 3 b 268 0 238 3 264 0 l 308 0 b 350 13 349 0 349 1 b 342 22 351 21 344 21 b 307 26 335 25 315 26 b 276 49 289 26 281 33 b 279 276 274 60 272 265 b 408 353 296 303 383 351 b 451 329 429 354 435 354 b 463 56 481 286 468 74 b 435 29 463 35 453 29 b 392 13 421 29 392 28 b 400 0 392 7 392 0 b 642 0 426 0 553 4 b 653 8 650 0 653 4 b 621 24 654 21 635 24 l 592 26 l 586 29 b 578 164 567 36 578 151 l 578 206 b 517 382 578 288 610 333 b 283 319 432 425 367 390 z "},"o":{"ha":564,"x_min":0,"x_max":0,"o":"m 281 403 b 193 372 253 397 217 386 b 79 203 126 332 81 269 b 175 19 76 135 107 68 b 419 0 251 -33 357 -25 b 564 156 475 22 554 103 b 507 339 572 200 560 288 b 281 403 451 392 333 413 z m 200 226 b 269 367 201 269 214 346 b 386 350 297 376 353 375 b 450 146 446 303 453 175 b 386 31 446 110 436 54 b 279 43 353 15 311 21 b 200 226 211 89 197 163 z "},"p":{"ha":633,"x_min":0,"x_max":0,"o":"m 293 13 b 447 -11 351 -14 388 -22 b 621 107 503 -1 592 40 b 608 300 636 143 633 264 b 422 397 563 365 464 399 b 358 371 397 397 379 388 b 325 344 347 363 332 350 b 314 313 308 329 304 322 b 356 335 319 306 339 322 b 394 357 376 350 385 354 b 472 322 422 361 446 349 b 521 131 529 261 532 182 b 433 21 513 92 476 38 b 333 26 392 4 358 11 b 292 210 282 60 292 175 l 292 283 b 281 390 292 299 300 379 b 124 315 256 406 163 344 b 121 301 121 313 114 308 b 150 308 128 294 140 303 b 178 314 165 315 169 319 b 185 263 188 304 181 275 l 185 -242 b 163 -360 185 -262 188 -350 b 107 -364 153 -364 115 -362 b 68 -389 79 -364 65 -372 b 117 -399 71 -406 110 -401 b 161 -397 132 -399 147 -397 l 372 -403 b 406 -404 378 -403 401 -404 b 421 -376 425 -401 429 -386 b 371 -371 410 -369 379 -371 b 321 -364 339 -369 326 -367 b 292 -296 294 -350 293 -328 b 290 -260 292 -283 290 -272 l 289 -225 l 289 -37 z "},"q":{"ha":613,"x_min":0,"x_max":0,"o":"m 522 394 b 494 390 515 401 504 394 l 476 382 b 422 378 444 374 449 371 b 314 397 371 393 354 396 b 114 303 232 400 175 386 b 86 115 75 250 68 165 b 207 -7 108 50 144 10 b 413 51 269 -24 339 -12 l 413 -222 b 394 -357 413 -239 414 -340 b 319 -360 386 -364 353 -361 b 282 -358 307 -360 292 -358 b 250 -374 268 -358 256 -360 b 257 -397 247 -381 250 -394 b 300 -400 267 -401 292 -400 l 597 -400 b 646 -387 613 -400 640 -401 b 647 -378 647 -385 647 -381 b 597 -361 643 -360 611 -361 b 543 -354 589 -361 551 -360 b 522 -246 513 -335 522 -269 l 522 297 b 524 344 522 321 522 321 b 522 394 525 363 531 386 z m 189 181 b 276 358 179 246 189 315 b 367 354 303 372 338 372 b 419 213 419 324 418 258 b 369 49 419 179 426 86 b 279 42 344 32 308 28 b 189 181 225 65 196 132 z "},"r":{"ha":415,"x_min":0,"x_max":0,"o":"m 269 404 b 229 392 260 410 239 396 l 190 374 b 153 357 185 372 154 357 l 103 333 b 99 322 103 333 94 331 b 136 325 103 314 113 315 b 176 333 158 335 175 342 l 176 168 b 165 39 176 156 179 51 b 124 31 160 32 132 31 b 85 22 103 31 92 31 b 85 4 81 17 79 11 b 117 0 93 -6 110 0 l 325 0 b 372 13 338 0 364 -4 b 367 31 376 24 367 31 b 300 36 351 32 306 33 b 272 79 271 47 275 58 b 272 194 267 115 272 160 b 308 308 272 250 268 264 b 346 333 322 322 329 338 b 372 303 353 332 367 307 b 404 285 389 288 399 286 b 449 307 421 283 438 294 b 454 357 458 319 461 338 b 406 397 446 379 428 393 b 279 326 350 410 325 371 b 283 367 279 329 283 367 b 269 404 283 376 282 399 z "},"s":{"ha":381,"x_min":0,"x_max":0,"o":"m 363 288 b 368 372 365 307 375 353 b 314 399 357 396 335 396 b 172 357 267 404 211 401 b 132 238 139 319 125 267 b 274 114 146 188 232 163 b 289 58 289 94 294 75 b 238 14 282 36 261 21 b 167 26 210 6 185 11 b 129 94 151 40 146 56 b 113 128 124 107 118 117 b 85 140 103 150 85 150 b 97 -1 82 119 74 19 b 281 -8 125 -28 242 -19 b 379 81 329 4 368 36 b 350 196 389 115 383 163 b 217 301 332 214 229 258 b 231 353 210 322 218 340 b 276 372 250 372 265 375 b 324 325 292 368 311 356 b 363 288 343 276 361 281 z "},"t":{"ha":406,"x_min":0,"x_max":0,"o":"m 286 517 b 240 508 286 529 260 519 b 169 379 174 472 175 438 b 138 372 169 367 154 374 b 106 361 124 371 111 374 b 107 346 103 354 104 354 b 138 342 110 339 125 342 b 167 342 150 342 160 342 b 172 307 168 339 172 310 l 172 157 b 171 114 172 150 172 126 b 172 74 169 100 172 85 b 213 0 174 32 178 14 b 310 -7 233 -8 276 -12 b 360 8 328 -4 344 0 b 399 46 376 17 388 25 b 400 57 400 50 404 53 b 392 57 397 61 392 57 b 300 38 351 33 324 22 b 275 182 264 61 275 157 l 275 271 l 279 335 b 318 338 282 338 317 338 b 356 338 331 338 344 338 b 392 342 361 338 386 339 b 413 381 401 346 431 379 b 288 385 351 386 354 385 l 286 404 b 285 436 285 414 285 424 b 286 517 285 468 286 517 z "},"u":{"ha":654,"x_min":0,"x_max":0,"o":"m 557 386 b 517 396 558 396 526 399 b 475 382 500 394 486 389 b 449 289 433 357 449 326 l 449 242 b 381 42 449 167 468 99 b 303 39 354 25 324 26 b 268 210 253 68 268 178 l 268 285 b 263 392 268 304 285 378 b 103 333 226 415 135 356 b 103 321 97 329 96 321 b 133 329 110 321 126 325 b 164 338 143 335 161 347 b 169 231 172 279 169 288 l 169 178 b 193 14 168 165 156 54 b 322 -14 226 -21 279 -17 b 443 69 379 -11 406 19 b 443 46 446 61 443 46 b 443 25 443 33 443 28 b 463 -12 444 6 440 0 b 624 57 500 -32 589 32 b 621 68 624 57 626 64 b 590 58 613 74 601 63 l 557 46 b 550 164 550 92 550 118 l 550 226 b 554 317 550 233 554 317 b 557 358 554 328 557 350 z "},"v":{"ha":576,"x_min":0,"x_max":0,"o":"m 303 379 b 254 386 293 397 267 386 b 203 383 225 386 204 383 l 160 383 l 107 386 b 60 379 92 388 72 388 b 53 365 60 379 53 372 b 68 351 56 353 68 351 b 203 228 174 342 154 331 l 283 58 b 303 11 290 43 294 25 b 340 -18 313 -14 331 -21 b 363 19 357 -14 363 19 l 374 51 l 454 221 b 511 326 471 257 503 315 b 561 351 532 353 536 349 b 600 372 586 351 601 353 b 557 386 599 389 561 386 l 521 386 b 475 389 489 386 475 389 l 439 389 b 389 379 428 389 403 389 b 381 365 385 376 379 374 b 390 354 382 356 390 354 b 421 351 406 350 408 354 l 436 347 b 449 333 446 346 444 340 b 389 181 439 279 390 185 l 363 126 l 336 182 b 326 206 331 194 329 200 l 297 265 l 286 288 l 265 340 b 296 351 271 347 290 347 b 303 379 306 358 310 368 z "},"w":{"ha":815,"x_min":0,"x_max":0,"o":"m 63 392 b 50 382 63 392 51 392 b 56 369 49 369 56 369 b 199 232 175 343 142 356 l 292 29 b 319 -14 297 15 308 -12 b 343 4 331 -15 336 -8 b 357 32 350 15 350 21 l 407 153 b 444 225 415 174 439 214 l 506 99 b 535 36 517 76 526 54 b 574 -18 551 -3 558 -18 b 639 101 593 -18 633 90 l 696 231 b 839 371 746 343 736 349 b 844 386 839 371 851 372 b 829 390 842 392 829 390 l 788 390 l 708 386 b 629 386 703 388 636 390 b 622 365 622 382 617 374 b 658 353 629 354 656 353 b 694 344 669 353 699 354 l 597 128 l 493 346 b 479 371 485 364 485 367 b 464 371 474 374 469 374 b 440 332 453 364 440 332 b 432 308 435 322 439 319 l 356 131 l 342 157 b 326 199 336 171 332 186 l 276 315 b 271 354 269 331 263 340 b 304 364 271 354 296 357 b 310 383 310 368 315 374 b 264 389 304 394 275 389 l 229 389 b 201 389 219 389 208 389 l 149 389 b 118 390 138 389 131 390 b 92 392 115 390 92 392 z "},"x":{"ha":590,"x_min":0,"x_max":0,"o":"m 313 393 b 218 390 296 397 283 390 l 181 390 b 128 392 163 390 143 392 b 81 382 114 392 82 401 b 101 360 79 371 89 364 b 131 351 108 360 122 353 b 183 301 147 342 163 325 b 278 183 228 251 246 228 l 257 161 b 153 57 244 147 153 57 b 101 36 132 40 121 38 b 83 0 64 33 67 0 l 160 0 l 189 0 l 240 0 b 278 13 254 0 276 -3 b 251 31 279 28 264 31 b 218 42 243 33 222 33 b 304 146 260 101 250 89 b 353 93 331 117 331 122 l 375 64 b 390 38 382 54 393 50 b 367 21 388 21 378 25 b 357 7 363 19 356 15 b 401 0 358 -4 385 0 l 571 0 b 603 11 588 0 600 -3 b 596 25 606 24 596 25 b 472 99 531 38 531 33 b 376 221 439 136 403 181 b 586 360 464 313 500 353 b 597 378 592 360 601 365 b 554 392 592 394 561 392 l 410 392 b 382 378 399 392 382 390 b 390 363 382 372 383 365 b 432 357 401 358 432 357 b 432 342 446 357 439 349 l 425 335 l 419 332 b 392 304 411 324 401 314 b 344 260 376 290 349 254 l 279 346 b 288 357 279 346 275 354 b 321 361 299 360 321 361 b 331 375 321 361 332 364 b 313 393 329 383 325 390 z "},"y":{"ha":654,"x_min":0,"x_max":0,"o":"m 356 382 b 311 389 349 393 326 390 l 267 385 b 172 388 233 382 196 386 l 106 390 b 58 388 89 390 72 390 b 56 367 44 385 44 369 b 229 233 160 335 154 369 l 293 118 b 300 -133 378 -35 375 28 l 272 -193 l 244 -246 l 210 -303 b 174 -353 208 -306 188 -344 b 157 -354 168 -353 163 -354 b 142 -354 156 -354 142 -354 l 110 -358 b 74 -364 97 -360 83 -360 b 58 -385 58 -364 56 -375 b 101 -392 61 -397 86 -393 b 144 -389 101 -392 140 -386 b 160 -410 151 -394 160 -410 b 374 -386 240 -385 293 -386 b 383 -374 374 -386 382 -382 b 369 -356 386 -362 379 -358 b 340 -353 364 -354 347 -353 l 283 -353 b 253 -347 283 -353 254 -354 b 318 -190 251 -340 292 -240 l 376 -82 b 419 7 401 -35 399 -40 l 524 240 b 582 339 547 293 561 314 b 625 354 596 357 600 353 b 674 361 647 354 651 353 l 678 367 b 657 390 685 386 668 390 l 624 389 b 560 386 624 389 585 386 b 478 389 528 386 478 389 b 444 376 460 389 447 390 b 464 351 442 360 453 354 b 497 350 471 350 492 350 b 433 144 506 282 471 213 l 419 119 l 288 347 b 297 354 288 347 292 353 b 331 354 307 357 331 354 b 358 365 347 354 354 357 b 356 382 361 371 360 376 z "},"z":{"ha":460,"x_min":0,"x_max":0,"o":"m 482 379 b 461 383 479 383 471 383 l 282 383 b 99 239 135 383 135 397 b 106 231 99 239 96 232 b 135 253 117 229 128 242 b 167 285 146 265 154 278 b 232 300 183 297 208 299 b 367 296 275 301 304 300 b 343 265 365 285 351 274 b 314 238 328 250 315 238 l 181 119 b 111 56 153 94 138 81 b 81 21 99 43 86 36 b 88 -12 78 13 74 -7 b 117 -1 97 -17 107 -10 b 144 0 121 3 136 0 l 213 0 b 293 -1 215 0 293 -1 b 333 -6 310 -1 319 0 b 374 -21 344 -10 363 -25 b 463 132 399 -14 450 97 b 457 142 463 132 465 139 b 425 132 447 144 435 139 b 394 108 406 121 411 122 b 333 88 369 86 368 86 b 214 83 282 90 264 86 l 308 181 b 357 228 336 208 346 217 l 383 257 b 439 321 415 293 408 288 b 481 367 439 321 464 347 b 482 379 485 371 486 375 z "},"{":{"ha":650,"x_min":0,"x_max":0,"o":"m 650 1044 b 439 1006 589 1043 508 1040 b 317 749 317 943 317 846 l 317 643 b 76 394 317 435 282 429 l 76 332 b 242 278 108 325 192 310 b 315 83 324 226 315 160 l 315 -36 b 376 -244 315 -117 308 -178 b 650 -329 449 -312 593 -329 l 650 -289 b 500 -235 594 -281 550 -272 b 428 -31 425 -179 428 -99 l 428 69 b 140 357 428 286 335 328 b 353 429 178 367 289 381 b 429 646 436 492 429 572 l 429 763 b 650 1006 429 936 476 976 z "},"|":{"ha":151,"x_min":0,"x_max":0,"o":"m 89 1200 l 89 -228 l 160 -228 l 160 1200 z "},"}":{"ha":650,"x_min":0,"x_max":0,"o":"m 286 1006 b 75 1044 217 1040 136 1043 l 75 1006 b 296 763 250 976 296 936 l 296 646 b 374 429 296 572 289 493 b 586 357 438 382 547 367 b 297 69 390 328 297 286 l 297 -31 b 225 -235 297 -99 300 -179 b 75 -289 175 -272 131 -281 l 75 -329 b 349 -244 132 -329 276 -312 b 410 -36 417 -178 410 -117 l 410 83 b 483 278 410 160 401 226 b 649 332 533 310 617 325 l 649 394 b 408 643 443 429 408 435 l 408 749 b 286 1006 408 846 408 943 z "},"~":{"ha":392,"x_min":0,"x_max":0,"o":"m 385 686 b 350 654 375 686 365 669 b 308 638 336 643 325 639 b 156 681 296 638 194 690 b 96 633 135 676 114 656 b 79 603 89 625 83 614 b 74 571 75 592 69 579 b 88 571 76 565 83 567 b 124 610 94 578 111 604 b 271 575 161 629 210 581 b 392 678 332 571 363 615 b 385 686 396 685 388 686 z "},"Ä":{"ha":1119,"x_min":0,"x_max":0,"o":"m 613 979 b 596 963 607 978 601 969 b 567 960 588 965 575 964 b 546 943 557 956 546 943 b 517 950 532 932 526 954 b 504 925 503 944 504 933 b 519 835 501 913 519 840 b 492 743 519 825 494 750 l 282 169 b 238 89 267 128 272 136 b 165 42 206 46 211 49 b 138 38 153 39 140 38 b 108 36 128 38 118 36 b 81 31 99 35 92 39 b 76 6 71 24 68 13 b 107 -1 90 -6 94 -1 b 138 0 114 -1 132 0 l 422 0 b 458 0 431 0 450 -1 b 479 19 471 3 481 8 b 435 36 476 35 444 38 b 413 38 425 38 421 38 b 369 42 404 40 369 42 b 322 61 358 43 333 44 b 413 332 331 139 361 254 l 507 332 b 551 329 521 332 539 329 l 571 329 b 692 325 583 329 678 336 b 768 46 713 306 768 115 b 699 32 726 38 739 32 l 667 32 b 635 19 650 32 636 29 b 672 -6 635 -8 653 -6 b 722 0 682 -7 704 0 l 804 0 l 836 -4 l 1056 -11 b 1089 -8 1074 -11 1085 -10 b 1119 4 1103 -7 1114 -6 b 1121 17 1119 4 1122 11 b 1111 26 1118 25 1111 26 b 1021 33 1078 26 1044 26 b 900 194 946 57 918 142 l 735 682 b 729 710 731 694 732 700 b 700 782 724 725 701 776 b 656 924 700 782 676 869 b 642 958 651 936 642 958 b 613 979 633 981 626 983 z m 526 694 b 547 740 532 713 536 725 l 671 379 l 478 379 b 426 383 465 379 442 378 z m 457 1151 b 417 1075 419 1136 411 1101 b 454 1031 421 1053 436 1038 b 511 1038 475 1022 494 1028 b 540 1090 532 1051 540 1069 b 511 1149 539 1115 528 1138 b 457 1151 494 1160 475 1158 z m 646 1151 b 606 1072 610 1135 597 1100 b 646 1029 613 1047 632 1035 b 704 1040 668 1022 690 1029 b 731 1093 724 1053 732 1072 b 699 1149 729 1121 714 1139 b 646 1151 686 1157 660 1158 z "},"Å":{"ha":1119,"x_min":0,"x_max":0,"o":"m 613 979 b 596 963 607 978 601 969 b 567 960 588 965 575 964 b 546 943 557 956 546 943 b 517 950 532 932 526 954 b 504 925 503 944 504 933 b 519 835 501 913 519 840 b 492 743 519 825 494 750 l 282 169 b 238 89 267 128 272 136 b 165 42 206 46 211 49 b 138 38 153 39 140 38 b 108 36 128 38 118 36 b 81 31 99 35 92 39 b 76 6 71 24 68 13 b 107 -1 90 -6 94 -1 b 138 0 114 -1 132 0 l 422 0 b 458 0 431 0 450 -1 b 479 19 471 3 481 8 b 435 36 476 35 444 38 b 413 38 425 38 421 38 b 369 42 404 40 369 42 b 322 61 358 43 333 44 b 413 332 331 139 361 254 l 507 332 b 551 329 521 332 539 329 l 571 329 b 692 325 583 329 678 336 b 768 46 713 306 768 115 b 699 32 726 38 739 32 l 667 32 b 635 19 650 32 636 29 b 672 -6 635 -8 653 -6 b 722 0 682 -7 704 0 l 804 0 l 836 -4 l 1056 -11 b 1089 -8 1074 -11 1085 -10 b 1119 4 1103 -7 1114 -6 b 1121 17 1119 4 1122 11 b 1111 26 1118 25 1111 26 b 1021 33 1078 26 1044 26 b 900 194 946 57 918 142 l 735 682 b 729 710 731 694 732 700 b 700 782 724 725 701 776 b 656 924 700 782 676 869 b 642 958 651 936 642 958 b 613 979 633 981 626 983 z m 526 694 b 547 740 532 713 536 725 l 671 379 l 478 379 b 426 383 465 379 442 378 z m 550 1271 b 475 1161 494 1254 472 1207 b 529 1078 478 1126 496 1096 b 621 1074 561 1060 596 1061 b 683 1156 661 1094 679 1126 b 644 1247 688 1188 675 1224 b 550 1271 615 1275 581 1279 z m 510 1178 b 554 1233 513 1199 528 1224 b 617 1226 572 1240 594 1240 b 646 1161 638 1210 649 1186 b 601 1104 644 1139 628 1115 b 538 1114 585 1097 558 1097 b 510 1178 517 1129 506 1154 z "},"Ç":{"ha":961,"x_min":0,"x_max":0,"o":"m 508 -33 l 449 -157 l 474 -172 b 560 -187 507 -165 540 -161 b 561 -235 567 -203 568 -219 b 481 -267 543 -262 513 -267 b 404 -249 463 -267 447 -262 l 385 -299 b 667 -289 467 -332 604 -342 b 704 -187 697 -262 713 -228 b 633 -111 697 -153 674 -125 b 536 -107 603 -101 578 -107 l 567 -35 b 629 -31 588 -35 608 -31 b 957 194 732 -19 911 46 b 933 203 957 207 944 211 b 889 156 919 192 903 169 b 825 100 863 126 851 118 b 528 63 739 42 614 25 b 278 376 396 118 299 264 b 339 831 256 497 228 711 b 663 931 435 933 567 946 b 886 704 810 906 818 836 l 906 667 b 919 643 906 658 910 653 b 933 646 919 643 933 640 b 932 688 933 654 932 665 l 911 849 b 882 988 911 863 893 978 b 854 994 869 997 854 994 b 819 964 835 982 832 963 l 782 967 l 725 976 b 643 985 715 976 643 985 b 146 757 468 1003 288 992 b 157 186 40 583 50 354 b 508 -33 260 25 385 -24 z "},"É":{"ha":925,"x_min":0,"x_max":0,"o":"m 743 744 b 765 850 747 788 751 808 b 782 904 772 874 776 889 b 803 956 785 911 801 951 b 793 981 807 965 801 976 b 749 963 779 986 760 967 l 706 958 b 621 963 676 956 649 963 l 257 963 l 218 964 l 156 964 b 125 964 153 964 125 964 b 99 956 117 964 103 963 b 132 929 88 932 125 932 b 178 914 142 925 168 922 b 208 792 218 885 208 821 l 201 151 b 182 43 201 118 200 58 b 126 31 172 35 158 32 b 75 17 114 29 81 28 b 82 0 71 10 71 3 b 113 0 90 -3 94 0 l 146 0 b 174 0 156 0 165 0 l 754 0 b 758 -12 754 0 757 -8 b 778 -42 764 -25 769 -35 b 794 -47 783 -46 788 -47 b 818 -18 808 -47 815 -26 b 850 61 818 -18 835 29 b 876 113 860 83 867 93 b 900 153 883 128 893 140 l 914 176 b 919 215 918 183 929 206 b 906 219 914 221 911 221 b 893 210 900 218 897 217 b 869 182 886 201 878 192 b 817 128 842 150 828 138 b 710 74 793 106 743 85 b 383 49 664 57 426 17 b 364 214 349 74 364 186 l 364 283 b 363 338 364 301 363 319 l 363 371 b 365 426 363 394 365 406 l 365 454 b 376 479 365 471 369 471 b 522 479 450 485 504 485 b 599 339 582 461 589 379 b 615 332 599 339 600 326 b 624 360 622 335 624 353 l 624 415 b 625 526 624 439 622 486 b 631 581 626 554 628 563 b 635 610 633 596 635 596 b 625 638 635 625 635 635 b 588 607 601 643 596 629 b 575 585 582 594 582 594 l 560 564 b 396 539 529 522 433 539 b 372 539 396 539 378 535 b 364 571 364 544 365 558 b 364 600 363 581 364 593 l 372 865 b 378 897 372 875 374 885 l 385 904 b 581 901 453 910 556 903 b 697 850 625 897 676 890 b 710 790 703 840 703 826 b 728 739 714 767 718 744 b 743 744 736 733 742 738 z m 599 1203 b 521 1206 579 1206 542 1214 b 489 1169 493 1197 499 1196 l 472 1122 b 424 1031 453 1068 447 1086 l 413 1004 b 440 1010 421 994 433 1004 b 469 1032 453 1017 458 1022 b 524 1086 476 1038 490 1051 b 599 1203 585 1151 622 1200 z "},"Ñ":{"ha":1285,"x_min":0,"x_max":0,"o":"m 1019 276 b 976 314 1010 276 982 307 l 503 853 b 272 964 379 993 433 964 l 75 964 b 60 946 75 964 60 965 b 75 926 60 924 75 926 b 208 900 142 924 158 932 b 357 757 257 869 315 813 b 390 603 400 700 390 657 l 390 397 b 388 339 390 392 388 343 l 379 183 b 346 67 378 147 381 97 b 254 42 321 44 286 42 b 164 33 199 40 178 40 b 157 19 160 32 157 28 b 164 7 157 11 160 10 b 210 0 174 0 192 0 l 232 0 b 285 0 250 0 267 0 l 561 0 b 592 1 579 0 581 0 b 619 17 610 3 617 4 b 597 42 622 31 614 38 b 561 46 588 44 571 46 b 489 61 528 49 507 50 b 446 231 436 94 444 190 l 454 647 l 857 215 b 872 200 860 213 868 206 b 882 183 876 194 881 186 b 910 151 888 176 896 168 l 1021 25 l 1053 -4 b 1078 -18 1067 -17 1068 -18 b 1093 114 1088 -17 1093 -4 l 1093 781 b 1121 907 1093 813 1097 883 b 1251 925 1142 928 1229 918 b 1281 933 1251 925 1276 925 b 1282 954 1285 940 1288 944 b 1238 968 1274 969 1256 968 l 897 968 l 868 968 b 839 954 854 968 843 967 b 843 935 836 946 839 940 b 879 925 849 925 869 925 b 917 924 881 925 899 925 b 989 911 963 919 982 915 b 1026 757 1038 883 1026 790 l 1026 372 b 1024 339 1026 365 1024 344 b 1019 307 1024 328 1019 328 z m 854 1122 b 818 1090 844 1122 833 1106 b 778 1074 804 1079 794 1075 b 624 1117 765 1074 664 1125 b 565 1069 603 1113 583 1092 b 549 1039 558 1061 553 1050 b 543 1007 544 1028 539 1015 b 557 1007 546 1001 553 1003 b 592 1046 564 1014 581 1040 b 740 1011 631 1065 679 1015 b 861 1114 801 1007 831 1051 b 854 1122 865 1121 857 1122 z "},"Ö":{"ha":1161,"x_min":0,"x_max":0,"o":"m 524 988 b 347 929 467 981 388 950 b 79 524 188 844 94 681 b 246 101 64 378 97 222 b 774 -1 414 -35 601 -56 b 1146 353 944 53 1093 165 b 1043 807 1182 479 1146 689 b 524 988 897 976 656 1004 z m 376 840 b 514 933 418 889 464 919 b 804 867 596 956 719 935 b 968 429 942 756 974 539 b 782 69 961 310 922 157 b 519 38 707 22 594 8 b 285 329 375 94 315 211 b 376 840 253 458 258 700 z m 522 1156 b 482 1079 485 1140 478 1106 b 519 1035 486 1057 501 1042 b 578 1042 540 1026 561 1032 b 606 1094 597 1056 606 1074 b 578 1153 604 1119 593 1142 b 522 1156 561 1164 540 1163 z m 711 1156 b 672 1076 676 1139 664 1104 b 711 1033 679 1051 697 1039 b 771 1044 733 1026 756 1033 b 797 1097 790 1057 799 1076 b 765 1153 796 1124 781 1143 b 711 1156 751 1161 725 1163 z "},"Ü":{"ha":1246,"x_min":0,"x_max":0,"o":"m 622 921 b 625 957 635 921 647 947 b 592 963 618 960 599 963 l 556 963 b 522 963 544 963 532 963 b 383 969 447 963 404 969 l 214 969 b 83 963 201 969 93 972 b 76 939 76 956 74 946 b 100 924 79 929 89 926 b 258 907 121 918 231 928 b 288 756 299 878 288 779 l 278 401 b 464 6 274 271 328 83 b 844 19 572 -57 749 -37 b 1021 392 1007 115 1021 239 l 1021 774 b 1046 892 1021 815 1014 860 b 1203 925 1081 926 1200 925 b 1244 932 1203 925 1239 921 b 1233 960 1250 942 1247 958 l 1197 963 l 1126 963 b 1056 971 1097 963 1099 964 b 983 971 1026 976 1001 971 l 942 971 b 899 967 926 967 906 968 b 856 964 885 967 869 964 b 772 961 847 964 778 964 b 758 938 761 956 757 944 b 782 918 761 924 769 918 l 815 918 b 844 918 818 918 844 918 b 906 904 875 918 890 914 b 964 717 967 863 964 751 l 964 421 b 807 89 964 289 961 174 b 565 92 739 51 626 56 b 453 403 444 163 453 321 l 453 797 b 474 907 453 831 453 889 b 622 921 492 924 607 919 z m 608 1151 b 569 1075 572 1136 564 1101 b 606 1031 574 1053 588 1038 b 664 1038 626 1022 647 1028 b 693 1090 685 1051 693 1069 b 664 1149 692 1115 681 1138 b 608 1151 647 1160 626 1158 z m 799 1151 b 758 1072 763 1133 750 1100 b 799 1029 765 1047 785 1035 b 857 1040 819 1022 842 1029 b 883 1093 876 1053 885 1072 b 851 1149 882 1121 867 1139 b 799 1151 838 1157 811 1157 z "},"á":{"ha":489,"x_min":0,"x_max":0,"o":"m 489 26 b 436 64 488 31 440 -4 l 432 143 l 432 175 b 400 353 432 210 442 311 b 235 390 356 396 286 401 b 101 301 192 381 118 340 b 106 263 94 283 100 269 b 147 247 115 247 135 243 b 190 288 169 256 182 267 b 231 358 199 310 192 342 b 303 353 257 369 286 365 b 333 214 343 324 335 239 l 307 207 b 76 64 254 193 89 144 b 113 -6 72 32 89 8 b 326 49 175 -42 251 -7 b 376 -8 349 11 360 -1 b 435 -8 392 -17 415 -15 b 464 4 446 -6 457 0 b 489 26 471 8 490 21 z m 210 132 b 332 176 236 156 276 165 b 285 49 332 129 342 86 b 215 29 258 31 235 21 b 186 69 203 35 190 47 b 210 132 183 90 189 113 z m 397 676 b 319 679 376 679 340 688 b 288 643 292 671 297 668 l 269 596 b 222 504 249 542 246 560 l 211 478 b 239 482 219 468 232 478 b 267 506 251 490 257 496 b 322 560 274 511 289 525 b 397 676 382 625 421 674 z "},"à":{"ha":489,"x_min":0,"x_max":0,"o":"m 489 26 b 436 64 488 31 440 -4 l 432 143 l 432 175 b 400 353 432 210 442 311 b 235 390 356 396 286 401 b 101 301 192 381 118 340 b 106 263 94 283 100 269 b 147 247 115 247 135 243 b 190 288 169 256 182 267 b 231 358 199 310 192 342 b 303 353 257 369 286 365 b 333 214 343 324 335 239 l 307 207 b 76 64 254 193 89 144 b 113 -6 72 32 89 8 b 326 49 175 -42 251 -7 b 376 -8 349 11 360 -1 b 435 -8 392 -17 415 -15 b 464 4 446 -6 457 0 b 489 26 471 8 490 21 z m 210 132 b 332 176 236 156 276 165 b 285 49 332 129 342 86 b 215 29 258 31 235 21 b 186 69 203 35 190 47 b 210 132 183 90 189 113 z m 171 653 b 169 621 161 646 160 633 b 193 592 179 610 188 600 b 249 532 215 567 236 544 b 306 481 267 514 290 492 b 336 458 317 471 329 463 b 367 461 357 447 371 453 b 313 544 360 471 317 538 b 290 588 299 569 301 561 b 274 626 286 600 278 615 b 254 650 268 640 264 650 b 238 651 244 651 246 651 b 225 653 232 651 232 653 l 197 653 l 183 653 z "},"â":{"ha":489,"x_min":0,"x_max":0,"o":"m 489 26 b 436 64 488 31 440 -4 l 432 143 l 432 175 b 400 353 432 210 442 311 b 235 390 356 396 286 401 b 101 301 192 381 118 340 b 106 263 94 283 100 269 b 147 247 115 247 135 243 b 190 288 169 256 182 267 b 231 358 199 310 192 342 b 303 353 257 369 286 365 b 333 214 343 324 335 239 l 307 207 b 76 64 254 193 89 144 b 113 -6 72 32 89 8 b 326 49 175 -42 251 -7 b 376 -8 349 11 360 -1 b 435 -8 392 -17 415 -15 b 464 4 446 -6 457 0 b 489 26 471 8 490 21 z m 210 132 b 332 176 236 156 276 165 b 285 49 332 129 342 86 b 215 29 258 31 235 21 b 186 69 203 35 190 47 b 210 132 183 90 189 113 z m 425 478 b 428 483 428 479 428 483 l 425 489 l 419 496 l 415 501 l 403 521 b 342 608 367 578 374 557 b 281 686 315 651 301 683 b 175 568 253 689 188 585 l 142 522 b 132 483 131 507 114 492 b 163 494 142 481 158 489 b 189 522 167 499 182 514 b 239 583 207 544 219 560 l 257 600 b 294 560 278 578 269 590 l 335 513 b 378 482 354 490 367 478 b 401 479 386 485 399 479 b 407 478 401 479 404 478 b 415 481 410 478 413 481 b 425 478 419 481 421 475 z "},"ä":{"ha":489,"x_min":0,"x_max":0,"o":"m 489 26 b 436 64 488 31 440 -4 l 432 143 l 432 175 b 400 353 432 210 442 311 b 235 390 356 396 286 401 b 101 301 192 381 118 340 b 106 263 94 283 100 269 b 147 247 115 247 135 243 b 190 288 169 256 182 267 b 231 358 199 310 192 342 b 303 353 257 369 286 365 b 333 214 343 324 335 239 l 307 207 b 76 64 254 193 89 144 b 113 -6 72 32 89 8 b 326 49 175 -42 251 -7 b 376 -8 349 11 360 -1 b 435 -8 392 -17 415 -15 b 464 4 446 -6 457 0 b 489 26 471 8 490 21 z m 210 132 b 332 176 236 156 276 165 b 285 49 332 129 342 86 b 215 29 258 31 235 21 b 186 69 203 35 190 47 b 210 132 183 90 189 113 z m 164 613 b 125 536 128 597 119 563 b 161 492 129 514 144 499 b 219 499 182 483 203 489 b 249 551 240 513 249 531 b 219 610 247 576 236 599 b 164 613 203 621 182 619 z m 354 613 b 314 533 318 596 306 561 b 354 490 321 508 340 496 b 413 501 375 483 397 490 b 439 554 432 514 440 533 b 407 610 438 582 422 600 b 354 613 393 618 368 619 z "},"ã":{"ha":489,"x_min":0,"x_max":0,"o":"m 489 26 b 436 64 488 31 440 -4 l 432 143 l 432 175 b 400 353 432 210 442 311 b 235 390 356 396 286 401 b 101 301 192 381 118 340 b 106 263 94 283 100 269 b 147 247 115 247 135 243 b 190 288 169 256 182 267 b 231 358 199 310 192 342 b 303 353 257 369 286 365 b 333 214 343 324 335 239 l 307 207 b 76 64 254 193 89 144 b 113 -6 72 32 89 8 b 326 49 175 -42 251 -7 b 376 -8 349 11 360 -1 b 435 -8 392 -17 415 -15 b 464 4 446 -6 457 0 b 489 26 471 8 490 21 z m 210 132 b 332 176 236 156 276 165 b 285 49 332 129 342 86 b 215 29 258 31 235 21 b 186 69 203 35 190 47 b 210 132 183 90 189 113 z m 432 618 b 396 588 422 618 411 601 b 356 571 382 576 372 572 b 201 613 343 571 242 622 b 143 567 181 608 160 588 b 126 536 136 558 131 547 b 121 503 122 525 117 511 b 135 503 124 497 131 499 b 169 543 142 510 158 538 b 318 507 208 563 257 513 b 439 610 378 503 408 549 b 432 618 443 617 435 618 z "},"å":{"ha":489,"x_min":0,"x_max":0,"o":"m 489 26 b 436 64 488 31 440 -4 l 432 143 l 432 175 b 400 353 432 210 442 311 b 235 390 356 396 286 401 b 101 301 192 381 118 340 b 106 263 94 283 100 269 b 147 247 115 247 135 243 b 190 288 169 256 182 267 b 231 358 199 310 192 342 b 303 353 257 369 286 365 b 333 214 343 324 335 239 l 307 207 b 76 64 254 193 89 144 b 113 -6 72 32 89 8 b 326 49 175 -42 251 -7 b 376 -8 349 11 360 -1 b 435 -8 392 -17 415 -15 b 464 4 446 -6 457 0 b 489 26 471 8 490 21 z m 210 132 b 332 176 236 156 276 165 b 285 49 332 129 342 86 b 215 29 258 31 235 21 b 186 69 203 35 190 47 b 210 132 183 90 189 113 z m 249 703 b 172 593 193 688 169 639 b 228 510 175 560 194 528 b 319 506 260 492 294 493 b 381 588 360 526 376 560 b 343 681 385 619 374 654 b 249 703 314 706 278 711 z m 208 610 b 253 667 211 631 226 656 b 315 658 269 674 293 675 b 344 593 336 643 347 618 b 300 536 343 572 326 547 b 236 546 282 529 257 529 b 208 610 215 563 204 588 z "},"ç":{"ha":465,"x_min":0,"x_max":0,"o":"m 250 -8 l 189 -131 l 214 -147 b 300 -161 249 -140 281 -136 b 301 -208 307 -176 308 -193 b 221 -240 283 -236 254 -240 b 146 -222 203 -240 188 -236 l 126 -272 b 407 -264 207 -306 346 -315 b 446 -161 439 -236 454 -201 b 374 -85 439 -126 414 -99 b 276 -81 344 -75 318 -81 l 307 -7 b 460 71 360 0 410 25 b 464 85 460 71 464 78 b 453 88 464 92 453 88 b 322 46 400 54 386 46 b 206 131 261 46 240 71 b 199 317 181 174 181 281 b 278 374 217 353 250 374 b 358 335 310 378 332 369 b 425 282 392 293 399 282 b 461 303 444 282 456 293 b 460 344 469 317 468 331 b 314 404 433 389 350 404 b 119 321 244 404 172 392 b 81 124 76 263 65 167 b 210 -1 99 71 146 14 b 250 -8 224 -1 238 -8 z "},"é":{"ha":479,"x_min":0,"x_max":0,"o":"m 472 235 b 471 282 483 236 475 271 b 447 328 463 303 454 318 b 276 403 399 397 335 406 b 101 300 197 400 150 381 b 94 96 65 240 72 144 b 263 -8 129 22 213 -1 b 375 -1 296 -12 351 -7 b 432 18 396 3 415 10 b 460 33 438 21 453 28 b 478 65 475 44 481 57 b 465 68 475 72 465 68 b 263 56 374 19 328 21 b 183 232 185 97 186 172 l 208 233 l 294 233 b 314 233 297 233 313 233 l 376 233 b 472 235 414 233 424 228 z m 219 264 l 189 264 b 233 365 192 308 192 342 b 313 365 254 376 286 378 b 357 308 333 356 353 336 b 351 272 360 296 365 285 b 219 264 331 256 239 264 z m 418 681 b 340 683 397 683 361 692 b 308 647 313 675 318 672 l 290 600 b 243 508 269 546 265 564 l 232 481 b 260 486 240 472 253 481 b 288 510 271 494 276 500 b 343 564 294 515 310 529 b 418 681 403 629 442 678 z "},"è":{"ha":479,"x_min":0,"x_max":0,"o":"m 472 235 b 471 282 483 236 475 271 b 447 328 463 303 454 318 b 276 403 399 397 335 406 b 101 300 197 400 150 381 b 94 96 65 240 72 144 b 263 -8 129 22 213 -1 b 375 -1 296 -12 351 -7 b 432 18 396 3 415 10 b 460 33 438 21 453 28 b 478 65 475 44 481 57 b 465 68 475 72 465 68 b 263 56 374 19 328 21 b 183 232 185 97 186 172 l 208 233 l 294 233 b 314 233 297 233 313 233 l 376 233 b 472 235 414 233 424 228 z m 219 264 l 189 264 b 233 365 192 308 192 342 b 313 365 254 376 286 378 b 357 308 333 356 353 336 b 351 272 360 296 365 285 b 219 264 331 256 239 264 z m 171 653 b 169 621 161 646 160 633 b 193 592 179 610 188 600 b 249 532 215 567 236 544 b 306 481 267 514 290 492 b 336 458 317 471 329 463 b 367 461 357 447 371 453 b 313 544 360 471 317 538 b 290 588 299 569 301 561 b 274 626 286 600 278 615 b 254 650 268 640 264 650 b 238 651 244 651 246 651 b 225 653 232 651 232 653 l 197 653 l 183 653 z "},"ê":{"ha":479,"x_min":0,"x_max":0,"o":"m 472 235 b 471 282 483 236 475 271 b 447 328 463 303 454 318 b 276 403 399 397 335 406 b 101 300 197 400 150 381 b 94 96 65 240 72 144 b 263 -8 129 22 213 -1 b 375 -1 296 -12 351 -7 b 432 18 396 3 415 10 b 460 33 438 21 453 28 b 478 65 475 44 481 57 b 465 68 475 72 465 68 b 263 56 374 19 328 21 b 183 232 185 97 186 172 l 208 233 l 294 233 b 314 233 297 233 313 233 l 376 233 b 472 235 414 233 424 228 z m 219 264 l 189 264 b 233 365 192 308 192 342 b 313 365 254 376 286 378 b 357 308 333 356 353 336 b 351 272 360 296 365 285 b 219 264 331 256 239 264 z m 425 478 b 428 483 428 479 428 483 l 425 489 l 419 496 l 415 501 l 403 521 b 342 608 367 578 374 557 b 281 686 315 651 301 683 b 175 568 253 689 188 585 l 142 522 b 132 483 131 507 114 492 b 163 494 142 481 158 489 b 189 522 167 499 182 514 b 239 583 207 544 219 560 l 257 600 b 294 560 278 578 269 590 l 335 513 b 378 482 354 490 367 478 b 401 479 386 485 399 479 b 407 478 401 479 404 478 b 415 481 410 478 413 481 b 425 478 419 481 421 475 z "},"ë":{"ha":479,"x_min":0,"x_max":0,"o":"m 472 235 b 471 282 483 236 475 271 b 447 328 463 303 454 318 b 276 403 399 397 335 406 b 101 300 197 400 150 381 b 94 96 65 240 72 144 b 263 -8 129 22 213 -1 b 375 -1 296 -12 351 -7 b 432 18 396 3 415 10 b 460 33 438 21 453 28 b 478 65 475 44 481 57 b 465 68 475 72 465 68 b 263 56 374 19 328 21 b 183 232 185 97 186 172 l 208 233 l 294 233 b 314 233 297 233 313 233 l 376 233 b 472 235 414 233 424 228 z m 219 264 l 189 264 b 233 365 192 308 192 342 b 313 365 254 376 286 378 b 357 308 333 356 353 336 b 351 272 360 296 365 285 b 219 264 331 256 239 264 z m 164 613 b 125 536 128 597 119 563 b 161 492 129 514 144 499 b 219 499 182 483 203 489 b 249 551 240 513 249 531 b 219 610 247 576 236 599 b 164 613 203 621 182 619 z m 354 613 b 314 533 318 596 306 561 b 354 490 321 508 340 496 b 413 501 375 483 397 490 b 439 554 432 514 440 533 b 407 610 438 582 422 600 b 354 613 393 618 368 619 z "},"í":{"ha":338,"x_min":0,"x_max":0,"o":"m 244 396 b 79 328 189 382 132 357 b 78 318 79 328 75 322 b 113 319 85 310 107 318 b 144 326 114 319 136 329 b 153 317 150 325 153 317 b 153 282 153 306 153 293 l 153 174 b 151 71 153 154 154 88 b 125 28 147 49 150 36 b 74 15 103 21 78 28 b 75 4 72 11 72 8 b 119 0 81 -4 108 0 l 292 0 b 335 7 306 0 328 -1 b 335 25 339 11 339 19 b 297 32 328 35 307 32 b 264 33 292 32 268 32 b 251 157 243 47 251 140 l 254 332 b 254 353 254 339 254 346 l 254 372 b 244 396 254 389 254 399 z m 307 668 b 229 671 286 671 250 679 b 197 635 201 663 207 660 l 179 588 b 132 496 158 533 156 551 l 121 469 b 149 475 129 460 142 469 b 176 497 160 482 165 488 b 232 551 183 503 199 517 b 307 668 292 617 331 665 z "},"ì":{"ha":338,"x_min":0,"x_max":0,"o":"m 244 396 b 79 328 189 382 132 357 b 78 318 79 328 75 322 b 113 319 85 310 107 318 b 144 326 114 319 136 329 b 153 317 150 325 153 317 b 153 282 153 306 153 293 l 153 174 b 151 71 153 154 154 88 b 125 28 147 49 150 36 b 74 15 103 21 78 28 b 75 4 72 11 72 8 b 119 0 81 -4 108 0 l 292 0 b 335 7 306 0 328 -1 b 335 25 339 11 339 19 b 297 32 328 35 307 32 b 264 33 292 32 268 32 b 251 157 243 47 251 140 l 254 332 b 254 353 254 339 254 346 l 254 372 b 244 396 254 389 254 399 z m 75 653 b 74 621 65 646 63 633 b 97 592 83 610 92 600 b 153 532 119 567 140 544 b 210 481 169 514 194 492 b 240 458 221 471 233 463 b 269 461 261 447 274 453 b 217 544 264 471 221 538 b 194 588 203 569 206 561 b 178 626 190 600 182 615 b 158 650 172 640 167 650 b 142 651 149 651 150 651 b 129 653 136 651 136 653 l 101 653 l 88 653 z "},"î":{"ha":338,"x_min":0,"x_max":0,"o":"m 244 396 b 79 328 189 382 132 357 b 78 318 79 328 75 322 b 113 319 85 310 107 318 b 144 326 114 319 136 329 b 153 317 150 325 153 317 b 153 282 153 306 153 293 l 153 174 b 151 71 153 154 154 88 b 125 28 147 49 150 36 b 74 15 103 21 78 28 b 75 4 72 11 72 8 b 119 0 81 -4 108 0 l 292 0 b 335 7 306 0 328 -1 b 335 25 339 11 339 19 b 297 32 328 35 307 32 b 264 33 292 32 268 32 b 251 157 243 47 251 140 l 254 332 b 254 353 254 339 254 346 l 254 372 b 244 396 254 389 254 399 z m 357 478 b 360 483 360 479 360 483 l 357 489 l 351 496 l 347 501 l 335 521 b 272 608 299 578 303 557 b 213 686 246 651 233 683 b 107 568 183 689 119 585 l 72 522 b 63 483 60 507 46 492 b 94 494 72 481 89 489 b 121 522 99 499 114 514 b 169 583 139 544 151 560 l 188 600 b 226 560 210 578 201 590 l 267 513 b 310 482 285 490 297 478 b 333 479 318 485 331 479 b 339 478 333 479 336 478 b 347 481 342 478 344 481 b 357 478 351 481 353 475 z "},"ï":{"ha":338,"x_min":0,"x_max":0,"o":"m 244 396 b 79 328 189 382 132 357 b 78 318 79 328 75 322 b 113 319 85 310 107 318 b 144 326 114 319 136 329 b 153 317 150 325 153 317 b 153 282 153 306 153 293 l 153 174 b 151 71 153 154 154 88 b 125 28 147 49 150 36 b 74 15 103 21 78 28 b 75 4 72 11 72 8 b 119 0 81 -4 108 0 l 292 0 b 335 7 306 0 328 -1 b 335 25 339 11 339 19 b 297 32 328 35 307 32 b 264 33 292 32 268 32 b 251 157 243 47 251 140 l 254 332 b 254 353 254 339 254 346 l 254 372 b 244 396 254 389 254 399 z m 82 613 b 43 536 46 597 38 563 b 79 492 47 514 61 499 b 138 499 100 483 121 489 b 165 551 158 513 165 531 b 138 610 164 576 154 599 b 82 613 121 621 100 619 z m 271 613 b 232 533 236 596 224 561 b 271 490 239 508 258 496 b 331 501 293 483 315 490 b 357 554 350 514 358 533 b 325 610 356 582 340 600 b 271 613 311 618 285 619 z "},"ñ":{"ha":635,"x_min":0,"x_max":0,"o":"m 267 319 b 269 365 265 328 269 358 b 254 401 268 381 274 390 b 89 335 225 417 115 350 b 86 325 89 335 83 331 b 106 322 89 318 100 321 l 119 326 l 143 333 l 150 333 b 158 300 160 326 157 308 b 158 264 160 282 158 267 l 158 175 b 133 33 158 153 158 49 b 79 21 126 29 85 25 b 79 0 74 17 69 7 b 200 3 83 -3 154 3 b 251 0 219 3 246 0 l 290 0 b 332 13 331 0 331 1 b 324 22 333 21 326 21 b 289 26 317 25 297 26 b 260 49 271 26 264 33 b 263 276 257 60 256 265 b 390 353 278 303 367 351 b 433 329 411 354 417 354 b 444 56 463 286 450 74 b 417 29 444 35 435 29 b 374 13 403 29 374 28 b 382 0 374 7 374 0 b 624 0 408 0 535 4 b 635 8 632 0 635 4 b 603 24 636 21 617 24 l 575 26 l 568 29 b 560 164 549 38 560 151 l 560 206 b 499 382 560 288 592 333 b 267 319 414 425 349 390 z m 514 618 b 479 588 504 618 493 601 b 438 571 465 576 454 572 b 283 613 425 571 324 622 b 225 567 264 608 243 588 b 208 536 218 558 213 547 b 203 503 204 525 199 511 b 217 503 206 497 213 499 b 253 543 224 510 240 538 b 400 507 290 563 339 513 b 521 610 461 503 490 549 b 514 618 525 617 517 618 z "},"ó":{"ha":564,"x_min":0,"x_max":0,"o":"m 276 403 b 189 372 249 397 213 386 b 75 203 122 332 76 269 b 171 19 72 135 103 68 b 415 0 247 -33 353 -25 b 560 156 471 22 550 103 b 503 339 568 200 556 288 b 276 403 447 392 329 413 z m 196 226 b 267 367 197 269 210 346 b 382 350 293 376 349 375 b 446 146 442 303 449 175 b 382 31 442 110 432 54 b 275 43 349 15 307 21 b 196 226 207 89 193 163 z m 451 664 b 374 667 431 667 393 675 b 342 631 346 658 351 656 l 324 585 b 275 492 301 529 303 546 l 265 465 b 292 471 272 456 285 465 b 321 493 304 479 310 483 b 375 547 328 499 343 513 b 451 664 436 613 475 661 z "},"ò":{"ha":564,"x_min":0,"x_max":0,"o":"m 276 403 b 189 372 249 397 213 386 b 75 203 122 332 76 269 b 171 19 72 135 103 68 b 415 0 247 -33 353 -25 b 560 156 471 22 550 103 b 503 339 568 200 556 288 b 276 403 447 392 329 413 z m 196 226 b 267 367 197 269 210 346 b 382 350 293 376 349 375 b 446 146 442 303 449 175 b 382 31 442 110 432 54 b 275 43 349 15 307 21 b 196 226 207 89 193 163 z m 171 653 b 169 621 161 646 160 633 b 193 592 179 610 188 600 b 249 532 215 567 236 544 b 306 481 267 514 290 492 b 336 458 317 471 329 463 b 367 461 357 447 371 453 b 313 544 360 471 317 538 b 290 588 299 569 301 561 b 274 626 286 600 278 615 b 254 650 268 640 264 650 b 238 651 244 651 246 651 b 225 653 232 651 232 653 l 197 653 l 183 653 z "},"ô":{"ha":564,"x_min":0,"x_max":0,"o":"m 276 403 b 189 372 249 397 213 386 b 75 203 122 332 76 269 b 171 19 72 135 103 68 b 415 0 247 -33 353 -25 b 560 156 471 22 550 103 b 503 339 568 200 556 288 b 276 403 447 392 329 413 z m 196 226 b 267 367 197 269 210 346 b 382 350 293 376 349 375 b 446 146 442 303 449 175 b 382 31 442 110 432 54 b 275 43 349 15 307 21 b 196 226 207 89 193 163 z m 467 478 b 469 483 469 479 469 483 l 467 489 l 461 496 l 457 501 l 444 521 b 382 608 408 578 413 557 b 322 686 356 651 343 683 b 217 568 293 689 229 585 l 182 522 b 172 483 169 507 156 492 b 204 494 182 481 199 489 b 231 522 208 499 224 514 b 279 583 249 544 261 560 l 297 600 b 336 560 319 578 311 590 l 375 513 b 419 482 396 492 407 478 b 443 479 428 485 440 479 b 449 478 443 479 446 478 b 457 481 451 478 454 481 b 467 478 461 481 463 475 z "},"ö":{"ha":564,"x_min":0,"x_max":0,"o":"m 276 403 b 189 372 249 397 213 386 b 75 203 122 332 76 269 b 171 19 72 135 103 68 b 415 0 247 -33 353 -25 b 560 156 471 22 550 103 b 503 339 568 200 556 288 b 276 403 447 392 329 413 z m 196 226 b 267 367 197 269 210 346 b 382 350 293 376 349 375 b 446 146 442 303 449 175 b 382 31 442 110 432 54 b 275 43 349 15 307 21 b 196 226 207 89 193 163 z m 206 613 b 165 536 168 597 160 563 b 203 492 169 514 185 499 b 261 499 224 483 244 489 b 289 551 281 513 289 531 b 261 610 288 576 276 599 b 206 613 244 621 224 619 z m 394 613 b 356 533 360 596 347 561 b 394 490 363 508 381 496 b 454 501 417 483 439 490 b 481 554 474 514 481 533 b 449 610 479 582 464 600 b 394 613 435 618 408 619 z "},"õ":{"ha":564,"x_min":0,"x_max":0,"o":"m 276 403 b 189 372 249 397 213 386 b 75 203 122 332 76 269 b 171 19 72 135 103 68 b 415 0 247 -33 353 -25 b 560 156 471 22 550 103 b 503 339 568 200 556 288 b 276 403 447 392 329 413 z m 196 226 b 267 367 197 269 210 346 b 382 350 293 376 349 375 b 446 146 442 303 449 175 b 382 31 442 110 432 54 b 275 43 349 15 307 21 b 196 226 207 89 193 163 z m 474 618 b 438 588 464 618 453 601 b 396 571 424 576 413 572 b 243 613 383 571 282 622 b 183 567 222 608 201 588 b 167 536 176 558 171 547 b 161 503 163 525 158 511 b 175 503 164 497 171 499 b 211 543 182 510 199 538 b 360 507 250 563 297 513 b 481 610 419 503 450 549 b 474 618 483 617 476 618 z "},"ú":{"ha":596,"x_min":0,"x_max":0,"o":"m 529 386 b 489 396 531 396 499 399 b 447 382 474 394 460 389 b 421 289 406 357 421 326 l 421 242 b 354 42 421 167 442 99 b 275 39 328 25 296 26 b 242 210 225 68 242 178 l 242 285 b 235 392 242 304 258 378 b 75 333 199 415 107 356 b 75 321 69 329 68 321 b 106 329 82 321 99 325 b 138 338 115 335 135 347 b 143 231 146 279 143 288 l 143 178 b 165 14 142 165 128 54 b 294 -14 199 -21 253 -17 b 415 69 353 -11 378 19 b 415 46 418 61 415 46 b 415 25 415 33 415 28 b 435 -12 417 6 413 0 b 596 57 474 -33 563 32 b 593 68 596 57 599 64 b 564 58 586 74 575 63 l 529 46 b 522 164 522 92 522 118 l 522 226 b 526 317 522 233 526 317 b 529 358 526 328 529 350 z m 472 651 b 393 654 451 654 414 661 b 363 618 367 644 372 643 l 344 572 b 296 481 322 517 324 533 l 285 453 b 313 458 293 443 306 453 b 342 481 325 467 331 472 b 396 535 349 486 364 500 b 472 651 457 600 494 649 z "},"ù":{"ha":596,"x_min":0,"x_max":0,"o":"m 529 386 b 489 396 531 396 499 399 b 447 382 474 394 460 389 b 421 289 406 357 421 326 l 421 242 b 354 42 421 167 442 99 b 275 39 328 25 296 26 b 242 210 225 68 242 178 l 242 285 b 235 392 242 304 258 378 b 75 333 199 415 107 356 b 75 321 69 329 68 321 b 106 329 82 321 99 325 b 138 338 115 335 135 347 b 143 231 146 279 143 288 l 143 178 b 165 14 142 165 128 54 b 294 -14 199 -21 253 -17 b 415 69 353 -11 378 19 b 415 46 418 61 415 46 b 415 25 415 33 415 28 b 435 -12 417 6 413 0 b 596 57 474 -33 563 32 b 593 68 596 57 599 64 b 564 58 586 74 575 63 l 529 46 b 522 164 522 92 522 118 l 522 226 b 526 317 522 233 526 317 b 529 358 526 328 529 350 z m 171 653 b 169 621 161 646 160 633 b 193 592 179 610 188 600 b 249 532 215 567 236 544 b 306 481 267 514 290 492 b 336 458 317 471 329 463 b 367 461 357 447 371 453 b 313 544 360 471 317 538 b 290 588 299 569 301 561 b 274 626 286 600 278 615 b 254 650 268 640 264 650 b 238 651 244 651 246 651 b 225 653 232 651 232 653 l 197 653 l 183 653 z "},"û":{"ha":596,"x_min":0,"x_max":0,"o":"m 529 386 b 489 396 531 396 499 399 b 447 382 474 394 460 389 b 421 289 406 357 421 326 l 421 242 b 354 42 421 167 442 99 b 275 39 328 25 296 26 b 242 210 225 68 242 178 l 242 285 b 235 392 242 304 258 378 b 75 333 199 415 107 356 b 75 321 69 329 68 321 b 106 329 82 321 99 325 b 138 338 115 335 135 347 b 143 231 146 279 143 288 l 143 178 b 165 14 142 165 128 54 b 294 -14 199 -21 253 -17 b 415 69 353 -11 378 19 b 415 46 418 61 415 46 b 415 25 415 33 415 28 b 435 -12 417 6 413 0 b 596 57 474 -33 563 32 b 593 68 596 57 599 64 b 564 58 586 74 575 63 l 529 46 b 522 164 522 92 522 118 l 522 226 b 526 317 522 233 526 317 b 529 358 526 328 529 350 z m 481 478 b 482 483 482 479 482 483 l 481 489 l 475 496 l 471 501 l 458 521 b 396 608 422 578 426 557 b 336 686 369 651 357 683 b 231 568 307 689 243 585 l 196 522 b 186 483 183 507 168 492 b 218 494 196 481 213 489 b 244 522 222 499 238 514 b 293 583 263 544 274 560 l 311 600 b 350 560 333 578 325 590 l 389 513 b 433 482 410 492 421 478 b 457 479 442 485 454 479 b 463 478 457 479 460 478 b 471 481 465 478 468 481 b 481 478 475 481 476 475 z "},"ü":{"ha":596,"x_min":0,"x_max":0,"o":"m 529 386 b 489 396 531 396 499 399 b 447 382 474 394 460 389 b 421 289 406 357 421 326 l 421 242 b 354 42 421 167 442 99 b 275 39 328 25 296 26 b 242 210 225 68 242 178 l 242 285 b 235 392 242 304 258 378 b 75 333 199 415 107 356 b 75 321 69 329 68 321 b 106 329 82 321 99 325 b 138 338 115 335 135 347 b 143 231 146 279 143 288 l 143 178 b 165 14 142 165 128 54 b 294 -14 199 -21 253 -17 b 415 69 353 -11 378 19 b 415 46 418 61 415 46 b 415 25 415 33 415 28 b 435 -12 417 6 413 0 b 596 57 474 -33 563 32 b 593 68 596 57 599 64 b 564 58 586 74 575 63 l 529 46 b 522 164 522 92 522 118 l 522 226 b 526 317 522 233 526 317 b 529 358 526 328 529 350 z m 206 613 b 165 536 168 597 160 563 b 203 492 169 514 185 499 b 261 499 224 483 244 489 b 289 551 281 513 289 531 b 261 610 288 576 276 599 b 206 613 244 621 224 619 z m 394 613 b 356 533 360 596 347 561 b 394 490 363 508 381 496 b 454 501 417 483 439 490 b 481 554 474 514 481 533 b 449 610 479 582 464 600 b 394 613 435 618 408 619 z "},"†":{"ha":685,"x_min":0,"x_max":0,"o":"m 407 617 b 413 703 407 671 411 693 l 433 806 b 446 964 447 876 472 925 b 389 992 433 983 411 992 b 326 967 364 993 340 983 b 338 792 293 924 333 810 l 350 738 b 368 621 361 690 364 668 b 279 629 310 618 338 617 l 254 629 b 103 642 240 632 135 668 b 81 585 83 626 76 606 b 129 533 86 557 108 540 b 246 556 165 519 210 543 b 363 575 296 572 314 576 b 367 535 367 569 367 539 b 364 496 367 529 365 518 l 350 346 b 344 308 347 338 344 319 b 339 272 344 308 339 292 l 339 176 b 331 69 339 150 338 126 l 324 14 b 346 -175 319 -14 293 -136 b 418 -181 369 -192 400 -190 b 446 21 471 -149 449 -12 l 401 571 b 451 572 406 576 447 574 b 501 561 464 571 479 568 b 654 540 556 546 614 514 b 689 593 676 554 689 576 b 663 646 690 614 679 633 b 506 625 628 675 539 633 l 486 625 b 407 617 453 619 438 617 z "},"°":{"ha":460,"x_min":0,"x_max":0,"o":"m 271 1071 b 75 864 161 1069 74 974 b 285 667 78 751 174 664 b 481 874 397 671 482 763 b 271 1071 479 985 383 1074 z m 106 864 b 271 1042 103 958 176 1039 b 453 874 369 1044 451 971 b 285 694 454 779 379 696 b 106 864 190 693 108 768 z "},"¢":{"ha":471,"x_min":0,"x_max":0,"o":"m 276 475 b 272 439 271 467 272 443 l 272 403 b 89 258 185 386 124 353 b 103 82 68 201 68 136 b 274 -8 160 -4 196 -6 b 275 -53 275 -15 275 -47 b 285 -96 275 -67 275 -89 b 306 -87 290 -100 304 -97 b 307 -46 308 -71 307 -58 b 307 -7 307 -33 307 -19 b 394 25 307 -7 349 1 b 453 74 425 40 453 74 b 456 85 453 74 457 81 b 418 72 450 99 435 81 l 382 54 b 308 49 363 47 346 47 l 308 210 l 308 367 b 339 357 308 367 326 365 b 364 328 351 349 357 338 b 417 278 392 293 399 282 b 461 292 436 274 453 282 b 467 333 472 304 474 318 b 310 401 443 386 349 397 b 310 440 306 407 311 433 b 293 481 307 463 310 481 b 276 475 288 481 281 481 z m 257 364 b 275 367 264 367 275 367 l 275 140 l 274 63 l 274 54 b 188 254 174 118 182 172 b 207 326 189 279 194 307 b 239 357 215 339 224 350 b 257 364 244 360 254 363 z "},"£":{"ha":779,"x_min":0,"x_max":0,"o":"m 444 444 b 393 596 436 453 393 596 b 383 869 353 713 322 782 b 547 950 426 931 497 953 b 625 911 581 949 613 936 b 625 857 633 894 625 874 b 632 806 624 829 626 817 b 683 768 646 779 665 769 b 733 792 707 767 724 776 b 731 875 747 810 744 844 b 567 989 694 958 633 981 b 279 881 469 1003 364 983 b 263 439 168 744 213 588 b 229 435 257 433 233 435 b 197 436 222 435 217 435 b 165 439 185 438 178 440 b 129 417 143 438 131 432 b 138 403 128 406 138 403 b 247 399 185 393 200 399 l 279 399 b 325 207 311 318 331 279 b 321 200 325 204 325 201 b 299 208 314 197 306 206 b 272 215 296 210 283 215 b 107 182 211 229 153 229 b 75 63 74 147 67 94 b 153 -17 85 21 115 -6 b 354 64 224 -39 276 -4 b 488 -17 411 18 443 -7 b 689 31 546 -31 638 -12 b 756 125 718 54 742 90 b 771 174 764 146 769 167 b 768 219 775 190 778 218 b 753 200 754 219 753 203 b 743 174 750 189 746 181 b 703 125 732 150 721 138 b 413 176 631 75 489 135 b 456 401 464 283 463 300 l 486 401 b 611 408 496 401 576 401 b 622 422 615 410 622 411 b 611 436 622 433 615 435 b 563 440 600 440 571 440 l 522 442 b 490 440 511 442 500 440 l 467 440 b 444 444 460 440 450 439 z m 114 68 b 147 150 107 93 113 129 b 253 143 174 165 214 161 b 296 107 279 131 294 118 b 246 42 296 96 276 68 b 161 17 215 15 188 8 b 114 68 142 22 121 40 z "},"§":{"ha":604,"x_min":0,"x_max":0,"o":"m 510 199 b 617 394 581 253 618 343 b 422 631 614 499 517 578 l 372 658 b 215 799 286 706 231 719 b 257 924 208 839 219 888 b 388 956 299 964 349 965 b 476 893 425 947 465 924 b 457 803 489 858 456 833 b 490 749 457 778 474 760 b 547 744 514 736 533 738 b 585 806 572 758 583 786 b 508 944 588 844 557 907 b 274 974 438 999 347 1000 b 133 828 193 946 149 894 b 208 610 113 739 135 688 b 89 401 104 536 78 493 b 268 199 103 299 178 233 l 297 188 b 488 36 381 156 463 125 b 458 -103 497 -1 490 -69 b 297 -137 418 -144 319 -143 b 235 -86 267 -129 240 -108 l 243 -29 b 226 26 242 -7 235 14 b 164 56 210 51 185 57 b 107 11 138 53 117 33 b 133 -100 93 -22 106 -62 b 354 -182 197 -185 289 -190 b 567 -31 446 -171 522 -133 b 510 199 599 44 564 128 z m 193 536 b 244 585 206 553 228 569 l 300 556 b 546 351 400 503 538 460 b 479 222 549 315 529 271 l 447 240 b 414 258 428 249 418 256 l 382 272 b 168 442 314 301 196 346 b 193 536 160 472 168 507 z "},"•":{"ha":219,"x_min":0,"x_max":0,"o":"m 135 521 b 76 432 93 507 72 468 b 124 364 81 400 100 376 b 200 365 146 351 176 353 b 246 433 231 382 244 411 b 213 506 249 461 236 488 b 135 521 188 526 158 528 z "},"¶":{"ha":674,"x_min":0,"x_max":0,"o":"m 674 988 l 422 988 b 113 869 338 988 193 997 b 108 572 64 792 68 649 b 351 447 163 471 272 451 l 351 -124 l 397 -124 l 397 954 l 533 954 l 533 -124 l 576 -124 l 576 954 l 674 954 z "},"ß":{"ha":574,"x_min":0,"x_max":0,"o":"m 415 875 b 444 871 431 871 428 871 b 471 875 454 871 463 872 b 497 908 485 881 496 894 b 457 974 499 933 482 957 b 328 969 421 996 364 989 b 157 549 168 883 157 654 l 157 149 b 153 57 157 103 154 60 b 115 26 142 28 139 35 b 75 8 97 21 75 24 b 85 0 75 1 82 0 b 296 0 104 -1 296 0 b 343 6 319 0 342 -3 b 338 18 344 11 343 15 b 271 44 315 31 283 29 b 265 288 253 67 257 265 b 344 353 281 326 317 347 b 433 328 374 358 408 354 b 451 260 453 307 457 282 b 404 213 444 238 428 222 b 375 203 390 206 386 207 b 343 185 360 199 344 199 b 351 171 342 171 351 171 b 425 165 386 175 406 176 b 458 56 460 144 458 83 b 392 -96 458 0 450 -58 b 303 -131 369 -111 329 -125 b 258 -137 294 -132 265 -136 b 232 -164 232 -143 215 -160 b 532 -50 311 -169 457 -139 b 568 119 576 4 582 71 b 464 201 554 169 507 189 b 521 228 492 211 506 215 b 556 310 551 253 558 283 b 504 382 553 342 536 365 b 267 350 424 422 346 394 b 263 382 265 357 263 374 b 260 414 261 388 261 401 l 271 772 b 308 924 271 788 268 892 b 363 938 328 939 349 940 b 396 913 382 933 386 931 b 415 875 401 904 403 888 z "},"®":{"ha":1029,"x_min":0,"x_max":0,"o":"m 492 926 b 336 879 442 921 383 903 b 81 510 168 793 97 647 b 251 89 65 379 106 211 b 696 1 386 -24 572 -36 b 1013 319 863 53 965 160 b 917 763 1051 456 1032 626 b 492 926 794 906 610 942 z m 351 829 b 479 874 393 853 443 867 b 863 744 588 893 747 868 b 967 353 968 633 997 476 b 696 57 933 219 846 110 b 296 118 579 17 411 29 b 132 483 163 219 122 364 b 351 829 142 613 203 747 z m 285 743 l 285 710 b 357 701 331 710 347 707 b 378 581 386 685 378 604 l 378 346 b 371 231 378 332 378 240 b 283 214 354 214 314 214 l 283 179 l 567 179 l 567 213 b 490 222 519 215 503 214 b 472 289 469 238 472 260 l 472 357 l 472 446 b 553 444 510 446 518 451 b 629 376 592 436 617 411 b 674 189 642 338 626 226 b 790 178 701 167 754 164 b 861 313 850 203 857 267 l 829 313 b 799 219 825 278 822 236 b 768 215 785 211 775 211 b 740 282 749 224 746 253 b 603 457 722 369 692 417 b 779 551 658 467 743 482 b 775 656 794 581 793 625 b 503 743 722 743 568 743 z m 638 504 b 472 483 607 479 536 483 l 472 556 b 496 699 472 582 465 683 b 617 696 519 715 588 711 b 675 615 650 683 671 656 b 638 504 679 585 676 535 z "},"©":{"ha":1025,"x_min":0,"x_max":0,"o":"m 486 926 b 329 876 442 921 381 903 b 79 508 163 789 93 638 b 253 88 64 379 104 211 b 697 6 383 -21 571 -33 b 1010 322 865 58 965 169 b 908 768 1047 456 1019 640 b 486 926 788 910 600 942 z m 353 831 b 476 874 394 853 443 868 b 863 742 588 893 744 869 b 963 350 968 628 993 468 b 693 56 929 215 839 106 b 290 121 576 17 411 26 b 128 489 160 224 117 372 b 353 831 139 611 200 749 z m 736 761 b 701 717 731 739 733 718 b 614 756 696 717 650 744 b 528 769 583 765 547 771 b 300 614 440 763 351 714 b 313 300 253 524 257 392 b 536 168 367 210 456 169 b 781 321 643 167 707 203 l 753 336 b 629 222 711 271 685 244 b 472 238 583 204 511 211 b 381 474 396 290 381 421 b 474 713 382 550 397 661 b 610 724 518 742 568 740 b 740 529 694 690 726 592 l 765 529 l 765 761 z "},"™":{"ha":997,"x_min":0,"x_max":0,"o":"m 731 615 l 629 835 b 531 881 596 906 607 881 b 476 881 531 881 479 882 b 474 874 474 879 472 876 b 492 868 476 868 488 868 b 508 865 499 868 503 867 b 542 850 522 863 532 857 b 558 778 572 826 563 806 l 532 590 b 511 528 529 568 524 544 b 481 508 501 517 493 511 l 465 506 b 451 501 460 506 454 506 b 450 497 450 500 449 499 b 454 494 450 493 454 494 l 601 494 b 625 494 606 494 622 494 b 622 508 633 496 631 508 b 604 511 617 511 610 510 b 569 521 585 514 578 514 b 560 590 550 536 558 585 l 582 776 b 585 790 583 785 583 782 b 590 778 586 788 589 779 l 700 531 b 711 510 700 525 707 513 l 714 510 b 724 525 719 513 722 521 l 810 767 b 815 753 810 765 814 754 l 860 569 b 864 515 861 560 874 525 b 831 508 860 510 840 510 b 813 508 825 508 818 508 b 799 503 813 508 800 507 b 807 494 799 497 799 496 b 824 494 811 493 821 494 b 997 494 824 494 963 494 b 1001 503 1003 494 1004 499 b 989 506 1000 507 996 506 b 976 507 985 506 979 507 b 951 511 965 508 957 510 b 921 572 928 522 924 558 l 869 801 b 867 850 865 819 865 829 l 890 860 b 908 865 890 860 907 865 l 922 868 b 938 879 931 871 939 872 b 918 882 936 885 929 883 l 908 882 b 865 879 883 879 886 879 b 824 882 839 879 824 883 b 801 828 810 876 801 836 z m 122 875 b 114 889 119 876 115 888 b 97 893 108 896 103 896 b 82 831 88 886 82 836 l 79 811 b 76 793 79 811 76 799 b 82 792 75 789 79 789 b 133 850 93 806 108 839 b 217 854 140 854 208 858 b 224 804 226 849 224 811 l 224 575 b 210 515 224 564 224 526 b 158 508 199 504 174 514 b 147 504 158 508 150 507 b 146 497 146 503 146 500 b 150 492 146 494 149 493 b 171 492 154 490 164 492 l 310 492 b 361 493 318 492 358 492 b 364 501 364 494 365 497 b 354 508 364 508 358 508 b 306 511 343 511 314 507 b 289 585 286 525 289 579 l 289 821 l 292 839 b 296 857 292 843 292 854 b 390 850 322 860 369 858 b 439 785 422 836 428 804 b 444 786 440 782 444 782 b 446 803 444 789 446 803 l 446 836 b 444 889 446 840 447 885 b 435 892 443 892 440 893 b 421 882 429 892 426 886 b 404 879 414 878 410 879 b 375 879 392 878 392 879 z "},"´":{"ha":264,"x_min":0,"x_max":0,"o":"m 263 717 b 183 719 242 719 204 726 b 153 685 157 710 163 708 l 135 638 b 86 546 114 583 114 599 l 75 518 b 103 524 83 508 96 518 b 132 547 115 532 121 538 b 186 600 139 553 154 567 b 263 717 247 667 285 714 z "},"¨":{"ha":390,"x_min":0,"x_max":0,"o":"m 115 719 b 75 643 78 704 69 669 b 113 599 79 621 94 606 b 169 606 133 590 154 596 b 199 658 190 619 199 638 b 169 717 197 683 186 706 b 115 719 154 728 133 726 z m 304 719 b 265 640 268 703 258 668 b 304 597 272 615 290 603 b 364 608 326 590 349 597 b 389 661 382 621 390 640 b 358 717 388 689 374 707 b 304 719 344 725 318 726 z "},"≠":{"ha":765,"x_min":0,"x_max":0,"o":"m 669 724 l 600 763 l 475 535 l 64 535 l 64 458 l 432 458 l 325 267 l 64 267 l 64 189 l 281 189 l 178 4 l 247 -36 l 372 189 l 793 189 l 793 267 l 414 267 l 522 458 l 793 458 l 793 535 l 564 535 z "},"Æ":{"ha":268,"x_min":0,"x_max":0,"o":""},"Ø":{"ha":1161,"x_min":0,"x_max":0,"o":"m 969 874 b 403 951 790 994 581 1021 b 85 590 226 883 118 740 b 221 118 50 439 72 276 l 164 61 b 142 32 158 53 144 40 b 154 7 142 15 143 14 l 167 7 l 258 88 b 763 -7 428 -29 600 -54 b 1143 354 942 46 1090 161 b 1004 843 1178 479 1144 697 b 1047 889 1018 861 1031 872 b 1072 932 1067 915 1072 911 b 1049 944 1067 944 1061 949 b 1021 924 1040 942 1029 931 b 969 874 1000 906 993 896 z m 549 939 b 878 782 663 953 771 921 l 324 219 b 321 761 256 368 236 613 b 549 939 379 864 442 926 z m 346 178 l 901 740 b 897 189 978 585 997 346 b 606 17 818 64 704 15 b 346 178 511 17 435 63 z "},"∞":{"ha":624,"x_min":0,"x_max":0,"o":"m 300 382 b 257 389 293 393 271 390 l 211 385 b 118 388 178 382 142 386 l 51 390 b 4 388 35 390 18 390 b 1 367 -11 385 -11 371 b 174 233 106 336 97 368 l 239 118 b 246 -133 325 -33 321 28 l 218 -193 l 189 -246 l 156 -303 b 119 -353 154 -306 133 -344 b 101 -354 114 -353 108 -354 b 86 -354 100 -354 86 -354 l 54 -358 b 19 -364 43 -360 29 -360 b 4 -385 4 -364 1 -375 b 47 -392 7 -397 32 -393 b 89 -389 47 -392 85 -386 b 104 -410 96 -394 104 -410 b 319 -386 185 -385 239 -386 b 329 -374 319 -386 328 -382 b 314 -356 332 -362 325 -358 b 285 -353 308 -354 292 -353 l 229 -353 b 197 -347 229 -353 199 -354 b 264 -190 196 -340 238 -240 l 322 -82 b 365 7 347 -35 344 -40 l 469 240 b 526 339 493 292 506 314 b 571 354 542 357 546 353 b 618 361 592 354 596 353 l 622 367 b 601 390 629 386 613 390 l 569 389 b 504 386 569 389 529 386 b 422 389 474 386 422 389 b 389 376 404 389 392 390 b 408 351 386 360 397 354 b 443 350 415 350 438 350 b 378 144 451 282 413 214 l 365 119 l 233 347 b 243 354 233 347 238 353 b 275 354 253 357 275 354 b 303 365 292 354 299 357 b 300 382 306 371 304 376 z m 476 676 b 397 679 456 679 418 686 b 367 643 371 669 376 668 l 349 596 b 300 504 328 542 324 560 l 289 478 b 317 482 297 468 310 478 b 346 506 329 490 335 496 b 400 560 353 511 368 525 b 476 676 461 625 499 674 z "},"±":{"ha":890,"x_min":0,"x_max":0,"o":"m 456 818 l 456 589 l 76 589 l 76 522 l 454 522 l 454 292 l 517 292 l 517 521 l 890 521 l 890 589 l 517 589 l 517 818 z m 79 143 l 79 75 l 890 75 l 890 143 z "},"≤":{"ha":763,"x_min":0,"x_max":0,"o":"m 78 76 l 78 0 l 769 0 l 769 76 z m 78 569 l 78 481 l 769 161 l 769 250 l 168 525 l 769 801 l 769 888 z "},"≥":{"ha":763,"x_min":0,"x_max":0,"o":"m 769 0 l 769 76 l 78 76 l 78 0 z m 769 481 l 769 569 l 78 888 l 78 801 l 681 525 l 78 250 l 78 161 z "},"¥":{"ha":1071,"x_min":0,"x_max":0,"o":"m 669 144 b 669 251 665 186 669 251 l 1031 251 l 1031 296 l 669 296 l 669 386 l 669 386 b 669 386 669 386 668 360 b 682 444 672 404 682 444 l 1031 444 l 1031 444 l 1031 489 l 694 489 b 694 489 694 489 692 483 b 843 757 724 571 790 683 l 896 831 b 1103 936 964 926 981 918 b 1110 956 1111 938 1115 947 b 1056 967 1103 968 1071 967 l 744 967 b 701 963 735 967 711 969 b 696 932 690 954 690 942 b 719 925 700 925 719 925 l 801 918 b 825 914 806 918 818 917 l 832 908 b 719 649 829 833 740 682 l 632 514 b 606 553 622 526 615 539 l 492 757 b 435 907 481 778 421 888 b 492 919 442 919 461 919 b 550 924 518 919 540 918 b 556 954 560 929 561 946 b 525 963 551 960 539 963 l 418 964 b 375 964 411 964 383 964 l 208 964 b 71 957 194 965 83 969 b 67 933 64 950 63 940 b 117 919 72 925 86 922 b 300 779 247 911 228 908 l 447 517 b 464 485 449 513 457 504 b 464 489 469 476 464 489 l 97 489 l 97 444 b 483 444 97 444 482 449 b 504 386 496 421 499 406 b 504 386 507 361 504 386 l 504 296 l 97 296 l 97 251 l 504 251 b 504 189 504 251 504 218 b 504 144 504 168 504 150 b 485 50 504 110 499 60 b 354 42 467 39 369 43 b 331 10 333 40 322 29 b 363 0 335 -1 356 0 l 733 0 b 810 4 736 0 801 -4 b 807 31 817 11 819 21 b 775 36 799 38 785 35 b 710 42 749 38 736 32 b 681 76 683 50 688 53 b 669 144 676 94 665 118 z "},"µ":{"ha":842,"x_min":0,"x_max":0,"o":"m 111 597 l 81 -92 b 107 -275 81 -93 64 -247 b 168 -276 124 -285 150 -286 b 206 -62 218 -251 207 -97 l 199 125 b 386 -4 261 31 294 -10 b 554 140 490 1 511 38 b 576 79 560 122 567 99 b 685 -4 603 22 638 1 b 806 39 721 -8 772 -1 b 828 226 851 93 844 175 l 814 226 b 803 190 806 218 803 200 b 793 156 799 172 799 169 b 749 89 785 124 774 103 b 665 92 726 76 688 79 b 617 264 606 126 617 260 l 617 596 l 494 596 l 494 338 b 432 96 494 285 504 139 b 301 96 397 75 333 78 b 228 307 204 150 228 229 l 228 597 z "},"μ":{"ha":842,"x_min":0,"x_max":0,"o":"m 111 597 l 81 -92 b 107 -275 81 -93 64 -247 b 168 -276 124 -285 150 -286 b 206 -62 218 -251 207 -97 l 199 125 b 386 -4 261 31 294 -10 b 554 140 490 1 511 38 b 576 79 560 122 567 99 b 685 -4 603 22 638 1 b 806 39 721 -8 772 -1 b 828 226 851 93 844 175 l 814 226 b 803 190 806 218 803 200 b 793 156 799 172 799 169 b 749 89 785 124 774 103 b 665 92 726 76 688 79 b 617 264 606 126 617 260 l 617 596 l 494 596 l 494 338 b 432 96 494 285 504 139 b 301 96 397 75 333 78 b 228 307 204 150 228 229 l 228 597 z "},"∂":{"ha":926,"x_min":0,"x_max":0,"o":"m 788 772 b 703 663 772 764 704 665 l 158 -49 b 79 -175 151 -58 76 -167 b 100 -193 81 -181 93 -192 b 197 -81 122 -194 188 -94 l 742 638 b 825 754 756 656 828 739 b 813 774 824 767 815 772 b 788 772 806 778 799 776 z m 294 428 b 244 436 293 428 244 435 b 229 500 226 446 229 488 l 229 581 b 218 654 229 590 232 646 b 124 622 203 664 138 629 l 67 594 l 67 590 l 72 585 b 89 588 81 585 83 588 l 156 613 b 160 568 157 594 160 586 l 160 532 b 153 444 160 521 163 454 b 97 436 146 438 103 436 b 81 428 89 436 86 433 b 85 414 79 421 83 417 b 167 410 89 410 164 410 l 274 410 b 290 414 279 410 285 414 l 296 419 z m 622 63 l 844 283 b 911 361 860 299 915 347 b 897 375 908 372 903 375 b 819 308 881 379 829 318 l 593 78 b 533 13 590 74 535 17 b 532 6 533 13 531 8 b 542 1 533 -1 542 1 b 607 4 546 -1 604 4 b 639 4 618 4 629 4 b 672 1 643 3 669 1 l 703 1 b 722 1 710 1 715 1 l 765 1 l 765 -51 l 764 -74 l 764 -174 b 768 -194 764 -182 763 -190 b 794 -190 775 -197 786 -192 b 818 -179 797 -187 817 -179 b 832 -112 835 -165 832 -126 l 832 225 b 824 239 832 240 831 243 b 775 197 796 219 783 206 b 764 64 763 164 783 139 l 763 58 l 719 58 b 686 58 708 58 696 58 l 668 58 b 643 61 664 58 646 61 b 622 63 638 61 629 63 z "},"∑":{"ha":850,"x_min":0,"x_max":0,"o":"m 686 58 b 810 168 694 63 803 122 b 786 224 813 189 807 207 b 646 239 753 249 694 253 b 572 183 613 229 581 210 b 581 154 569 169 572 160 b 613 144 588 146 599 143 b 643 167 629 147 638 151 b 643 189 646 172 646 179 b 638 211 642 197 635 203 b 668 229 640 219 654 226 b 717 217 688 233 704 229 b 726 168 731 204 731 185 b 550 24 701 79 613 54 b 557 1 550 15 547 10 b 581 -1 567 -6 572 -3 b 604 1 594 3 590 -3 l 629 3 l 656 3 b 761 7 690 7 729 10 l 767 3 l 767 -7 b 786 -7 772 -10 782 -7 b 794 8 792 -1 792 4 l 800 25 b 814 58 804 36 807 47 l 828 88 b 796 75 817 93 803 83 b 779 64 792 72 789 71 b 764 60 775 63 767 61 b 700 58 754 58 711 58 z m 779 772 b 694 663 764 764 696 665 l 150 -49 b 71 -175 143 -58 68 -167 b 92 -193 72 -181 85 -192 b 189 -81 114 -194 179 -94 l 733 638 b 817 754 747 656 819 739 b 804 774 815 767 807 772 b 779 772 799 778 790 776 z m 286 428 b 236 436 285 428 236 435 b 221 500 218 446 221 488 l 221 581 b 210 654 221 590 224 646 b 115 622 194 664 129 629 l 58 594 l 58 590 l 64 585 b 81 588 72 585 75 588 l 147 613 b 153 568 149 594 153 586 l 153 532 b 144 444 153 521 156 454 b 89 436 138 438 94 436 b 72 428 81 436 78 433 b 76 414 71 421 75 417 b 160 410 81 410 157 410 l 267 410 b 282 414 271 410 276 414 l 288 419 z "},"∫":{"ha":1057,"x_min":0,"x_max":0,"o":"m 404 868 l 168 868 b 149 840 160 868 151 846 b 140 811 149 840 143 821 b 124 772 135 797 124 772 b 122 756 121 764 121 761 b 132 751 124 750 129 750 b 147 768 140 754 144 765 b 160 788 154 779 151 779 b 219 804 176 808 196 806 b 251 804 238 804 243 804 b 282 806 267 804 268 806 l 317 806 l 203 689 b 135 615 193 678 135 624 b 144 603 135 607 140 604 b 174 615 147 603 172 614 b 206 618 182 618 190 618 b 307 569 244 618 283 606 b 307 464 325 543 322 488 b 235 421 288 433 261 421 b 149 481 189 419 176 450 b 110 499 135 494 122 500 b 88 481 99 496 90 488 b 100 439 82 468 88 453 b 254 401 138 400 224 397 b 390 492 313 411 368 439 b 375 604 403 524 399 576 b 207 646 338 646 256 651 l 404 858 b 407 865 404 858 407 861 b 404 868 407 868 404 868 z m 925 772 b 842 663 910 764 843 665 l 296 -49 b 218 -175 289 -58 215 -167 b 239 -193 219 -181 232 -192 b 336 -81 261 -194 326 -94 l 881 638 b 964 754 894 656 967 739 b 951 774 963 767 954 772 b 925 772 944 778 936 776 z m 761 63 l 983 283 b 1050 361 999 299 1054 347 b 1035 375 1047 372 1040 375 b 958 308 1018 379 968 318 l 732 78 b 672 13 729 74 674 17 b 671 6 672 13 669 8 b 681 1 672 -1 681 1 b 746 4 685 -1 743 4 b 778 4 757 4 768 4 b 810 1 782 3 807 1 l 842 1 b 861 1 849 1 854 1 l 904 1 l 904 -51 l 903 -74 l 903 -174 b 907 -194 903 -182 901 -190 b 932 -190 913 -197 924 -192 b 957 -179 935 -187 956 -179 b 971 -112 974 -165 971 -126 l 971 225 b 963 239 971 240 969 243 b 913 197 933 219 921 206 b 903 64 901 164 914 140 l 901 58 l 858 58 b 824 58 847 58 835 58 l 806 58 b 782 61 801 58 785 61 b 761 63 776 61 768 63 z "},"ª":{"ha":246,"x_min":0,"x_max":0,"o":"m 275 658 b 249 678 274 660 250 642 l 247 715 l 247 732 b 231 821 247 750 251 801 b 149 840 208 843 174 846 b 81 796 126 835 89 814 b 83 776 78 788 81 781 b 104 768 88 768 97 767 b 126 789 115 772 122 779 b 146 824 131 800 126 815 b 182 821 160 829 174 826 b 197 751 201 806 197 764 l 183 749 b 68 678 158 743 75 717 b 86 642 67 661 75 649 b 193 669 118 624 157 640 b 219 640 204 650 210 643 b 249 640 226 636 239 636 b 263 647 254 642 260 644 b 275 658 267 649 275 656 z m 136 710 b 196 733 149 722 168 728 b 172 669 196 708 201 689 b 139 660 160 660 149 656 b 124 681 132 663 125 668 b 136 710 122 690 125 700 z "},"º":{"ha":282,"x_min":0,"x_max":0,"o":"m 172 846 b 129 831 160 843 142 839 b 72 746 96 811 72 781 b 121 654 71 711 86 679 b 243 644 158 628 211 632 b 314 722 269 656 310 696 b 286 814 318 744 313 789 b 172 846 258 840 199 851 z m 133 758 b 167 828 133 781 140 817 b 226 819 181 833 208 832 b 258 717 256 797 260 732 b 226 660 256 699 251 672 b 172 667 208 653 188 656 b 133 758 139 690 132 726 z "},"Ω":{"ha":1067,"x_min":0,"x_max":0,"o":"m 494 0 l 475 211 b 308 371 428 231 363 244 b 372 839 263 476 249 715 b 574 910 428 896 503 910 b 775 839 643 910 718 896 b 838 371 899 715 883 476 b 672 211 783 244 718 231 l 651 0 l 1061 0 l 1061 225 l 1039 225 b 947 142 1022 158 1008 142 l 729 142 l 732 178 b 963 331 839 211 907 249 b 986 739 1061 474 1043 636 b 826 894 931 842 865 872 b 574 956 763 932 672 956 b 319 894 475 956 382 932 b 160 739 281 872 215 842 b 183 331 103 636 86 474 b 414 178 240 249 307 211 l 417 142 l 199 142 b 107 225 140 142 122 158 l 86 225 l 86 0 z "},"Ω":{"ha":1067,"x_min":0,"x_max":0,"o":"m 494 0 l 475 211 b 308 371 428 231 363 244 b 372 839 263 476 249 715 b 574 910 428 896 503 910 b 775 839 643 910 718 896 b 838 371 899 715 883 476 b 672 211 783 244 718 231 l 651 0 l 1061 0 l 1061 225 l 1039 225 b 947 142 1022 158 1008 142 l 729 142 l 732 178 b 963 331 839 211 907 249 b 986 739 1061 474 1043 636 b 826 894 931 842 865 872 b 574 956 763 932 672 956 b 319 894 475 956 382 932 b 160 739 281 872 215 842 b 183 331 103 636 86 474 b 414 178 240 249 307 211 l 417 142 l 199 142 b 107 225 140 142 122 158 l 86 225 l 86 0 z "},"æ":{"ha":688,"x_min":0,"x_max":0,"o":"m 399 339 b 297 394 361 372 339 388 b 108 333 232 404 150 386 b 90 294 97 319 92 304 b 107 258 86 282 94 267 b 167 269 144 263 156 267 b 182 310 176 278 182 306 b 203 347 188 331 194 342 b 261 357 219 361 244 363 b 299 301 296 343 294 326 b 292 225 304 265 307 238 b 117 163 286 219 153 199 b 85 56 85 131 78 86 b 146 -7 93 22 122 0 b 340 57 215 -29 272 -3 b 485 -12 400 0 436 -11 b 694 81 558 -14 638 6 b 646 64 683 93 660 72 b 599 49 629 56 615 51 b 503 58 564 42 533 43 b 438 128 467 76 450 101 b 425 169 435 135 429 150 b 422 189 422 181 422 188 b 425 208 418 199 419 200 b 551 221 492 218 543 221 l 676 221 b 694 272 693 231 696 250 b 607 386 693 324 656 365 b 399 339 522 424 481 404 z m 579 296 b 572 264 579 286 581 274 l 535 257 l 486 250 l 467 250 b 421 244 457 250 429 238 b 485 360 424 304 421 324 b 568 326 522 361 547 361 b 579 296 574 317 578 307 z m 210 164 b 306 190 235 185 282 188 l 329 86 b 222 42 297 60 260 28 b 179 93 201 50 183 69 b 210 164 176 114 183 143 z "},"ø":{"ha":564,"x_min":0,"x_max":0,"o":"m 469 365 b 240 394 397 406 292 410 b 81 242 171 372 99 303 b 143 42 63 181 78 119 b 100 0 132 32 106 7 b 99 -43 86 -22 78 -31 b 138 -18 110 -43 131 -25 b 175 17 158 4 165 11 b 408 -1 257 -28 344 -25 b 558 144 456 15 544 89 b 501 340 574 207 557 278 b 529 371 511 351 521 363 b 543 403 543 385 549 392 b 504 396 525 417 522 408 b 469 365 499 389 479 368 z m 310 372 b 415 310 349 371 371 365 l 215 114 b 225 333 192 183 189 283 b 310 372 247 365 276 374 z m 235 81 l 429 269 b 414 51 447 199 457 100 b 329 21 390 26 361 17 b 235 81 301 24 281 35 z "},"¿":{"ha":490,"x_min":0,"x_max":0,"o":"m 238 399 b 193 314 199 383 188 344 b 238 260 199 289 215 268 b 301 268 263 250 285 257 b 336 329 326 286 336 310 b 301 389 335 354 322 374 b 238 399 276 406 254 406 z m 263 203 b 208 -74 293 61 292 58 l 161 -149 b 60 -471 83 -274 26 -371 b 218 -596 88 -551 156 -581 b 415 -542 276 -610 364 -592 b 460 -429 456 -501 468 -464 b 419 -381 454 -401 436 -385 b 367 -394 401 -374 382 -382 b 340 -453 343 -414 338 -433 b 353 -540 347 -489 375 -507 b 283 -572 336 -567 307 -572 b 199 -517 249 -572 221 -554 b 239 -228 144 -424 185 -336 l 268 -169 b 263 203 325 -56 388 89 z "},"¡":{"ha":265,"x_min":0,"x_max":0,"o":"m 124 399 b 75 319 85 385 72 347 b 115 260 78 290 96 268 b 181 265 136 250 158 253 b 219 324 206 281 218 304 b 189 385 221 349 208 371 b 124 399 165 403 140 404 z m 143 226 l 131 217 b 139 57 136 160 147 136 l 83 -449 b 106 -597 81 -476 69 -575 b 267 -553 133 -615 217 -581 l 267 -542 l 260 -539 l 253 -539 l 239 -539 b 210 -528 229 -539 225 -542 b 200 -432 199 -515 200 -469 l 200 -6 b 143 226 200 56 181 151 z "},"¬":{"ha":264,"x_min":0,"x_max":0,"o":"m 274 611 l 228 861 b 163 1007 221 896 214 993 b 100 986 138 1014 114 1003 b 146 818 71 947 142 825 l 246 611 z "},"√":{"ha":379,"x_min":0,"x_max":0,"o":"m 81 717 l 75 711 l 96 675 b 160 586 133 625 129 638 b 222 510 183 549 200 511 b 326 625 253 508 311 606 l 371 679 b 379 703 374 683 379 694 b 346 704 371 717 364 711 b 310 667 342 701 315 672 b 279 631 304 658 289 640 b 246 596 278 628 250 599 l 218 625 b 189 656 210 633 199 646 l 168 681 b 131 713 158 690 142 708 b 115 710 125 713 118 710 b 101 713 108 710 108 710 b 88 715 96 715 96 715 z "},"ƒ":{"ha":704,"x_min":0,"x_max":0,"o":"m 569 957 b 606 939 589 957 600 956 b 619 901 614 926 611 913 b 668 885 635 883 654 881 b 699 913 683 888 694 901 b 675 961 703 931 692 947 b 524 982 639 992 558 996 b 356 661 386 929 367 739 l 324 436 l 285 436 b 218 436 281 436 219 436 b 186 435 208 436 197 435 b 156 422 169 435 163 432 l 160 408 b 194 403 169 401 179 403 l 246 403 b 267 403 251 403 261 403 l 318 403 b 318 360 324 396 318 367 l 290 115 b 285 89 288 107 286 96 l 256 -175 b 211 -358 253 -199 242 -337 b 179 -364 194 -371 182 -365 b 160 -328 167 -357 161 -335 b 140 -293 160 -310 154 -307 b 97 -285 132 -286 106 -282 b 71 -322 83 -290 72 -307 b 97 -382 68 -344 79 -368 b 263 -390 132 -408 229 -403 b 411 -128 390 -342 399 -228 l 474 394 l 639 404 l 639 432 b 593 436 625 436 611 436 l 550 436 l 522 436 l 482 436 l 518 811 b 569 957 524 871 526 903 z "},"Δ":{"ha":878,"x_min":0,"x_max":0,"o":"m 896 0 l 503 956 l 58 0 z m 150 68 l 454 718 l 722 68 z "},"∆":{"ha":878,"x_min":0,"x_max":0,"o":"m 896 0 l 503 956 l 58 0 z m 150 68 l 454 718 l 722 68 z "},"«":{"ha":432,"x_min":0,"x_max":0,"o":"m 263 372 b 210 351 250 386 224 361 b 160 307 193 333 178 326 b 72 210 129 281 75 232 b 228 58 68 172 204 74 l 258 38 b 249 76 272 49 256 65 l 246 82 l 240 88 l 236 96 b 222 115 232 103 225 111 b 174 196 194 160 176 186 b 214 285 168 218 200 264 l 217 292 l 221 297 l 224 303 l 228 308 b 243 329 233 315 239 322 b 263 372 247 335 263 361 z m 425 372 b 399 369 414 385 404 374 l 374 351 b 322 308 349 333 336 321 b 235 210 296 285 238 231 b 388 61 231 172 364 78 l 421 38 b 413 75 438 44 419 65 b 404 86 410 81 404 86 l 400 92 l 399 96 l 397 101 l 392 107 l 386 115 b 336 199 351 167 338 190 b 378 285 332 217 364 264 b 406 329 382 296 396 317 b 425 372 422 356 425 358 z "},"»":{"ha":426,"x_min":0,"x_max":0,"o":"m 81 376 l 75 371 l 94 332 b 92 81 193 175 196 244 l 75 44 l 92 38 b 265 214 118 58 271 172 b 176 307 263 233 207 282 b 125 344 171 310 133 338 l 100 365 l 94 369 l 88 374 z m 260 365 b 235 371 257 369 244 383 l 315 238 l 329 208 b 310 168 325 199 318 181 b 283 125 304 160 286 132 b 253 82 274 111 264 96 b 239 39 253 82 231 57 l 251 38 b 426 214 283 63 432 172 b 338 307 424 232 363 286 b 285 346 331 313 294 339 b 260 365 276 354 269 358 z "},"…":{"ha":268,"x_min":0,"x_max":0,"o":""}," ":{"ha":268,"x_min":0,"x_max":0,"o":""},"À":{"ha":1119,"x_min":0,"x_max":0,"o":"m 613 979 b 596 963 607 978 601 969 b 567 960 588 965 575 964 b 546 943 557 956 546 943 b 517 950 532 932 526 954 b 504 925 503 944 504 933 b 519 835 501 913 519 840 b 492 743 519 825 494 750 l 282 169 b 238 89 267 128 272 136 b 165 42 206 46 211 49 b 138 38 153 39 140 38 b 108 36 128 38 118 36 b 81 31 99 35 92 39 b 76 6 71 24 68 13 b 107 -1 90 -6 94 -1 b 138 0 114 -1 132 0 l 422 0 b 458 0 431 0 450 -1 b 479 19 471 3 481 8 b 435 36 476 35 444 38 b 413 38 425 38 421 38 b 369 42 404 40 369 42 b 322 61 358 43 333 44 b 413 332 331 139 361 254 l 507 332 b 551 329 521 332 539 329 l 571 329 b 692 325 583 329 678 336 b 768 46 713 306 768 115 b 699 32 726 38 739 32 l 667 32 b 635 19 650 32 636 29 b 672 -6 635 -8 653 -6 b 722 0 682 -7 704 0 l 804 0 l 836 -4 l 1056 -11 b 1089 -8 1074 -11 1085 -10 b 1119 4 1103 -7 1114 -6 b 1121 17 1119 4 1122 11 b 1111 26 1118 25 1111 26 b 1021 33 1078 26 1044 26 b 900 194 946 57 918 142 l 735 682 b 729 710 731 694 732 700 b 700 782 724 725 701 776 b 656 924 700 782 676 869 b 642 958 651 936 642 958 b 613 979 633 981 626 983 z m 526 694 b 547 740 532 713 536 725 l 671 379 l 478 379 b 426 383 465 379 442 378 z m 468 1257 b 467 1226 458 1250 456 1238 b 489 1197 476 1215 483 1206 b 544 1136 511 1171 532 1149 b 601 1085 563 1119 588 1097 b 632 1063 613 1075 625 1067 b 663 1065 653 1051 667 1057 b 608 1149 656 1075 613 1142 b 588 1192 594 1174 597 1165 b 571 1231 583 1206 575 1221 b 550 1254 565 1244 560 1254 b 533 1256 540 1256 542 1256 b 521 1257 528 1256 528 1257 l 493 1257 l 481 1257 z "},"Ã":{"ha":1119,"x_min":0,"x_max":0,"o":"m 613 979 b 596 963 607 978 601 969 b 567 960 588 965 575 964 b 546 943 557 956 546 943 b 517 950 532 932 526 954 b 504 925 503 944 504 933 b 519 835 501 913 519 840 b 492 743 519 825 494 750 l 282 169 b 238 89 267 128 272 136 b 165 42 206 46 211 49 b 138 38 153 39 140 38 b 108 36 128 38 118 36 b 81 31 99 35 92 39 b 76 6 71 24 68 13 b 107 -1 90 -6 94 -1 b 138 0 114 -1 132 0 l 422 0 b 458 0 431 0 450 -1 b 479 19 471 3 481 8 b 435 36 476 35 444 38 b 413 38 425 38 421 38 b 369 42 404 40 369 42 b 322 61 358 43 333 44 b 413 332 331 139 361 254 l 507 332 b 551 329 521 332 539 329 l 571 329 b 692 325 583 329 678 336 b 768 46 713 306 768 115 b 699 32 726 38 739 32 l 667 32 b 635 19 650 32 636 29 b 672 -6 635 -8 653 -6 b 722 0 682 -7 704 0 l 804 0 l 836 -4 l 1056 -11 b 1089 -8 1074 -11 1085 -10 b 1119 4 1103 -7 1114 -6 b 1121 17 1119 4 1122 11 b 1111 26 1118 25 1111 26 b 1021 33 1078 26 1044 26 b 900 194 946 57 918 142 l 735 682 b 729 710 731 694 732 700 b 700 782 724 725 701 776 b 656 924 700 782 676 869 b 642 958 651 936 642 958 b 613 979 633 981 626 983 z m 526 694 b 547 740 532 713 536 725 l 671 379 l 478 379 b 426 383 465 379 442 378 z m 744 1149 b 708 1118 735 1149 724 1132 b 668 1101 694 1107 685 1103 b 514 1143 656 1101 554 1153 b 456 1097 493 1139 474 1119 b 439 1067 449 1089 443 1078 b 433 1033 435 1056 429 1042 b 447 1033 436 1028 443 1029 b 482 1074 454 1040 471 1068 b 631 1038 521 1093 569 1043 b 751 1140 692 1033 721 1079 b 744 1149 756 1147 747 1149 z "},"Õ":{"ha":1161,"x_min":0,"x_max":0,"o":"m 524 988 b 347 929 467 981 388 950 b 79 524 188 844 94 681 b 246 101 64 378 97 222 b 774 -1 414 -35 601 -56 b 1146 353 944 53 1093 165 b 1043 807 1182 479 1146 689 b 524 988 897 976 656 1004 z m 376 840 b 514 933 418 889 464 919 b 804 867 596 956 719 935 b 968 429 942 756 974 539 b 782 69 961 310 922 157 b 519 38 707 22 594 8 b 285 329 375 94 315 211 b 376 840 253 458 258 700 z m 758 1149 b 722 1118 749 1149 738 1132 b 682 1101 708 1107 697 1103 b 528 1143 669 1101 568 1153 b 469 1097 507 1139 486 1119 b 453 1067 463 1089 457 1078 b 447 1033 449 1056 443 1042 b 461 1033 450 1028 457 1029 b 496 1074 468 1040 483 1068 b 644 1038 535 1093 583 1043 b 765 1140 704 1033 735 1079 b 758 1149 769 1147 761 1149 z "},"Œ":{"ha":1379,"x_min":0,"x_max":0,"o":"m 1210 763 b 1231 861 1211 769 1217 818 b 1265 957 1242 899 1265 957 b 1251 982 1271 971 1261 976 b 1213 968 1231 982 1224 979 b 1175 961 1196 961 1189 963 b 1100 956 1142 957 1100 956 l 865 956 b 838 956 863 956 838 956 l 665 968 b 133 707 488 981 278 953 b 171 165 29 528 69 310 b 636 -11 303 -21 461 -46 l 693 0 b 803 7 713 4 786 7 l 1119 7 b 1150 7 1122 7 1150 7 b 1181 8 1160 7 1172 8 b 1210 4 1186 8 1206 7 b 1231 -24 1219 -6 1219 -12 b 1260 -25 1239 -29 1247 -31 b 1317 96 1279 -17 1313 83 l 1329 128 b 1353 181 1333 135 1351 175 l 1369 214 b 1372 260 1374 225 1389 250 l 1365 260 b 1194 101 1278 143 1319 174 b 892 64 1124 61 913 53 b 861 242 856 83 861 218 l 861 478 b 1061 453 904 482 1018 496 b 1093 379 1078 435 1088 408 l 1100 344 b 1124 319 1108 324 1107 319 b 1131 354 1129 326 1133 349 b 1128 389 1131 365 1128 379 b 1131 457 1128 407 1129 421 b 1146 592 1133 508 1138 538 l 1146 622 l 1139 635 b 1101 606 1121 642 1106 613 b 1078 564 1090 579 1089 582 b 1008 536 1056 532 1039 536 l 935 536 l 867 536 l 867 824 l 874 906 b 1082 894 960 908 1067 899 b 1193 757 1164 872 1176 818 l 1203 757 z m 446 892 b 572 925 485 913 535 924 b 675 899 600 926 653 921 b 700 742 699 875 700 754 l 700 238 b 636 46 700 207 707 86 b 444 61 583 17 507 24 b 258 501 285 157 256 383 b 446 892 260 578 293 811 z "},"œ":{"ha":813,"x_min":0,"x_max":0,"o":"m 499 326 b 275 394 410 394 344 404 b 89 251 219 388 115 315 b 119 57 61 183 74 121 b 313 -17 182 -28 250 -22 b 449 76 379 -10 415 1 b 540 1 479 26 501 14 b 810 63 613 -21 722 -15 l 810 69 b 760 58 799 85 769 63 b 707 43 736 49 724 46 b 604 56 669 39 628 43 b 528 221 543 89 532 176 l 581 221 b 621 221 589 221 613 218 l 763 221 b 806 222 767 219 803 221 b 813 251 815 236 813 246 b 810 278 813 254 813 263 b 786 332 804 301 796 319 b 660 396 750 381 700 393 b 499 326 593 400 568 394 z m 194 188 b 253 357 189 232 161 324 b 354 340 274 364 324 364 b 429 138 411 299 432 190 b 379 39 428 99 421 64 b 275 32 349 21 301 19 b 194 188 225 57 199 151 z m 658 353 b 700 264 704 325 697 297 l 667 264 l 638 258 b 608 257 631 258 618 257 l 588 257 b 558 254 581 257 568 254 b 528 258 554 254 535 254 b 579 353 529 303 536 331 b 658 353 606 367 633 368 z "},"–":{"ha":618,"x_min":0,"x_max":0,"o":"m 617 260 b 581 267 601 269 596 267 l 546 267 l 210 267 b 168 264 207 267 171 263 l 103 264 b 81 258 92 264 88 263 b 75 215 78 240 75 235 b 83 175 75 206 76 182 b 113 174 103 174 113 174 b 139 175 121 174 132 175 l 611 175 b 617 218 624 186 617 200 b 617 260 617 232 621 246 z "},"—":{"ha":1090,"x_min":0,"x_max":0,"o":"m 271 263 l 68 263 b 67 174 69 243 69 200 l 361 174 b 389 175 372 174 379 175 l 964 175 b 996 174 974 175 985 174 l 1081 174 l 1081 267 l 304 267 b 271 263 293 267 282 263 z "},"“":{"ha":449,"x_min":0,"x_max":0,"o":"m 251 981 b 222 979 243 989 226 979 b 194 964 210 974 201 969 b 138 913 167 949 147 925 b 81 794 108 878 89 833 b 89 710 71 754 71 729 b 178 685 108 689 151 682 b 226 703 200 688 217 694 b 253 744 249 718 253 740 b 231 749 244 756 240 751 b 207 749 215 749 219 744 b 163 813 183 757 167 789 b 251 981 147 885 194 918 z m 444 981 b 414 979 436 988 424 983 b 385 964 400 974 392 968 b 328 911 365 951 343 931 b 271 790 297 874 281 833 b 282 707 263 750 264 726 b 375 685 301 688 350 681 b 421 704 394 688 410 694 b 444 747 433 713 444 738 l 436 750 l 429 750 l 422 750 l 417 749 b 390 750 401 749 403 743 b 353 819 371 761 357 790 b 444 981 343 889 385 915 z "},"”":{"ha":449,"x_min":0,"x_max":0,"o":"m 76 683 b 222 800 150 701 190 742 b 246 946 239 829 265 914 b 156 982 228 975 181 983 b 103 967 133 981 117 975 b 75 919 88 954 75 940 b 106 918 86 911 96 918 b 133 913 113 919 126 918 b 165 856 149 903 160 882 b 76 693 182 785 149 763 z m 269 686 b 303 688 278 675 292 688 b 339 710 310 690 321 696 b 401 778 363 726 386 754 b 442 942 426 814 460 907 b 354 982 425 975 379 982 b 301 969 328 982 310 975 b 267 919 268 949 279 944 b 296 918 276 911 288 915 b 325 913 307 918 313 919 b 358 857 340 903 351 882 b 269 686 378 786 331 753 z "},"‘":{"ha":257,"x_min":0,"x_max":0,"o":"m 251 981 b 222 979 243 989 226 979 b 194 964 210 974 201 969 b 138 913 167 949 147 925 b 81 794 108 878 89 833 b 89 710 71 754 71 729 b 178 685 108 689 151 682 b 226 703 200 688 217 694 b 253 744 249 718 253 740 b 231 749 244 756 240 751 b 207 749 215 749 219 744 b 163 813 183 757 167 789 b 251 981 147 885 194 918 z "},"’":{"ha":257,"x_min":0,"x_max":0,"o":"m 76 683 b 222 800 150 701 190 742 b 246 946 239 829 265 914 b 156 982 228 975 181 983 b 103 967 133 981 117 975 b 75 919 88 954 75 940 b 106 918 86 911 96 918 b 133 913 113 919 126 918 b 165 856 149 903 160 882 b 76 693 182 785 149 763 z "},"÷":{"ha":551,"x_min":0,"x_max":0,"o":"m 510 969 b 468 985 500 988 471 985 b 411 882 439 978 415 893 l 154 115 b 121 -12 150 101 114 -3 b 156 -18 125 -18 135 -22 b 231 122 197 -10 221 93 l 460 799 b 474 851 463 801 475 836 l 482 879 b 499 924 489 892 496 914 z "},"ÿ":{"ha":624,"x_min":0,"x_max":0,"o":"m 300 382 b 257 389 293 393 271 390 l 211 385 b 118 388 178 382 142 386 l 51 390 b 4 388 35 390 18 390 b 1 367 -11 385 -11 371 b 174 233 106 336 97 368 l 239 118 b 246 -133 325 -33 321 28 l 218 -193 l 189 -246 l 156 -303 b 119 -353 154 -306 133 -344 b 101 -354 114 -353 108 -354 b 86 -354 100 -354 86 -354 l 54 -358 b 19 -364 43 -360 29 -360 b 4 -385 4 -364 1 -375 b 47 -392 7 -397 32 -393 b 89 -389 47 -392 85 -386 b 104 -410 96 -394 104 -410 b 319 -386 185 -385 239 -386 b 329 -374 319 -386 328 -382 b 314 -356 332 -362 325 -358 b 285 -353 308 -354 292 -353 l 229 -353 b 197 -347 229 -353 199 -354 b 264 -190 196 -340 238 -240 l 322 -82 b 365 7 347 -35 344 -40 l 469 240 b 526 339 493 292 506 314 b 571 354 542 357 546 353 b 618 361 592 354 596 353 l 622 367 b 601 390 629 386 613 390 l 569 389 b 504 386 569 389 529 386 b 422 389 474 386 422 389 b 389 376 404 389 392 390 b 408 351 386 360 397 354 b 443 350 415 350 438 350 b 378 144 451 282 413 214 l 365 119 l 233 347 b 243 354 233 347 238 353 b 275 354 253 357 275 354 b 303 365 292 354 299 357 b 300 382 306 371 304 376 z m 233 613 b 193 536 196 597 188 563 b 231 492 197 514 213 499 b 288 499 251 483 271 489 b 317 551 308 513 317 531 b 288 610 315 576 304 599 b 233 613 271 621 251 619 z m 422 613 b 382 533 386 596 374 561 b 422 490 389 508 408 496 b 481 501 444 483 467 490 b 507 554 500 514 508 533 b 476 610 506 582 490 600 b 422 613 463 618 436 619 z "},"Ÿ":{"ha":1115,"x_min":0,"x_max":0,"o":"m 560 924 b 565 954 571 929 574 947 b 535 961 556 963 538 960 l 474 963 l 428 963 b 385 964 421 963 393 967 l 218 964 b 81 957 204 965 93 969 b 76 933 74 950 72 942 b 126 919 81 925 96 922 b 310 779 257 911 238 908 l 457 517 b 517 267 532 382 517 401 l 517 176 b 494 50 517 158 515 64 b 364 40 476 38 378 43 b 340 11 339 36 336 25 b 372 0 344 -3 365 0 l 743 0 b 781 -3 746 0 781 -3 b 818 0 790 -4 811 -3 b 817 35 831 4 833 28 b 785 39 808 39 794 38 b 719 44 758 42 746 42 b 690 76 694 47 694 53 b 685 417 672 174 675 356 b 853 757 700 513 786 664 l 906 831 b 1113 936 965 914 1000 914 b 1119 954 1119 938 1122 944 b 1065 967 1115 968 1081 967 l 754 967 b 715 964 744 967 724 967 b 704 932 699 960 699 940 b 729 925 710 924 729 925 l 811 918 b 835 914 815 918 826 918 b 842 908 836 914 842 910 b 729 649 843 878 750 682 l 642 514 b 615 553 632 526 625 539 l 501 757 b 444 907 490 778 431 888 b 501 919 451 919 471 919 b 560 924 528 919 551 919 z m 768 1243 b 690 1246 747 1246 710 1254 b 658 1211 663 1238 668 1236 l 640 1164 b 592 1072 619 1110 619 1125 l 582 1044 b 608 1050 589 1035 601 1044 b 638 1074 621 1058 626 1064 b 693 1126 644 1079 661 1092 b 768 1243 754 1192 792 1240 z "},"⁄":{"ha":1115,"x_min":0,"x_max":0,"o":"m 560 924 b 565 954 571 929 574 947 b 535 961 556 963 538 960 l 474 963 l 428 963 b 385 964 421 963 393 967 l 218 964 b 81 957 204 965 93 969 b 76 933 74 950 72 942 b 126 919 81 925 96 922 b 310 779 257 911 238 908 l 457 517 b 517 267 532 382 517 401 l 517 176 b 494 50 517 158 515 64 b 364 40 476 38 378 43 b 340 11 339 36 336 25 b 372 0 344 -3 365 0 l 743 0 b 781 -3 746 0 781 -3 b 818 0 790 -4 811 -3 b 817 35 831 4 833 28 b 785 39 808 39 794 38 b 719 44 758 42 746 42 b 690 76 694 47 694 53 b 685 417 672 174 675 356 b 853 757 700 513 786 664 l 906 831 b 1113 936 965 914 1000 914 b 1119 954 1119 938 1122 944 b 1065 967 1115 968 1081 967 l 754 967 b 715 964 744 967 724 967 b 704 932 699 960 699 940 b 729 925 710 924 729 925 l 811 918 b 835 914 815 918 826 918 b 842 908 836 914 842 910 b 729 649 843 878 750 682 l 642 514 b 615 553 632 526 625 539 l 501 757 b 444 907 490 778 431 888 b 501 919 451 919 471 919 b 560 924 528 919 551 919 z m 483 1151 b 444 1075 447 1136 439 1101 b 481 1031 449 1053 464 1038 b 539 1038 501 1022 522 1028 b 568 1090 560 1051 568 1069 b 539 1149 567 1115 556 1138 b 483 1151 522 1160 501 1158 z m 674 1151 b 633 1072 638 1135 625 1100 b 674 1029 640 1047 660 1035 b 732 1040 694 1022 717 1029 b 758 1093 751 1053 760 1072 b 726 1149 757 1121 742 1139 b 674 1151 713 1157 688 1158 z "},"¤":{"ha":268,"x_min":0,"x_max":0,"o":""},"‹":{"ha":269,"x_min":0,"x_max":0,"o":"m 269 371 b 218 350 257 385 233 358 b 167 307 197 333 181 319 b 81 210 138 282 83 233 b 232 61 76 171 208 82 l 258 39 l 268 39 b 256 76 274 51 265 67 l 224 128 l 210 150 l 193 176 l 179 201 b 200 250 179 219 190 235 l 229 294 b 249 325 235 303 244 318 l 263 346 b 269 371 268 357 269 361 z "},"›":{"ha":265,"x_min":0,"x_max":0,"o":"m 92 379 l 83 372 l 104 335 b 104 88 192 178 204 242 l 92 68 b 85 46 92 67 85 56 l 100 39 b 272 222 151 78 260 158 b 124 357 219 288 174 322 z "},"ﬁ":{"ha":638,"x_min":0,"x_max":0,"o":"m 281 583 l 264 719 b 271 931 263 726 233 890 b 307 949 289 949 301 950 b 336 925 322 946 326 935 b 358 897 344 915 347 901 b 393 908 365 894 376 896 b 418 949 414 926 418 942 b 382 983 417 958 403 972 b 281 981 347 1001 310 996 b 181 718 192 932 183 758 l 174 629 b 90 522 167 542 165 558 l 90 515 l 99 504 l 165 514 l 165 143 b 151 39 165 78 167 104 l 71 21 l 68 4 b 103 0 82 -6 92 -3 l 349 0 l 363 11 l 363 25 b 329 36 349 39 340 35 l 296 39 b 271 176 272 56 272 163 l 271 528 l 389 554 l 399 583 b 354 590 392 601 356 590 b 306 583 331 582 315 583 z m 496 724 b 443 656 464 717 444 686 b 465 604 442 632 450 615 b 531 596 488 589 517 590 b 575 649 553 604 571 629 b 558 703 579 669 571 690 b 496 724 546 714 507 726 z m 543 396 b 379 326 486 379 429 356 l 379 315 b 413 319 386 313 407 317 b 444 325 419 321 438 325 l 453 315 l 453 290 l 453 181 b 450 74 453 129 454 104 b 424 26 447 53 447 38 b 374 13 413 26 379 22 l 375 1 b 418 0 386 -6 400 0 l 589 0 b 628 13 600 0 624 1 l 621 31 b 567 32 608 31 601 32 b 547 57 550 39 551 46 l 547 86 l 556 367 b 543 396 556 381 554 389 z "},"ﬂ":{"ha":685,"x_min":0,"x_max":0,"o":"m 596 1004 b 432 938 538 992 489 967 b 400 981 424 964 422 965 b 294 982 368 1003 328 999 b 183 729 200 936 189 788 l 183 658 b 96 524 183 563 192 569 l 96 517 l 103 506 b 138 510 115 506 128 510 b 169 515 146 513 165 515 b 171 492 172 507 169 497 l 171 99 b 168 67 171 90 169 79 b 156 36 168 53 164 43 b 114 29 144 32 122 32 b 75 18 104 29 85 28 l 75 4 b 114 0 85 -8 104 0 l 378 0 l 378 29 b 344 36 371 33 349 36 b 310 38 336 36 315 35 b 283 188 276 54 283 165 l 283 528 b 326 540 283 528 325 540 b 369 549 333 540 361 547 b 401 558 379 551 392 549 b 407 590 408 568 410 581 b 363 590 394 599 374 592 l 319 583 l 292 583 l 282 635 b 279 654 281 644 281 649 l 271 725 b 285 936 267 761 243 900 b 325 944 301 950 315 949 b 383 897 365 925 340 894 l 403 907 b 432 908 411 904 422 906 l 478 918 b 489 865 485 907 489 876 l 489 818 b 489 788 489 813 489 790 b 485 757 490 781 485 763 l 485 164 b 478 71 485 142 482 90 b 453 33 478 53 475 33 b 408 26 446 31 433 29 l 401 19 l 401 8 l 408 -1 b 453 0 426 -3 436 0 l 653 0 b 685 8 663 0 676 -3 l 683 21 b 649 33 667 33 663 29 b 617 39 643 35 622 36 b 590 157 592 57 590 140 l 590 790 b 596 829 590 803 596 815 l 596 904 b 604 956 596 914 601 947 b 596 1004 608 967 608 994 z "},"‡":{"ha":690,"x_min":0,"x_max":0,"o":"m 407 661 b 407 700 401 676 407 686 b 415 740 408 706 414 736 l 426 782 b 446 958 443 844 471 919 b 388 989 432 981 410 989 b 325 964 363 990 338 981 b 340 779 294 922 333 808 l 351 735 b 363 663 357 710 358 697 b 275 675 308 667 325 665 l 254 675 b 100 692 196 690 136 719 b 76 636 82 678 74 657 b 118 586 79 610 101 593 b 240 608 149 572 204 596 b 364 628 289 624 314 628 b 350 503 363 563 356 522 b 340 333 317 390 304 443 b 365 165 354 289 363 218 b 251 182 307 167 275 175 b 138 210 190 200 171 213 b 81 176 106 208 88 196 b 81 146 81 167 81 154 b 92 118 76 135 82 131 b 258 124 131 74 219 115 l 289 124 b 358 131 307 126 318 128 b 351 50 356 86 361 92 l 342 8 b 328 -168 329 -43 303 -133 b 382 -194 343 -187 364 -194 b 436 -168 404 -194 425 -183 b 425 11 465 -129 432 -19 l 415 50 b 404 126 407 83 408 96 b 440 128 410 133 435 128 b 476 124 456 126 471 124 l 507 115 b 663 107 521 111 628 79 b 685 163 689 128 686 143 b 654 206 682 189 683 192 b 528 188 617 222 581 204 b 401 164 476 171 457 168 b 422 322 404 239 408 286 b 451 399 424 329 451 399 b 426 474 451 411 431 463 b 400 625 407 532 404 554 b 524 608 460 626 494 618 b 665 597 569 594 625 568 b 690 646 686 613 690 629 b 658 694 689 667 675 685 b 532 681 626 713 579 694 b 407 661 483 667 471 667 z "},"·":{"ha":397,"x_min":0,"x_max":0,"o":"m 206 -3 l 140 -136 l 164 -153 b 251 -167 199 -146 232 -142 b 253 -214 258 -182 260 -199 b 171 -246 235 -242 204 -247 b 96 -228 154 -244 139 -242 l 76 -278 b 358 -268 158 -311 296 -321 b 396 -167 389 -242 404 -207 b 325 -90 389 -132 365 -104 b 228 -86 294 -81 268 -82 l 263 -3 z "},"‚":{"ha":257,"x_min":0,"x_max":0,"o":"m 76 -169 b 107 -168 81 -179 101 -169 b 140 -150 122 -162 133 -154 b 200 -89 163 -135 186 -107 b 247 83 231 -47 265 47 b 164 126 231 119 186 126 b 108 113 146 126 125 122 b 75 64 83 96 75 78 b 118 63 82 53 110 63 b 165 0 143 56 160 25 b 76 -164 183 -74 153 -87 z "},"„":{"ha":446,"x_min":0,"x_max":0,"o":"m 68 -169 b 99 -168 72 -179 93 -169 b 132 -150 114 -162 125 -154 b 192 -89 156 -135 178 -107 b 239 83 222 -47 257 47 b 157 126 222 119 178 126 b 100 113 138 126 117 122 b 67 64 75 96 67 78 b 110 63 74 53 101 63 b 158 0 135 56 153 25 b 68 -164 176 -74 144 -87 z m 258 -169 b 292 -168 267 -179 285 -171 b 325 -150 310 -161 321 -153 b 436 50 399 -96 435 -11 b 411 108 438 79 426 97 b 313 121 388 125 339 129 b 271 99 289 114 278 104 b 263 58 267 92 254 78 b 308 58 279 58 293 68 b 350 -8 333 47 346 17 b 258 -169 360 -78 313 -110 z "},"‰":{"ha":1328,"x_min":0,"x_max":0,"o":"m 321 964 b 247 939 300 961 276 956 b 131 788 171 896 135 849 b 215 621 126 729 143 675 b 428 599 279 572 371 579 b 561 729 475 615 550 682 b 526 889 572 774 563 850 b 321 964 476 942 378 974 z m 885 946 b 849 957 872 963 865 969 b 817 925 839 953 821 929 l 715 813 l 697 792 b 678 769 689 782 683 779 l 96 54 b 75 17 88 43 74 29 b 103 -7 75 -4 96 -7 b 126 11 114 -4 118 3 l 865 908 b 885 946 869 917 885 936 z m 575 376 b 419 250 519 363 440 303 b 444 86 400 203 407 132 b 661 1 521 -7 590 -10 b 836 133 735 14 813 65 b 806 303 850 174 842 265 b 575 376 742 371 642 392 z m 1063 376 b 904 246 1003 363 926 301 b 936 81 885 199 899 125 b 1156 4 1011 -8 1089 -8 b 1322 136 1222 15 1301 72 b 1290 304 1335 175 1325 268 b 1063 376 1229 371 1129 392 z m 246 718 b 282 929 233 756 224 892 b 385 929 293 936 350 944 b 458 813 440 904 449 868 b 429 631 468 756 472 671 b 350 621 413 615 382 613 b 246 718 299 633 265 663 z m 536 103 b 554 340 507 156 503 299 b 653 350 568 351 628 358 b 728 267 692 338 715 313 b 713 56 742 219 757 111 b 647 31 696 33 678 28 b 536 103 610 33 563 57 z m 1024 103 b 1040 340 994 154 988 297 b 1139 350 1054 351 1115 357 b 1214 267 1179 336 1201 311 b 1200 56 1228 219 1244 113 b 1133 31 1183 33 1164 28 b 1024 103 1096 33 1049 57 z "},"Â":{"ha":1119,"x_min":0,"x_max":0,"o":"m 613 979 b 596 963 607 978 601 969 b 567 960 588 965 575 964 b 546 943 557 956 546 943 b 517 950 532 932 526 954 b 504 925 503 944 504 933 b 519 835 501 913 519 840 b 492 743 519 825 494 750 l 282 169 b 238 89 267 128 272 136 b 165 42 206 46 211 49 b 138 38 153 39 140 38 b 108 36 128 38 118 36 b 81 31 99 35 92 39 b 76 6 71 24 68 13 b 107 -1 90 -6 94 -1 b 138 0 114 -1 132 0 l 422 0 b 458 0 431 0 450 -1 b 479 19 471 3 481 8 b 435 36 476 35 444 38 b 413 38 425 38 421 38 b 369 42 404 40 369 42 b 322 61 358 43 333 44 b 413 332 331 139 361 254 l 507 332 b 551 329 521 332 539 329 l 571 329 b 692 325 583 329 678 336 b 768 46 713 306 768 115 b 699 32 726 38 739 32 l 667 32 b 635 19 650 32 636 29 b 672 -6 635 -8 653 -6 b 722 0 682 -7 704 0 l 804 0 l 836 -4 l 1056 -11 b 1089 -8 1074 -11 1085 -10 b 1119 4 1103 -7 1114 -6 b 1121 17 1119 4 1122 11 b 1111 26 1118 25 1111 26 b 1021 33 1078 26 1044 26 b 900 194 946 57 918 142 l 735 682 b 729 710 731 694 732 700 b 700 782 724 725 701 776 b 656 924 700 782 676 869 b 642 958 651 936 642 958 b 613 979 633 981 626 983 z m 526 694 b 547 740 532 713 536 725 l 671 379 l 478 379 b 426 383 465 379 442 378 z m 744 1036 b 747 1043 747 1038 747 1043 l 744 1049 l 739 1056 l 735 1061 l 722 1081 b 661 1168 686 1136 693 1117 b 600 1244 635 1211 621 1242 b 494 1126 572 1247 507 1143 l 461 1082 b 451 1043 449 1067 433 1051 b 482 1054 461 1039 478 1049 b 508 1082 486 1058 501 1074 b 558 1142 526 1104 538 1121 l 576 1160 b 614 1119 597 1136 589 1150 l 654 1072 b 697 1042 674 1050 686 1036 b 721 1038 706 1044 718 1038 b 726 1036 721 1038 724 1036 b 735 1039 729 1036 732 1039 b 744 1036 739 1039 740 1033 z "},"Ê":{"ha":925,"x_min":0,"x_max":0,"o":"m 743 744 b 765 850 747 788 751 808 b 782 904 772 874 776 889 b 803 956 785 911 801 951 b 793 981 807 965 801 976 b 749 963 779 986 760 967 l 706 958 b 621 963 676 956 649 963 l 257 963 l 218 964 l 156 964 b 125 964 153 964 125 964 b 99 956 117 964 103 963 b 132 929 88 932 125 932 b 178 914 142 925 168 922 b 208 792 218 885 208 821 l 201 151 b 182 43 201 118 200 58 b 126 31 172 35 158 32 b 75 17 114 29 81 28 b 82 0 71 10 71 3 b 113 0 90 -3 94 0 l 146 0 b 174 0 156 0 165 0 l 754 0 b 758 -12 754 0 757 -8 b 778 -42 764 -25 769 -35 b 794 -47 783 -46 788 -47 b 818 -18 808 -47 815 -26 b 850 61 818 -18 835 29 b 876 113 860 83 867 93 b 900 153 883 128 893 140 l 914 176 b 919 215 918 183 929 206 b 906 219 914 221 911 221 b 893 210 900 218 897 217 b 869 182 886 201 878 192 b 817 128 842 150 828 138 b 710 74 793 106 743 85 b 383 49 664 57 426 17 b 364 214 349 74 364 186 l 364 283 b 363 338 364 301 363 319 l 363 371 b 365 426 363 394 365 406 l 365 454 b 376 479 365 471 369 471 b 522 479 450 485 504 485 b 599 339 582 461 589 379 b 615 332 599 339 600 326 b 624 360 622 335 624 353 l 624 415 b 625 526 624 439 622 486 b 631 581 626 554 628 563 b 635 610 633 596 635 596 b 625 638 635 625 635 635 b 588 607 601 643 596 629 b 575 585 582 594 582 594 l 560 564 b 396 539 529 522 433 539 b 372 539 396 539 378 535 b 364 571 364 544 365 558 b 364 600 363 581 364 593 l 372 865 b 378 897 372 875 374 885 l 385 904 b 581 901 453 910 556 903 b 697 850 625 897 676 890 b 710 790 703 840 703 826 b 728 739 714 767 718 744 b 743 744 736 733 742 738 z m 621 1036 b 624 1043 624 1038 624 1043 l 621 1049 l 615 1056 l 611 1061 l 599 1081 b 538 1168 563 1136 569 1117 b 478 1244 511 1211 497 1242 b 372 1126 449 1247 385 1142 l 338 1082 b 328 1043 325 1067 310 1051 b 360 1054 338 1039 354 1049 b 385 1082 364 1058 378 1074 b 435 1142 403 1104 414 1121 l 453 1160 b 490 1119 475 1136 465 1149 l 531 1072 b 575 1042 550 1050 563 1036 b 597 1038 583 1044 594 1038 b 603 1036 597 1038 600 1036 b 611 1039 606 1036 608 1039 b 621 1036 615 1039 617 1033 z "},"Á":{"ha":1119,"x_min":0,"x_max":0,"o":"m 613 979 b 596 963 607 978 601 969 b 567 960 588 965 575 964 b 546 943 557 956 546 943 b 517 950 532 932 526 954 b 504 925 503 944 504 933 b 519 835 501 913 519 840 b 492 743 519 825 494 750 l 282 169 b 238 89 267 128 272 136 b 165 42 206 46 211 49 b 138 38 153 39 140 38 b 108 36 128 38 118 36 b 81 31 99 35 92 39 b 76 6 71 24 68 13 b 107 -1 90 -6 94 -1 b 138 0 114 -1 132 0 l 422 0 b 458 0 431 0 450 -1 b 479 19 471 3 481 8 b 435 36 476 35 444 38 b 413 38 425 38 421 38 b 369 42 404 40 369 42 b 322 61 358 43 333 44 b 413 332 331 139 361 254 l 507 332 b 551 329 521 332 539 329 l 571 329 b 692 325 583 329 678 336 b 768 46 713 306 768 115 b 699 32 726 38 739 32 l 667 32 b 635 19 650 32 636 29 b 672 -6 635 -8 653 -6 b 722 0 682 -7 704 0 l 804 0 l 836 -4 l 1056 -11 b 1089 -8 1074 -11 1085 -10 b 1119 4 1103 -7 1114 -6 b 1121 17 1119 4 1122 11 b 1111 26 1118 25 1111 26 b 1021 33 1078 26 1044 26 b 900 194 946 57 918 142 l 735 682 b 729 710 731 694 732 700 b 700 782 724 725 701 776 b 656 924 700 782 676 869 b 642 958 651 936 642 958 b 613 979 633 981 626 983 z m 526 694 b 547 740 532 713 536 725 l 671 379 l 478 379 b 426 383 465 379 442 378 z m 701 1243 b 624 1246 682 1246 644 1254 b 592 1211 596 1238 603 1235 l 575 1164 b 526 1072 556 1110 554 1125 l 515 1044 b 543 1050 524 1035 536 1044 b 572 1074 556 1058 561 1064 b 626 1126 579 1079 594 1092 b 701 1243 689 1192 725 1240 z "},"Ë":{"ha":925,"x_min":0,"x_max":0,"o":"m 743 744 b 765 850 747 788 751 808 b 782 904 772 874 776 889 b 803 956 785 911 801 951 b 793 981 807 965 801 976 b 749 963 779 986 760 967 l 706 958 b 621 963 676 956 649 963 l 257 963 l 218 964 l 156 964 b 125 964 153 964 125 964 b 99 956 117 964 103 963 b 132 929 88 932 125 932 b 178 914 142 925 168 922 b 208 792 218 885 208 821 l 201 151 b 182 43 201 118 200 58 b 126 31 172 35 158 32 b 75 17 114 29 81 28 b 82 0 71 10 71 3 b 113 0 90 -3 94 0 l 146 0 b 174 0 156 0 165 0 l 754 0 b 758 -12 754 0 757 -8 b 778 -42 764 -25 769 -35 b 794 -47 783 -46 788 -47 b 818 -18 808 -47 815 -26 b 850 61 818 -18 835 29 b 876 113 860 83 867 93 b 900 153 883 128 893 140 l 914 176 b 919 215 918 183 929 206 b 906 219 914 221 911 221 b 893 210 900 218 897 217 b 869 182 886 201 878 192 b 817 128 842 150 828 138 b 710 74 793 106 743 85 b 383 49 664 57 426 17 b 364 214 349 74 364 186 l 364 283 b 363 338 364 301 363 319 l 363 371 b 365 426 363 394 365 406 l 365 454 b 376 479 365 471 369 471 b 522 479 450 485 504 485 b 599 339 582 461 589 379 b 615 332 599 339 600 326 b 624 360 622 335 624 353 l 624 415 b 625 526 624 439 622 486 b 631 581 626 554 628 563 b 635 610 633 596 635 596 b 625 638 635 625 635 635 b 588 607 601 643 596 629 b 575 585 582 594 582 594 l 560 564 b 396 539 529 522 433 539 b 372 539 396 539 378 535 b 364 571 364 544 365 558 b 364 600 363 581 364 593 l 372 865 b 378 897 372 875 374 885 l 385 904 b 581 901 453 910 556 903 b 697 850 625 897 676 890 b 710 790 703 840 703 826 b 728 739 714 767 718 744 b 743 744 736 733 742 738 z m 388 1151 b 349 1075 351 1136 343 1101 b 385 1031 353 1053 368 1038 b 443 1038 406 1022 426 1028 b 472 1090 464 1051 472 1069 b 443 1149 471 1115 460 1138 b 388 1151 426 1160 406 1158 z m 578 1151 b 538 1072 542 1133 529 1100 b 578 1029 544 1047 564 1035 b 636 1040 599 1022 621 1029 b 663 1093 656 1053 664 1072 b 631 1149 661 1121 646 1139 b 578 1151 617 1157 590 1157 z "},"È":{"ha":925,"x_min":0,"x_max":0,"o":"m 743 744 b 765 850 747 788 751 808 b 782 904 772 874 776 889 b 803 956 785 911 801 951 b 793 981 807 965 801 976 b 749 963 779 986 760 967 l 706 958 b 621 963 676 956 649 963 l 257 963 l 218 964 l 156 964 b 125 964 153 964 125 964 b 99 956 117 964 103 963 b 132 929 88 932 125 932 b 178 914 142 925 168 922 b 208 792 218 885 208 821 l 201 151 b 182 43 201 118 200 58 b 126 31 172 35 158 32 b 75 17 114 29 81 28 b 82 0 71 10 71 3 b 113 0 90 -3 94 0 l 146 0 b 174 0 156 0 165 0 l 754 0 b 758 -12 754 0 757 -8 b 778 -42 764 -25 769 -35 b 794 -47 783 -46 788 -47 b 818 -18 808 -47 815 -26 b 850 61 818 -18 835 29 b 876 113 860 83 867 93 b 900 153 883 128 893 140 l 914 176 b 919 215 918 183 929 206 b 906 219 914 221 911 221 b 893 210 900 218 897 217 b 869 182 886 201 878 192 b 817 128 842 150 828 138 b 710 74 793 106 743 85 b 383 49 664 57 426 17 b 364 214 349 74 364 186 l 364 283 b 363 338 364 301 363 319 l 363 371 b 365 426 363 394 365 406 l 365 454 b 376 479 365 471 369 471 b 522 479 450 485 504 485 b 599 339 582 461 589 379 b 615 332 599 339 600 326 b 624 360 622 335 624 353 l 624 415 b 625 526 624 439 622 486 b 631 581 626 554 628 563 b 635 610 633 596 635 596 b 625 638 635 625 635 635 b 588 607 601 643 596 629 b 575 585 582 594 582 594 l 560 564 b 396 539 529 522 433 539 b 372 539 396 539 378 535 b 364 571 364 544 365 558 b 364 600 363 581 364 593 l 372 865 b 378 897 372 875 374 885 l 385 904 b 581 901 453 910 556 903 b 697 850 625 897 676 890 b 710 790 703 840 703 826 b 728 739 714 767 718 744 b 743 744 736 733 742 738 z m 328 1217 b 326 1185 318 1210 315 1197 b 350 1156 336 1174 344 1164 b 404 1096 372 1129 392 1108 b 463 1043 422 1078 447 1056 b 492 1021 474 1033 485 1025 b 522 1024 513 1011 526 1015 b 469 1108 515 1033 474 1101 b 447 1150 456 1132 458 1124 b 431 1190 443 1164 435 1179 b 410 1214 425 1204 419 1214 b 393 1215 400 1215 401 1215 b 381 1217 388 1215 388 1217 l 354 1217 l 340 1217 z "},"Í":{"ha":647,"x_min":0,"x_max":0,"o":"m 640 950 b 597 958 628 961 606 958 l 528 961 b 489 963 521 961 496 963 l 157 963 b 118 961 154 963 121 961 b 118 925 96 960 97 926 b 239 911 146 924 218 925 b 278 792 274 886 278 814 b 278 664 278 792 272 688 b 276 601 282 647 276 611 l 276 188 b 240 50 275 172 275 75 b 88 29 207 25 143 49 b 78 14 82 26 76 19 b 96 1 81 3 86 3 b 131 0 107 0 121 0 l 596 0 b 647 11 608 0 640 -6 b 646 31 650 17 650 26 b 604 38 636 40 610 38 b 564 38 590 38 575 38 b 483 49 522 38 497 40 b 442 175 439 74 442 146 b 444 703 442 175 443 642 b 442 807 446 744 442 807 b 467 904 440 846 447 886 b 553 919 488 924 522 919 b 596 919 558 919 589 921 b 640 925 610 918 632 918 b 640 950 646 931 646 946 z m 496 1211 b 418 1214 476 1214 439 1222 b 386 1178 390 1206 396 1204 l 369 1131 b 321 1039 350 1076 344 1094 l 310 1013 b 338 1017 318 1003 331 1013 b 367 1040 350 1025 356 1031 b 421 1094 374 1046 388 1060 b 496 1211 481 1160 519 1208 z "},"Î":{"ha":647,"x_min":0,"x_max":0,"o":"m 640 950 b 597 958 628 961 606 958 l 528 961 b 489 963 521 961 496 963 l 157 963 b 118 961 154 963 121 961 b 118 925 96 960 97 926 b 239 911 146 924 218 925 b 278 792 274 886 278 814 b 278 664 278 792 272 688 b 276 601 282 647 276 611 l 276 188 b 240 50 275 172 275 75 b 88 29 207 25 143 49 b 78 14 82 26 76 19 b 96 1 81 3 86 3 b 131 0 107 0 121 0 l 596 0 b 647 11 608 0 640 -6 b 646 31 650 17 650 26 b 604 38 636 40 610 38 b 564 38 590 38 575 38 b 483 49 522 38 497 40 b 442 175 439 74 442 146 b 444 703 442 175 443 642 b 442 807 446 744 442 807 b 467 904 440 846 447 886 b 553 919 488 924 522 919 b 596 919 558 919 589 921 b 640 925 610 918 632 918 b 640 950 646 931 646 946 z m 518 1036 b 521 1043 521 1038 521 1043 l 518 1049 l 513 1056 l 508 1061 l 496 1081 b 435 1168 460 1136 467 1117 b 374 1244 408 1211 394 1242 b 268 1126 346 1247 281 1143 l 235 1082 b 225 1043 222 1067 207 1051 b 257 1054 235 1039 251 1049 b 282 1082 261 1058 275 1074 b 332 1142 300 1104 311 1121 l 350 1160 b 388 1119 372 1136 363 1149 l 428 1072 b 472 1042 447 1050 460 1036 b 494 1038 481 1044 492 1038 b 500 1036 494 1038 497 1036 b 508 1039 503 1036 506 1039 b 518 1036 513 1039 514 1033 z "},"Ï":{"ha":647,"x_min":0,"x_max":0,"o":"m 640 950 b 597 958 628 961 606 958 l 528 961 b 489 963 521 961 496 963 l 157 963 b 118 961 154 963 121 961 b 118 925 96 960 97 926 b 239 911 146 924 218 925 b 278 792 274 886 278 814 b 278 664 278 792 272 688 b 276 601 282 647 276 611 l 276 188 b 240 50 275 172 275 75 b 88 29 207 25 143 49 b 78 14 82 26 76 19 b 96 1 81 3 86 3 b 131 0 107 0 121 0 l 596 0 b 647 11 608 0 640 -6 b 646 31 650 17 650 26 b 604 38 636 40 610 38 b 564 38 590 38 575 38 b 483 49 522 38 497 40 b 442 175 439 74 442 146 b 444 703 442 175 443 642 b 442 807 446 744 442 807 b 467 904 440 846 447 886 b 553 919 488 924 522 919 b 596 919 558 919 589 921 b 640 925 610 918 632 918 b 640 950 646 931 646 946 z m 251 1160 b 211 1083 214 1146 206 1110 b 249 1039 215 1061 231 1046 b 306 1046 268 1031 289 1036 b 335 1099 326 1060 335 1078 b 306 1157 333 1122 322 1146 b 251 1160 289 1168 268 1168 z m 440 1160 b 400 1081 404 1143 392 1108 b 440 1038 407 1056 426 1043 b 499 1049 463 1031 483 1038 b 525 1101 518 1061 526 1081 b 493 1157 524 1128 508 1147 b 440 1160 481 1165 454 1167 z "},"Ì":{"ha":647,"x_min":0,"x_max":0,"o":"m 640 950 b 597 958 628 961 606 958 l 528 961 b 489 963 521 961 496 963 l 157 963 b 118 961 154 963 121 961 b 118 925 96 960 97 926 b 239 911 146 924 218 925 b 278 792 274 886 278 814 b 278 664 278 792 272 688 b 276 601 282 647 276 611 l 276 188 b 240 50 275 172 275 75 b 88 29 207 25 143 49 b 78 14 82 26 76 19 b 96 1 81 3 86 3 b 131 0 107 0 121 0 l 596 0 b 647 11 608 0 640 -6 b 646 31 650 17 650 26 b 604 38 636 40 610 38 b 564 38 590 38 575 38 b 483 49 522 38 497 40 b 442 175 439 74 442 146 b 444 703 442 175 443 642 b 442 807 446 744 442 807 b 467 904 440 846 447 886 b 553 919 488 924 522 919 b 596 919 558 919 589 921 b 640 925 610 918 632 918 b 640 950 646 931 646 946 z m 249 1257 b 247 1226 239 1250 236 1238 b 269 1197 257 1215 265 1206 b 325 1136 292 1171 313 1149 b 382 1085 343 1119 368 1097 b 413 1063 393 1075 406 1067 b 443 1065 433 1051 447 1057 b 389 1149 436 1075 393 1142 b 368 1192 375 1174 378 1165 b 351 1231 364 1206 356 1221 b 331 1254 346 1244 340 1254 b 314 1256 321 1256 322 1256 b 301 1257 308 1256 308 1257 l 274 1257 l 261 1257 z "},"Ó":{"ha":1161,"x_min":0,"x_max":0,"o":"m 524 988 b 347 929 467 981 388 950 b 79 524 188 844 94 681 b 246 101 64 378 97 222 b 774 -1 414 -35 601 -56 b 1146 353 944 53 1093 165 b 1043 807 1182 479 1146 689 b 524 988 897 976 656 1004 z m 376 840 b 514 933 418 889 464 919 b 804 867 596 956 719 935 b 968 429 942 756 974 539 b 782 69 961 310 922 157 b 519 38 707 22 594 8 b 285 329 375 94 315 211 b 376 840 253 458 258 700 z m 714 1239 b 636 1242 694 1242 657 1250 b 604 1207 608 1233 615 1231 l 588 1160 b 539 1068 568 1106 567 1122 l 528 1040 b 556 1046 536 1031 549 1040 b 585 1069 568 1054 574 1060 b 639 1122 590 1075 607 1088 b 714 1239 700 1188 738 1236 z "},"Ô":{"ha":1161,"x_min":0,"x_max":0,"o":"m 524 988 b 347 929 467 981 388 950 b 79 524 188 844 94 681 b 246 101 64 378 97 222 b 774 -1 414 -35 601 -56 b 1146 353 944 53 1093 165 b 1043 807 1182 479 1146 689 b 524 988 897 976 656 1004 z m 376 840 b 514 933 418 889 464 919 b 804 867 596 956 719 935 b 968 429 942 756 974 539 b 782 69 961 310 922 157 b 519 38 707 22 594 8 b 285 329 375 94 315 211 b 376 840 253 458 258 700 z m 786 1036 b 789 1043 789 1038 789 1043 l 786 1049 l 781 1056 l 776 1061 l 764 1081 b 701 1168 728 1136 732 1117 b 642 1244 675 1211 663 1242 b 536 1126 613 1247 549 1143 l 501 1082 b 492 1043 489 1067 475 1051 b 524 1054 501 1039 518 1049 b 550 1082 528 1058 543 1074 b 599 1142 568 1104 581 1119 l 617 1160 b 656 1119 639 1136 631 1150 l 694 1072 b 739 1042 715 1051 726 1036 b 763 1038 747 1044 760 1038 b 768 1036 763 1038 765 1036 b 776 1039 771 1036 774 1039 b 786 1036 781 1039 782 1033 z "},"Ò":{"ha":1161,"x_min":0,"x_max":0,"o":"m 524 988 b 347 929 467 981 388 950 b 79 524 188 844 94 681 b 246 101 64 378 97 222 b 774 -1 414 -35 601 -56 b 1146 353 944 53 1093 165 b 1043 807 1182 479 1146 689 b 524 988 897 976 656 1004 z m 376 840 b 514 933 418 889 464 919 b 804 867 596 956 719 935 b 968 429 942 756 974 539 b 782 69 961 310 922 157 b 519 38 707 22 594 8 b 285 329 375 94 315 211 b 376 840 253 458 258 700 z m 468 1257 b 467 1226 458 1250 456 1238 b 489 1197 476 1215 483 1206 b 544 1136 511 1171 532 1149 b 601 1085 563 1119 588 1097 b 632 1063 613 1075 625 1067 b 663 1065 653 1051 667 1057 b 608 1149 656 1075 613 1142 b 588 1192 594 1174 597 1165 b 571 1231 583 1206 575 1221 b 550 1254 565 1244 560 1254 b 533 1256 540 1256 542 1256 b 521 1257 528 1256 528 1257 l 493 1257 l 481 1257 z "},"Ú":{"ha":1246,"x_min":0,"x_max":0,"o":"m 622 921 b 625 957 635 921 647 947 b 592 963 618 960 599 963 l 556 963 b 522 963 544 963 532 963 b 383 969 447 963 404 969 l 214 969 b 83 963 201 969 93 972 b 76 939 76 956 74 946 b 100 924 79 929 89 926 b 258 907 121 918 231 928 b 288 756 299 878 288 779 l 278 401 b 464 6 274 271 328 83 b 844 19 572 -57 749 -37 b 1021 392 1007 115 1021 239 l 1021 774 b 1046 892 1021 815 1014 860 b 1203 925 1081 926 1200 925 b 1244 932 1203 925 1239 921 b 1233 960 1250 942 1247 958 l 1197 963 l 1126 963 b 1056 971 1097 963 1099 964 b 983 971 1026 976 1001 971 l 942 971 b 899 967 926 967 906 968 b 856 964 885 967 869 964 b 772 961 847 964 778 964 b 758 938 761 956 757 944 b 782 918 761 924 769 918 l 815 918 b 844 918 818 918 844 918 b 906 904 875 918 890 914 b 964 717 967 863 964 751 l 964 421 b 807 89 964 289 961 174 b 565 92 739 51 626 56 b 453 403 444 163 453 321 l 453 797 b 474 907 453 831 453 889 b 622 921 492 924 607 919 z m 797 1251 b 718 1254 776 1254 739 1261 b 688 1219 692 1244 697 1243 l 669 1172 b 621 1081 649 1118 649 1133 l 610 1053 b 638 1058 618 1043 631 1053 b 667 1082 650 1067 656 1072 b 721 1135 674 1088 689 1101 b 797 1251 782 1201 819 1249 z "},"Û":{"ha":1246,"x_min":0,"x_max":0,"o":"m 622 921 b 625 957 635 921 647 947 b 592 963 618 960 599 963 l 556 963 b 522 963 544 963 532 963 b 383 969 447 963 404 969 l 214 969 b 83 963 201 969 93 972 b 76 939 76 956 74 946 b 100 924 79 929 89 926 b 258 907 121 918 231 928 b 288 756 299 878 288 779 l 278 401 b 464 6 274 271 328 83 b 844 19 572 -57 749 -37 b 1021 392 1007 115 1021 239 l 1021 774 b 1046 892 1021 815 1014 860 b 1203 925 1081 926 1200 925 b 1244 932 1203 925 1239 921 b 1233 960 1250 942 1247 958 l 1197 963 l 1126 963 b 1056 971 1097 963 1099 964 b 983 971 1026 976 1001 971 l 942 971 b 899 967 926 967 906 968 b 856 964 885 967 869 964 b 772 961 847 964 778 964 b 758 938 761 956 757 944 b 782 918 761 924 769 918 l 815 918 b 844 918 818 918 844 918 b 906 904 875 918 890 914 b 964 717 967 863 964 751 l 964 421 b 807 89 964 289 961 174 b 565 92 739 51 626 56 b 453 403 444 163 453 321 l 453 797 b 474 907 453 831 453 889 b 622 921 492 924 607 919 z m 835 1053 b 838 1060 838 1054 838 1060 l 835 1065 l 829 1072 l 825 1078 l 813 1097 b 751 1185 776 1153 783 1132 b 692 1261 725 1228 711 1258 b 586 1143 663 1264 599 1158 l 551 1099 b 542 1060 539 1083 524 1068 b 574 1071 551 1056 568 1065 b 599 1099 578 1075 592 1090 b 649 1158 617 1121 629 1135 l 667 1176 b 704 1135 689 1153 678 1164 l 744 1089 b 789 1058 764 1067 776 1053 b 811 1054 797 1061 808 1054 b 817 1053 811 1054 814 1053 b 825 1056 819 1053 822 1056 b 835 1053 829 1056 831 1050 z "},"Ù":{"ha":1246,"x_min":0,"x_max":0,"o":"m 622 921 b 625 957 635 921 647 947 b 592 963 618 960 599 963 l 556 963 b 522 963 544 963 532 963 b 383 969 447 963 404 969 l 214 969 b 83 963 201 969 93 972 b 76 939 76 956 74 946 b 100 924 79 929 89 926 b 258 907 121 918 231 928 b 288 756 299 878 288 779 l 278 401 b 464 6 274 271 328 83 b 844 19 572 -57 749 -37 b 1021 392 1007 115 1021 239 l 1021 774 b 1046 892 1021 815 1014 860 b 1203 925 1081 926 1200 925 b 1244 932 1203 925 1239 921 b 1233 960 1250 942 1247 958 l 1197 963 l 1126 963 b 1056 971 1097 963 1099 964 b 983 971 1026 976 1001 971 l 942 971 b 899 967 926 967 906 968 b 856 964 885 967 869 964 b 772 961 847 964 778 964 b 758 938 761 956 757 944 b 782 918 761 924 769 918 l 815 918 b 844 918 818 918 844 918 b 906 904 875 918 890 914 b 964 717 967 863 964 751 l 964 421 b 807 89 964 289 961 174 b 565 92 739 51 626 56 b 453 403 444 163 453 321 l 453 797 b 474 907 453 831 453 889 b 622 921 492 924 607 919 z m 538 1257 b 536 1226 528 1250 525 1238 b 560 1197 546 1215 554 1206 b 614 1136 582 1171 601 1149 b 672 1085 632 1119 657 1097 b 701 1063 683 1075 694 1067 b 732 1065 722 1051 736 1057 b 679 1149 725 1075 683 1142 b 657 1192 665 1174 668 1165 b 640 1231 653 1206 644 1221 b 619 1254 635 1244 629 1254 b 603 1256 610 1256 611 1256 b 590 1257 597 1256 597 1257 l 564 1257 l 550 1257 z "},"ı":{"ha":372,"x_min":0,"x_max":0,"o":"m 267 396 b 101 328 211 382 154 357 b 100 318 101 328 97 322 b 135 319 107 310 129 318 b 165 326 136 319 158 329 b 174 317 171 325 174 317 b 174 282 174 306 174 293 l 174 174 b 172 71 174 154 175 88 b 147 28 168 49 171 36 b 96 15 125 21 100 28 b 97 4 94 11 94 8 b 142 0 103 -4 131 0 l 314 0 b 357 7 328 0 350 -1 b 357 25 361 11 361 19 b 319 32 350 35 329 32 b 285 33 314 32 290 32 b 272 157 265 47 272 140 l 275 332 b 275 353 275 339 275 346 l 275 372 b 267 396 275 389 275 399 z "},"ˆ":{"ha":378,"x_min":0,"x_max":0,"o":"m 383 522 l 386 529 l 383 535 l 378 542 l 374 547 l 363 567 b 300 654 324 621 332 601 b 240 731 274 696 261 728 b 135 613 211 733 147 629 l 100 568 b 90 529 88 553 75 540 b 122 540 99 526 118 538 b 149 568 128 543 142 560 b 197 628 165 589 178 604 l 215 646 b 254 604 238 622 228 635 l 293 558 b 338 528 313 536 325 522 b 361 524 346 531 358 525 l 367 522 l 372 524 l 376 524 z "},"˜":{"ha":392,"x_min":0,"x_max":0,"o":"m 392 686 b 358 654 372 686 374 669 b 317 638 344 643 333 639 b 163 681 304 638 203 690 b 104 633 143 676 119 654 b 89 603 99 624 94 617 b 85 572 88 601 82 579 l 96 571 b 132 610 113 596 119 604 b 279 575 169 629 218 581 b 400 678 340 571 372 617 z "},"¯":{"ha":382,"x_min":0,"x_max":0,"o":"m 379 646 b 338 647 372 650 344 647 l 124 647 b 75 640 103 647 88 643 b 76 611 75 631 76 621 b 82 581 76 594 75 590 l 344 581 b 382 590 354 581 374 578 b 379 646 379 604 379 611 z "},"˘":{"ha":407,"x_min":0,"x_max":0,"o":"m 332 757 b 319 732 322 749 322 739 b 304 704 314 719 313 714 b 224 674 279 679 244 671 b 151 749 178 682 163 719 b 122 749 149 749 122 749 b 92 746 111 753 100 751 b 179 635 104 686 129 653 b 304 660 211 622 271 633 b 343 707 326 678 338 694 b 343 757 349 722 356 746 z "},"˙":{"ha":264,"x_min":0,"x_max":0,"o":"m 108 608 l 207 813 b 256 986 215 831 282 951 b 194 1007 240 1006 215 1013 b 128 857 142 994 135 892 l 79 608 z "},"˚":{"ha":283,"x_min":0,"x_max":0,"o":"m 156 715 b 79 606 100 699 76 651 b 135 522 82 572 101 540 b 226 518 165 504 201 506 b 288 600 267 539 283 572 b 250 693 292 632 279 668 b 156 715 221 719 185 724 z m 115 622 b 160 679 118 643 133 668 b 222 671 176 686 200 688 b 251 606 243 656 254 631 b 207 549 250 585 233 560 b 143 558 189 542 163 542 b 115 622 122 575 111 599 z "},"¸":{"ha":268,"x_min":0,"x_max":0,"o":""},"Ð":{"ha":268,"x_min":0,"x_max":0,"o":""}}}
